
o 1.obj
v -4.33333334 -0.18750000 -1.83333334
v -4.33333334 -0.19587341 -1.86458334
v -4.33333334 -0.21875000 -1.88745993
v -4.33333334 -0.25000000 -1.89583334
v -4.33333334 -0.28125000 -1.88745993
v -4.33333334 -0.30412659 -1.86458334
v -4.33333334 -0.31250000 -1.83333334
v -4.33333334 -0.30412659 -1.80208334
v -4.33333334 -0.28125000 -1.77920675
v -4.33333334 -0.25000000 -1.77083334
v -4.33333334 -0.21875000 -1.77920675
v -4.33333334 -0.19587341 -1.80208334
v -4.04166667 -0.18750000 -1.83333334
v -4.04166667 -0.19587341 -1.80208334
v -4.04166667 -0.21875000 -1.77920675
v -4.04166667 -0.25000000 -1.77083334
v -4.04166667 -0.28125000 -1.77920675
v -4.04166667 -0.30412659 -1.80208334
v -4.04166667 -0.31250000 -1.83333334
v -4.04166667 -0.30412659 -1.86458334
v -4.04166667 -0.28125000 -1.88745993
v -4.04166667 -0.25000000 -1.89583334
v -4.04166667 -0.21875000 -1.88745993
v -4.04166667 -0.19587341 -1.86458334
v -3.79166667 -0.18750000 -1.83333334
v -3.79166667 -0.19587341 -1.86458334
v -3.79166667 -0.21875000 -1.88745993
v -3.79166667 -0.25000000 -1.89583334
v -3.79166667 -0.28125000 -1.88745993
v -3.79166667 -0.30412659 -1.86458334
v -3.79166667 -0.31250000 -1.83333334
v -3.79166667 -0.30412659 -1.80208334
v -3.79166667 -0.28125000 -1.77920675
v -3.79166667 -0.25000000 -1.77083334
v -3.79166667 -0.21875000 -1.77920675
v -3.79166667 -0.19587341 -1.80208334
v -3.50000000 -0.18750000 -1.83333334
v -3.50000000 -0.19587341 -1.80208334
v -3.50000000 -0.21875000 -1.77920675
v -3.50000000 -0.25000000 -1.77083334
v -3.50000000 -0.28125000 -1.77920675
v -3.50000000 -0.30412659 -1.80208334
v -3.50000000 -0.31250000 -1.83333334
v -3.50000000 -0.30412659 -1.86458334
v -3.50000000 -0.28125000 -1.88745993
v -3.50000000 -0.25000000 -1.89583334
v -3.50000000 -0.21875000 -1.88745993
v -3.50000000 -0.19587341 -1.86458334
v -4.33333334 0.31250000 -1.83333334
v -4.33333334 0.30412659 -1.86458334
v -4.33333334 0.28125000 -1.88745993
v -4.33333334 0.25000000 -1.89583334
v -4.33333334 0.21875000 -1.88745993
v -4.33333334 0.19587341 -1.86458334
v -4.33333334 0.18750000 -1.83333334
v -4.33333334 0.19587341 -1.80208334
v -4.33333334 0.21875000 -1.77920675
v -4.33333334 0.25000000 -1.77083334
v -4.33333334 0.28125000 -1.77920675
v -4.33333334 0.30412659 -1.80208334
v -4.04166667 0.31250000 -1.83333334
v -4.04166667 0.30412659 -1.80208334
v -4.04166667 0.28125000 -1.77920675
v -4.04166667 0.25000000 -1.77083334
v -4.04166667 0.21875000 -1.77920675
v -4.04166667 0.19587341 -1.80208334
v -4.04166667 0.18750000 -1.83333334
v -4.04166667 0.19587341 -1.86458334
v -4.04166667 0.21875000 -1.88745993
v -4.04166667 0.25000000 -1.89583334
v -4.04166667 0.28125000 -1.88745993
v -4.04166667 0.30412659 -1.86458334
v -3.79166667 0.31250000 -1.83333334
v -3.79166667 0.30412659 -1.86458334
v -3.79166667 0.28125000 -1.88745993
v -3.79166667 0.25000000 -1.89583334
v -3.79166667 0.21875000 -1.88745993
v -3.79166667 0.19587341 -1.86458334
v -3.79166667 0.18750000 -1.83333334
v -3.79166667 0.19587341 -1.80208334
v -3.79166667 0.21875000 -1.77920675
v -3.79166667 0.25000000 -1.77083334
v -3.79166667 0.28125000 -1.77920675
v -3.79166667 0.30412659 -1.80208334
v -3.50000000 0.31250000 -1.83333334
v -3.50000000 0.30412659 -1.80208334
v -3.50000000 0.28125000 -1.77920675
v -3.50000000 0.25000000 -1.77083334
v -3.50000000 0.21875000 -1.77920675
v -3.50000000 0.19587341 -1.80208334
v -3.50000000 0.18750000 -1.83333334
v -3.50000000 0.19587341 -1.86458334
v -3.50000000 0.21875000 -1.88745993
v -3.50000000 0.25000000 -1.89583334
v -3.50000000 0.28125000 -1.88745993
v -3.50000000 0.30412659 -1.86458334
v -3.50000000 0.58333333 -1.33333334
v -4.33333334 0.58333333 -1.33333334
v -4.33333334 0.58333333 -1.50000000
v -4.04166667 0.58333333 -1.50000000
v -4.04166667 0.58333333 -2.16666667
v -3.79166667 0.58333333 -2.16666667
v -3.79166667 0.58333333 -1.50000000
v -3.50000000 0.58333333 -1.50000000
v -4.33333334 -0.58333333 -1.33333334
v -3.50000000 -0.58333333 -1.33333334
v -3.50000000 -0.58333333 -1.50000000
v -3.79166667 -0.58333333 -1.50000000
v -3.79166667 -0.58333333 -2.16666667
v -4.04166667 -0.58333333 -2.16666667
v -4.04166667 -0.58333333 -1.50000000
v -4.33333334 -0.58333333 -1.50000000
v -3.50000000 -2.00000000 -1.33333334
v -3.50000000 -2.50000000 -1.83333334
v -3.50000000 -2.50000000 -2.50000000
v -3.50000000 -1.83333333 -2.50000000
v -3.50000000 -1.66666667 -2.33333334
v -3.50000000 1.66666667 -2.33333334
v -3.50000000 1.83333333 -2.50000000
v -3.50000000 2.50000000 -2.50000000
v -3.50000000 2.50000000 -1.83333334
v -3.50000000 2.00000000 -1.33333334
v -4.33333334 -2.00000000 -1.33333334
v -4.33333334 2.50000000 -1.83333334
v -4.33333334 2.00000000 -1.33333334
v -4.33333334 -1.83333333 -2.50000000
v -4.33333334 -1.66666667 -2.33333334
v -4.33333334 1.66666667 -2.33333334
v -4.33333334 1.83333333 -2.50000000
v -4.33333334 -2.50000000 -1.83333334
v -4.33333334 2.50000000 -2.50000000
v -4.33333334 -2.50000000 -2.50000000
v -3.91666667 0.00000000 -2.33333334
v -3.50000000 0.00000000 -2.33333334
v -4.33333334 0.00000000 -2.33333334
v -4.33333334 -1.39062500 -1.86039664
v -4.33333334 -1.39062500 -1.80627005
v -4.33333334 1.39062500 -1.86039664
v -4.33333334 1.39062500 -1.80627005
v -3.50000000 -1.39062500 -1.80627005
v -3.50000000 -1.39062500 -1.86039664
v -3.50000000 1.39062500 -1.80627005
v -3.50000000 1.39062500 -1.86039664
v -3.50000000 1.40206330 -1.84895834
v -3.50000000 1.40206330 -1.81770834
v -3.50000000 -1.40206330 -1.84895834
v -3.50000000 -1.40206330 -1.81770834
v -4.33333334 1.40206330 -1.81770834
v -4.33333334 1.40206330 -1.84895834
v -4.33333334 -1.40206330 -1.81770834
v -4.33333334 -1.40206330 -1.84895834
v -4.33333334 -1.40625000 -1.83333334
v -4.33333334 1.40625000 -1.83333334
v -3.50000000 -1.40625000 -1.83333334
v -3.50000000 1.40625000 -1.83333334
v -4.33333334 0.70833333 -2.11458334
v -3.50000000 0.70833333 -2.11458334
v -3.50000000 1.54166666 -1.66666667
v -3.50000000 -1.54166666 -1.66666667
v -4.33333334 1.54166666 -1.66666667
v -4.33333334 -1.54166666 -1.66666667
v -4.12500001 -0.83333333 -2.33333334
v -3.70833333 -0.83333333 -2.33333334
v -4.12500001 0.83333333 -2.33333334
v -3.70833333 0.83333333 -2.33333334
v -3.50000000 0.83333333 -2.33333334
v -4.33333334 0.83333333 -2.33333334
v -3.50000000 -0.83333333 -2.33333334
v -4.33333334 -0.83333333 -2.33333334
v -3.91666667 1.29166666 -1.33333334
v -3.91666667 -1.29166666 -1.33333334
v -4.33333334 -0.95833333 -2.11458334
v -3.50000000 -0.95833333 -2.11458334
v -3.50000000 0.95833333 -2.11458334
v -4.33333334 0.95833333 -2.11458334
v -4.33333334 0.97395833 -2.11039663
v -3.50000000 0.97395833 -2.11039663
v -3.50000000 -0.97395833 -2.11039663
v -4.33333334 -0.97395833 -2.11039663
v -4.33333334 -1.29166666 -1.41666667
v -4.33333334 1.29166666 -1.41666667
v -3.50000000 -1.29166666 -1.41666667
v -3.50000000 1.29166666 -1.41666667
v -3.50000000 1.29166666 -1.33333334
v -3.50000000 -1.29166666 -1.33333334
v -4.33333334 1.29166666 -1.33333334
v -4.33333334 -1.29166666 -1.33333334
v -4.18750001 0.00000000 -1.50000000
v -3.64583333 0.00000000 -1.50000000
v -3.91666667 0.00000000 -2.16666667
v -3.79166667 0.00000000 -2.16666667
v -4.04166667 0.00000000 -2.16666667
v -3.79166667 0.00000000 -1.50000000
v -3.50000000 0.00000000 -1.50000000
v -4.04166667 0.00000000 -1.50000000
v -4.33333334 0.00000000 -1.50000000
v -4.33333334 -0.83593750 -1.87392828
v -3.50000000 -0.83593750 -1.87392828
v -3.50000000 0.83593750 -1.87392828
v -4.33333334 0.83593750 -1.87392828
v -4.33333334 -1.94531250 -1.81980169
v -4.33333334 1.94531250 -1.81980169
v -3.50000000 -1.94531250 -1.81980169
v -3.50000000 1.94531250 -1.81980169
v -4.33333334 -1.94531250 -1.84686499
v -4.33333334 1.94531250 -1.84686499
v -3.50000000 -1.94531250 -1.84686499
v -3.50000000 1.94531250 -1.84686499
v -3.50000000 0.83593750 -1.79273840
v -3.50000000 -0.83593750 -1.79273840
v -4.33333334 0.83593750 -1.79273840
v -4.33333334 -0.83593750 -1.79273840
v -3.50000000 1.95103165 -1.84114584
v -3.50000000 -1.95103165 -1.84114584
v -4.33333334 1.95103165 -1.84114584
v -4.33333334 -1.95103165 -1.84114584
v -3.50000000 1.95103165 -1.82552084
v -3.50000000 -1.95103165 -1.82552084
v -4.33333334 1.95103165 -1.82552084
v -4.33333334 -1.95103165 -1.82552084
v -4.33333334 -0.85309494 -1.85677084
v -4.33333334 -0.85309494 -1.80989584
v -4.33333334 0.85309494 -1.85677084
v -4.33333334 0.85309494 -1.80989584
v -3.50000000 -0.85309494 -1.80989584
v -3.50000000 -0.85309494 -1.85677084
v -3.50000000 0.85309494 -1.80989584
v -3.50000000 0.85309494 -1.85677084
v -4.33333334 -1.95312500 -1.83333334
v -4.33333334 1.95312500 -1.83333334
v -3.50000000 -1.95312500 -1.83333334
v -3.50000000 1.95312500 -1.83333334
v -3.50000000 0.85937500 -1.83333334
v -3.50000000 -0.85937500 -1.83333334
v -4.33333334 0.85937500 -1.83333334
v -4.33333334 -0.85937500 -1.83333334
v -3.91666667 -2.25000000 -1.58333334
v -3.91666667 2.25000000 -1.58333334
v -4.33333334 -0.85728165 -1.84114584
v -4.33333334 -0.85728165 -1.82552084
v -4.33333334 0.85728165 -1.84114584
v -4.33333334 0.85728165 -1.82552084
v -3.50000000 -0.85728165 -1.82552084
v -3.50000000 -0.85728165 -1.84114584
v -3.50000000 0.85728165 -1.82552084
v -3.50000000 0.85728165 -1.84114584
v -3.50000000 0.84737580 -1.86248999
v -3.50000000 0.84737580 -1.80417669
v -3.50000000 -0.84737580 -1.86248999
v -3.50000000 -0.84737580 -1.80417669
v -4.33333334 0.84737580 -1.80417669
v -4.33333334 0.84737580 -1.86248999
v -4.33333334 -0.84737580 -1.80417669
v -4.33333334 -0.84737580 -1.86248999
v -3.91666667 2.16666667 -2.50000000
v -3.91666667 -2.16666667 -2.50000000
v -3.91666667 -2.50000000 -2.16666667
v -3.91666667 2.50000000 -2.16666667
v -3.81250000 1.25000000 -2.33333334
v -3.81250000 -1.25000000 -2.33333334
v -4.33333334 1.18750000 -2.22395834
v -3.50000000 1.18750000 -2.22395834
v -3.50000000 0.22916667 -2.00520834
v -4.33333334 0.22916667 -2.00520834
v -3.50000000 2.02083333 -1.75000000
v -3.50000000 -2.02083333 -1.75000000
v -4.33333334 2.02083333 -1.75000000
v -4.33333334 -2.02083333 -1.75000000
v -3.50000000 1.06250000 -1.58333334
v -3.50000000 -1.06250000 -1.58333334
v -4.33333334 1.06250000 -1.58333334
v -4.33333334 -1.06250000 -1.58333334
v -3.50000000 2.08333333 -2.08333334
v -3.50000000 -2.08333333 -2.08333334
v -4.33333334 2.08333333 -2.08333334
v -4.33333334 -2.08333333 -2.08333334
v -4.33333334 0.16666666 -1.63541667
v -4.04166667 -0.16666666 -1.63541667
v -3.50000000 0.16666666 -1.63541667
v -3.79166667 0.16666666 -1.63541667
v -4.04166667 0.16666666 -2.03125000
v -3.79166667 -0.16666666 -2.03125000
v -3.91666667 1.75000000 -2.41666667
v -3.91666667 -1.75000000 -2.41666667
v -4.33333334 -0.98697916 -1.65313502
v -4.33333334 0.98697916 -1.65313502
v -3.50000000 -0.98697916 -1.65313502
v -3.50000000 0.98697916 -1.65313502
v -4.22916667 -1.25000000 -2.33333334
v -3.60416667 -1.25000000 -2.33333334
v -4.22916667 1.25000000 -2.33333334
v -3.60416667 1.25000000 -2.33333334
v -4.22916667 -0.41666667 -2.33333334
v -4.02083334 -0.41666667 -2.33333334
v -3.81250000 -0.41666667 -2.33333334
v -3.60416667 -0.41666667 -2.33333334
v -4.22916667 0.41666667 -2.33333334
v -4.02083334 0.41666667 -2.33333334
v -3.81250000 0.41666667 -2.33333334
v -3.60416667 0.41666667 -2.33333334
v -4.33333334 -2.08333333 -2.41666667
v -4.33333334 2.08333333 -2.41666667
v -3.50000000 -2.08333333 -2.41666667
v -3.50000000 2.08333333 -2.41666667
v -3.91666667 -1.66666667 -2.33333334
v -3.91666667 -1.83333333 -2.50000000
v -3.91666667 1.83333333 -2.50000000
v -3.91666667 1.66666667 -2.33333334
v -3.91666667 2.50000000 -1.83333334
v -3.91666667 2.50000000 -2.50000000
v -3.91666667 -2.50000000 -1.83333334
v -3.91666667 -2.50000000 -2.50000000
v -3.91666667 2.00000000 -1.33333334
v -3.91666667 -2.00000000 -1.33333334
v -3.91666667 -0.58333333 -1.33333334
v -3.91666667 0.58333333 -1.33333334
v -3.50000000 0.41666667 -2.33333334
v -4.33333334 0.41666667 -2.33333334
v -3.50000000 -0.41666667 -2.33333334
v -4.33333334 -0.41666667 -2.33333334
v -3.50000000 1.25000000 -2.33333334
v -4.33333334 1.25000000 -2.33333334
v -3.50000000 -1.25000000 -2.33333334
v -4.33333334 -1.25000000 -2.33333334
v -3.70833333 -1.64583333 -1.33333334
v -4.12500001 -1.64583333 -1.33333334
v -4.12500001 1.64583333 -1.33333334
v -3.70833333 1.64583333 -1.33333334
v -4.12500001 0.93750000 -1.33333334
v -3.70833333 0.93750000 -1.33333334
v -3.70833333 -0.93750000 -1.33333334
v -4.12500001 -0.93750000 -1.33333334
v -4.33333334 -1.31250000 -2.22395834
v -3.50000000 -1.31250000 -2.22395834
v -4.33333334 0.35416667 -2.22395834
v -3.50000000 0.35416667 -2.22395834
v -3.50000000 1.31250000 -2.22395834
v -4.33333334 1.31250000 -2.22395834
v -4.33333334 0.60416667 -2.00520834
v -3.50000000 0.60416667 -2.00520834
v -3.50000000 -0.60416667 -2.00520834
v -4.33333334 -0.60416667 -2.00520834
v -4.33333334 -0.54166667 -2.11458334
v -3.50000000 -0.54166667 -2.11458334
v -4.33333334 1.32031250 -2.22186499
v -3.50000000 1.32031250 -2.22186499
v -3.50000000 -1.32031250 -2.22186499
v -4.33333334 -1.32031250 -2.22186499
v -4.33333334 0.62760417 -1.99892828
v -3.50000000 0.62760417 -1.99892828
v -3.50000000 -0.62760417 -1.99892828
v -4.33333334 -0.62760417 -1.99892828
v -4.33333334 -0.61979167 -2.00102164
v -3.50000000 -0.61979167 -2.00102164
v -3.50000000 0.61979167 -2.00102164
v -4.33333334 0.61979167 -2.00102164
v -4.33333334 -1.64583333 -1.37500000
v -4.33333334 1.64583333 -1.37500000
v -3.50000000 -1.64583333 -1.37500000
v -3.50000000 1.64583333 -1.37500000
v -4.33333334 -0.93750000 -1.45833333
v -4.33333334 -0.93750000 -1.37500000
v -4.33333334 0.93750000 -1.45833333
v -4.33333334 0.93750000 -1.37500000
v -3.50000000 -0.93750000 -1.45833333
v -3.50000000 -0.93750000 -1.37500000
v -3.50000000 0.93750000 -1.45833333
v -3.50000000 0.93750000 -1.37500000
v -3.91666667 -0.58333333 -1.83333334
v -3.91666667 0.58333333 -1.83333334
v -3.50000000 1.64583333 -1.33333334
v -3.50000000 -1.64583333 -1.33333334
v -4.33333334 1.64583333 -1.33333334
v -4.33333334 -1.64583333 -1.33333334
v -3.91666667 1.64583333 -1.33333334
v -3.91666667 -1.64583333 -1.33333334
v -3.50000000 0.93750000 -1.33333334
v -3.50000000 -0.93750000 -1.33333334
v -4.33333334 0.93750000 -1.33333334
v -4.33333334 -0.93750000 -1.33333334
v -3.91666667 -0.93750000 -1.33333334
v -3.91666667 0.93750000 -1.33333334
v -4.33333334 -2.25000000 -1.58333334
v -4.33333334 2.25000000 -1.58333334
v -3.50000000 -2.25000000 -1.58333334
v -3.50000000 2.25000000 -1.58333334
v -4.07291667 1.45833334 -2.33333334
v -4.07291667 -1.45833334 -2.33333334
v -4.04166667 0.58333333 -1.83333334
v -3.79166667 0.58333333 -1.83333334
v -3.79166667 -0.58333333 -1.83333334
v -4.04166667 -0.58333333 -1.83333334
v -3.50000000 2.16666667 -2.50000000
v -3.50000000 -2.16666667 -2.50000000
v -4.33333334 2.16666667 -2.50000000
v -4.33333334 -2.16666667 -2.50000000
v -4.33333334 -2.50000000 -2.16666667
v -4.33333334 2.50000000 -2.16666667
v -3.50000000 -2.50000000 -2.16666667
v -3.50000000 2.50000000 -2.16666667
v -4.26041667 0.29166666 -1.50000000
v -4.11458334 0.29166666 -1.50000000
v -4.26041667 -0.29166666 -1.50000000
v -4.11458334 -0.29166666 -1.50000000
v -3.57291667 -0.29166666 -1.50000000
v -3.71875000 -0.29166666 -1.50000000
v -3.57291667 0.29166666 -1.50000000
v -3.71875000 0.29166666 -1.50000000
v -3.97916667 0.29166666 -2.16666667
v -3.85416667 0.29166666 -2.16666667
v -3.97916667 -0.29166666 -2.16666667
v -3.85416667 -0.29166666 -2.16666667
v -3.50000000 2.29166667 -2.29166667
v -3.50000000 -2.29166667 -2.29166667
v -4.33333334 2.29166667 -2.29166667
v -4.33333334 -2.29166667 -2.29166667
v -3.79166667 -0.29166666 -2.16666667
v -4.04166667 -0.29166666 -2.16666667
v -3.79166667 0.29166666 -2.16666667
v -4.04166667 0.29166666 -2.16666667
v -3.79166667 0.29166666 -1.50000000
v -3.50000000 0.29166666 -1.50000000
v -3.79166667 -0.29166666 -1.50000000
v -3.50000000 -0.29166666 -1.50000000
v -4.04166667 -0.29166666 -1.50000000
v -4.33333334 -0.29166666 -1.50000000
v -4.04166667 0.29166666 -1.50000000
v -4.33333334 0.29166666 -1.50000000
v -4.06250001 0.58333333 -1.41666667
v -3.77083333 -0.58333333 -1.41666667
v -3.50000000 1.77083333 -1.50000000
v -3.50000000 -1.77083333 -1.50000000
v -4.33333334 1.77083333 -1.50000000
v -4.33333334 -1.77083333 -1.50000000
v -4.33333334 -1.80598958 -2.09009916
v -4.33333334 1.80598958 -2.09009916
v -3.50000000 -1.80598958 -2.09009916
v -3.50000000 1.80598958 -2.09009916
v -3.50000000 1.66796875 -1.85363081
v -3.50000000 -1.66796875 -1.85363081
v -4.33333334 1.66796875 -1.85363081
v -4.33333334 -1.66796875 -1.85363081
v -4.33333334 -0.55859375 -1.88069411
v -3.50000000 -0.55859375 -1.88069411
v -3.50000000 0.55859375 -1.88069411
v -4.33333334 0.55859375 -1.88069411
v -3.50000000 1.11328125 -1.79950422
v -3.50000000 -1.11328125 -1.79950422
v -4.33333334 1.11328125 -1.79950422
v -4.33333334 -1.11328125 -1.79950422
v -4.33333334 -2.22265625 -1.84009916
v -4.33333334 2.22265625 -1.84009916
v -3.50000000 -2.22265625 -1.84009916
v -3.50000000 2.22265625 -1.84009916
v -4.33333334 -2.22265625 -1.82656752
v -4.33333334 2.22265625 -1.82656752
v -3.50000000 -2.22265625 -1.82656752
v -3.50000000 2.22265625 -1.82656752
v -4.33333334 -1.11328125 -1.86716246
v -4.33333334 1.11328125 -1.86716246
v -3.50000000 -1.11328125 -1.86716246
v -3.50000000 1.11328125 -1.86716246
v -4.33333334 -0.55859375 -1.78597257
v -4.33333334 0.55859375 -1.78597257
v -3.50000000 -0.55859375 -1.78597257
v -3.50000000 0.55859375 -1.78597257
v -3.50000000 1.66796875 -1.81303587
v -3.50000000 -1.66796875 -1.81303587
v -4.33333334 1.66796875 -1.81303587
v -4.33333334 -1.66796875 -1.81303587
v -4.33333334 -0.57861077 -1.86067709
v -4.33333334 -0.57861077 -1.80598959
v -4.33333334 0.57861077 -1.86067709
v -4.33333334 0.57861077 -1.80598959
v -3.50000000 -0.57861077 -1.80598959
v -3.50000000 -0.57861077 -1.86067709
v -3.50000000 0.57861077 -1.80598959
v -3.50000000 0.57861077 -1.86067709
v -3.50000000 2.22551582 -1.82942709
v -3.50000000 -2.22551582 -1.82942709
v -4.33333334 2.22551582 -1.82942709
v -4.33333334 -2.22551582 -1.82942709
v -3.50000000 2.22551582 -1.83723959
v -3.50000000 -2.22551582 -1.83723959
v -4.33333334 2.22551582 -1.83723959
v -4.33333334 -2.22551582 -1.83723959
v -3.50000000 1.12757912 -1.85286459
v -3.50000000 1.12757912 -1.81380209
v -3.50000000 -1.12757912 -1.85286459
v -3.50000000 -1.12757912 -1.81380209
v -4.33333334 1.12757912 -1.81380209
v -4.33333334 1.12757912 -1.85286459
v -4.33333334 -1.12757912 -1.81380209
v -4.33333334 -1.12757912 -1.85286459
v -4.33333334 -1.67654747 -1.82161459
v -4.33333334 1.67654747 -1.82161459
v -3.50000000 -1.67654747 -1.82161459
v -3.50000000 1.67654747 -1.82161459
v -4.33333334 -1.67654747 -1.84505209
v -4.33333334 1.67654747 -1.84505209
v -3.50000000 -1.67654747 -1.84505209
v -3.50000000 1.67654747 -1.84505209
v -3.50000000 1.52864583 -2.09686499
v -3.50000000 -1.52864583 -2.09686499
v -4.33333334 1.52864583 -2.09686499
v -4.33333334 -1.52864583 -2.09686499
v -4.33333334 -2.22656250 -1.83333334
v -4.33333334 2.22656250 -1.83333334
v -3.50000000 -2.22656250 -1.83333334
v -3.50000000 2.22656250 -1.83333334
v -3.50000000 0.58593750 -1.83333334
v -3.50000000 -0.58593750 -1.83333334
v -4.33333334 0.58593750 -1.83333334
v -4.33333334 -0.58593750 -1.83333334
v -4.33333334 -1.13281250 -1.83333334
v -4.33333334 1.13281250 -1.83333334
v -3.50000000 -1.13281250 -1.83333334
v -3.50000000 1.13281250 -1.83333334
v -3.50000000 1.67968750 -1.83333334
v -3.50000000 -1.67968750 -1.83333334
v -4.33333334 1.67968750 -1.83333334
v -4.33333334 -1.67968750 -1.83333334
v -3.70833333 2.37500000 -1.70833334
v -3.70833333 2.12500000 -1.45833334
v -3.70833333 -2.12500000 -1.45833334
v -3.70833333 -2.37500000 -1.70833334
v -4.12500001 2.12500000 -1.45833334
v -4.12500001 2.37500000 -1.70833334
v -4.12500001 -2.37500000 -1.70833334
v -4.12500001 -2.12500000 -1.45833334
v -4.33333334 -1.67864082 -1.82942709
v -4.33333334 -1.67864082 -1.83723959
v -4.33333334 1.67864082 -1.82942709
v -4.33333334 1.67864082 -1.83723959
v -3.50000000 -1.67864082 -1.82942709
v -3.50000000 -1.67864082 -1.83723959
v -3.50000000 1.67864082 -1.82942709
v -3.50000000 1.67864082 -1.83723959
v -4.33333334 -0.58489082 -1.83723959
v -4.33333334 -0.58489082 -1.82942709
v -4.33333334 0.58489082 -1.83723959
v -4.33333334 0.58489082 -1.82942709
v -3.50000000 -0.58489082 -1.82942709
v -3.50000000 -0.58489082 -1.83723959
v -3.50000000 0.58489082 -1.82942709
v -3.50000000 0.58489082 -1.83723959
v -4.33333334 -1.12967247 -1.84505209
v -4.33333334 -1.12967247 -1.82161459
v -4.33333334 1.12967247 -1.84505209
v -4.33333334 1.12967247 -1.82161459
v -3.50000000 -1.12967247 -1.82161459
v -3.50000000 -1.12967247 -1.84505209
v -3.50000000 1.12967247 -1.82161459
v -3.50000000 1.12967247 -1.84505209
v -3.50000000 0.57575119 -1.86353666
v -3.50000000 0.57575119 -1.80313002
v -3.50000000 -0.57575119 -1.86353666
v -3.50000000 -0.57575119 -1.80313002
v -4.33333334 0.57575119 -1.80313002
v -4.33333334 0.57575119 -1.86353666
v -4.33333334 -0.57575119 -1.80313002
v -4.33333334 -0.57575119 -1.86353666
v -3.50000000 1.67368790 -1.84791166
v -3.50000000 -1.67368790 -1.84791166
v -4.33333334 1.67368790 -1.84791166
v -4.33333334 -1.67368790 -1.84791166
v -3.50000000 1.67368790 -1.81875502
v -3.50000000 -1.67368790 -1.81875502
v -4.33333334 1.67368790 -1.81875502
v -4.33333334 -1.67368790 -1.81875502
v -3.50000000 1.11900040 -1.86144331
v -3.50000000 -1.11900040 -1.86144331
v -4.33333334 1.11900040 -1.86144331
v -4.33333334 -1.11900040 -1.86144331
v -4.33333334 -1.11900040 -1.80522337
v -4.33333334 1.11900040 -1.80522337
v -3.50000000 -1.11900040 -1.80522337
v -3.50000000 1.11900040 -1.80522337
v -3.50000000 1.13071915 -1.84114584
v -3.50000000 1.13071915 -1.82552084
v -3.50000000 -1.13071915 -1.84114584
v -3.50000000 -1.13071915 -1.82552084
v -4.33333334 1.13071915 -1.82552084
v -4.33333334 1.13071915 -1.84114584
v -4.33333334 -1.13071915 -1.82552084
v -4.33333334 -1.13071915 -1.84114584
v -3.50000000 0.58279747 -1.84505209
v -3.50000000 0.58279747 -1.82161459
v -3.50000000 -0.58279747 -1.84505209
v -3.50000000 -0.58279747 -1.82161459
v -4.33333334 0.58279747 -1.82161459
v -4.33333334 0.58279747 -1.84505209
v -4.33333334 -0.58279747 -1.82161459
v -4.33333334 -0.58279747 -1.84505209
v -3.50000000 1.12185997 -1.80808294
v -3.50000000 -1.12185997 -1.80808294
v -4.33333334 1.12185997 -1.80808294
v -4.33333334 -1.12185997 -1.80808294
v -4.33333334 -1.12185997 -1.85858374
v -4.33333334 1.12185997 -1.85858374
v -3.50000000 -1.12185997 -1.85858374
v -3.50000000 1.12185997 -1.85858374
v -4.12500001 -2.00000000 -2.50000000
v -4.12500001 2.00000000 -2.50000000
v -3.70833333 -2.00000000 -2.50000000
v -3.70833333 2.00000000 -2.50000000
v -4.12500001 -2.33333333 -2.50000000
v -4.12500001 2.33333333 -2.50000000
v -3.70833333 -2.33333333 -2.50000000
v -3.70833333 2.33333333 -2.50000000
v -3.70833333 2.50000000 -2.33333334
v -3.70833333 2.50000000 -2.00000001
v -3.70833333 -2.50000000 -2.00000001
v -3.70833333 -2.50000000 -2.33333334
v -4.12500001 2.50000000 -2.00000001
v -4.12500001 2.50000000 -2.33333334
v -4.12500001 -2.50000000 -2.33333334
v -4.12500001 -2.50000000 -2.00000001
v -4.33333334 -0.57003205 -1.86925581
v -4.33333334 -0.57003205 -1.79741087
v -4.33333334 0.57003205 -1.86925581
v -4.33333334 0.57003205 -1.79741087
v -3.50000000 -0.57003205 -1.79741087
v -3.50000000 -0.57003205 -1.86925581
v -3.50000000 0.57003205 -1.79741087
v -3.50000000 0.57003205 -1.86925581
v -3.65625000 0.20833333 -2.33333334
v -3.86458334 0.62500000 -2.33333334
v -4.07291667 0.20833333 -2.33333334
v -3.65625000 -0.20833333 -2.33333334
v -3.86458334 -0.62500000 -2.33333334
v -4.07291667 -0.20833333 -2.33333334
v -3.96875000 1.04166667 -2.33333334
v -3.96875000 -1.04166667 -2.33333334
v -3.65625000 1.45833334 -2.33333334
v -3.65625000 -1.45833334 -2.33333334
v -3.50000000 0.47916667 -2.00520834
v -4.33333334 0.47916667 -2.00520834
v -4.33333334 -0.12500000 -2.11458334
v -3.50000000 -0.12500000 -2.11458334
v -3.79166667 0.00000000 -1.89583334
v -4.04166667 0.00000000 -1.89583334
v -3.79166667 0.00000000 -1.77083334
v -3.50000000 0.00000000 -1.77083334
v -4.04166667 0.00000000 -1.77083334
v -4.33333334 0.00000000 -1.77083334
v -4.33333334 0.00000000 -1.89583334
v -3.50000000 0.00000000 -1.89583334
f 2 24 1
f 1 24 13
f 1 13 12
f 12 13 14
f 12 14 11
f 11 14 15
f 11 15 10
f 10 15 16
f 10 16 9
f 9 16 17
f 9 17 8
f 8 17 18
f 8 18 7
f 7 18 19
f 7 19 6
f 6 19 20
f 6 20 5
f 5 20 21
f 5 21 4
f 4 21 22
f 4 22 3
f 3 22 23
f 3 23 2
f 2 23 24
f 26 48 25
f 25 48 37
f 25 37 36
f 36 37 38
f 36 38 35
f 35 38 39
f 35 39 34
f 34 39 40
f 34 40 33
f 33 40 41
f 33 41 32
f 32 41 42
f 32 42 31
f 31 42 43
f 31 43 30
f 30 43 44
f 30 44 29
f 29 44 45
f 29 45 28
f 28 45 46
f 28 46 27
f 27 46 47
f 27 47 26
f 26 47 48
f 50 72 49
f 49 72 61
f 49 61 60
f 60 61 62
f 60 62 59
f 59 62 63
f 59 63 58
f 58 63 64
f 58 64 57
f 57 64 65
f 57 65 56
f 56 65 66
f 56 66 55
f 55 66 67
f 55 67 54
f 54 67 68
f 54 68 53
f 53 68 69
f 53 69 52
f 52 69 70
f 52 70 51
f 51 70 71
f 51 71 50
f 50 71 72
f 74 96 73
f 73 96 85
f 73 85 84
f 84 85 86
f 84 86 83
f 83 86 87
f 83 87 82
f 82 87 88
f 82 88 81
f 81 88 89
f 81 89 80
f 80 89 90
f 80 90 79
f 79 90 91
f 79 91 78
f 78 91 92
f 78 92 77
f 77 92 93
f 77 93 76
f 76 93 94
f 76 94 75
f 75 94 95
f 75 95 74
f 74 95 96
f 104 97 103
f 98 316 329
f 429 316 98
f 100 98 99
f 100 370 103
f 370 390 103
f 112 105 111
f 106 315 331
f 430 315 106
f 108 106 107
f 108 369 111
f 369 392 111
f 36 80 25
f 25 80 79
f 25 79 26
f 26 79 78
f 26 78 27
f 27 78 77
f 27 77 28
f 28 641 282
f 109 417 412
f 109 412 411
f 102 76 75
f 102 75 74
f 80 36 81
f 81 36 35
f 81 35 82
f 82 643 280
f 421 408 103
f 103 408 407
f 108 34 33
f 108 33 32
f 32 31 108
f 391 369 108
f 109 31 30
f 109 30 29
f 29 28 109
f 84 103 73
f 370 102 390
f 73 102 74
f 84 83 103
f 103 83 82
f 411 190 192
f 192 190 409
f 24 68 13
f 13 68 67
f 13 67 14
f 14 67 66
f 14 66 15
f 15 66 65
f 15 65 16
f 16 645 278
f 425 404 111
f 111 404 403
f 100 64 63
f 100 63 62
f 68 24 69
f 69 24 23
f 69 23 70
f 70 642 281
f 420 409 101
f 192 409 420
f 110 22 21
f 110 21 20
f 20 19 110
f 369 110 392
f 111 19 18
f 111 18 17
f 17 16 111
f 72 101 61
f 389 370 100
f 61 100 62
f 72 71 101
f 101 71 70
f 407 422 104
f 189 194 407
f 403 426 112
f 188 196 403
f 48 92 37
f 37 92 91
f 37 91 90
f 92 48 93
f 93 48 47
f 93 47 46
f 354 351 173
f 292 165 259
f 118 635 308
f 262 337 174
f 199 462 247
f 247 228 478
f 144 502 155
f 245 553 488
f 248 578 447
f 367 104 269
f 87 104 88
f 194 40 279
f 644 279 40
f 89 40 39
f 89 39 38
f 437 141 440
f 351 444 198
f 552 489 244
f 457 203 266
f 468 147 140
f 210 465 107
f 107 41 40
f 405 424 194
f 89 38 90
f 90 38 37
f 648 263 94
f 184 183 360
f 204 265 158
f 365 182 270
f 270 182 159
f 274 453 114
f 399 115 414
f 118 304 273
f 438 118 273
f 385 113 525
f 357 374 187
f 267 125 384
f 124 615 398
f 127 284 126
f 284 306 126
f 167 164 297
f 135 293 320
f 129 283 128
f 283 308 128
f 130 383 268
f 383 237 530
f 124 398 275
f 398 258 616
f 397 132 617
f 303 115 394
f 114 399 274
f 399 257 614
f 125 527 384
f 184 360 371
f 400 120 611
f 302 131 395
f 12 56 1
f 1 56 55
f 1 55 54
f 56 12 57
f 57 12 11
f 57 11 10
f 9 112 10
f 401 428 196
f 401 99 428
f 58 99 59
f 139 286 271
f 251 224 474
f 202 267 456
f 241 549 492
f 349 200 176
f 206 452 275
f 356 349 175
f 638 339 156
f 647 264 4
f 53 4 3
f 53 3 2
f 495 201 570
f 561 212 620
f 548 493 240
f 152 151 499
f 205 442 435
f 127 333 324
f 324 289 127
f 293 162 169
f 53 2 54
f 54 2 1
f 646 277 58
f 363 181 271
f 271 181 160
f 452 124 275
f 398 131 415
f 127 301 276
f 276 435 127
f 161 201 268
f 180 357 187
f 632 133 294
f 633 164 291
f 134 296 630
f 46 263 648
f 167 297 318
f 388 305 127
f 459 254 197
f 221 471 254
f 112 285 272
f 272 361 112
f 138 441 436
f 446 200 349
f 139 469 148
f 59 464 60
f 475 558 250
f 225 475 250
f 178 351 198
f 274 207 453
f 567 498 204
f 87 466 104
f 439 438 208
f 262 118 337
f 246 511 546
f 553 233 580
f 537 519 217
f 86 477 556
f 114 457 266
f 476 557 44
f 512 544 43
f 234 244 512
f 242 513 542
f 549 235 584
f 534 521 215
f 50 473 560
f 130 451 276
f 472 561 8
f 514 540 7
f 236 240 514
f 515 151 152
f 522 220 531
f 456 267 124
f 491 148 550
f 517 147 154
f 520 214 536
f 454 273 121
f 487 144 554
f 175 261 156
f 52 264 647
f 637 340 94
f 94 340 95
f 183 269 158
f 458 121 265
f 266 203 159
f 372 113 359
f 202 160 267
f 373 125 358
f 161 180 272
f 268 455 130
f 260 636 305
f 162 634 289
f 163 290 260
f 133 295 294
f 164 298 297
f 259 633 291
f 165 299 628
f 165 300 299
f 166 317 300
f 157 262 174
f 338 128 261
f 318 297 135
f 168 323 290
f 134 319 296
f 320 293 169
f 342 5 4
f 316 330 382
f 98 364 363
f 315 332 381
f 106 366 365
f 352 5 353
f 443 5 352
f 173 334 323
f 45 341 46
f 355 350 95
f 95 350 445
f 175 338 261
f 51 339 52
f 176 345 338
f 573 138 460
f 350 177 199
f 337 118 346
f 178 347 334
f 141 461 572
f 197 352 179
f 127 348 333
f 272 180 361
f 361 180 362
f 186 358 181
f 99 363 271
f 185 359 182
f 107 365 270
f 183 367 269
f 368 367 183
f 316 97 330
f 375 170 328
f 113 325 314
f 381 332 171
f 125 327 313
f 382 330 170
f 315 105 332
f 376 171 326
f 188 401 196
f 402 401 188
f 189 405 194
f 406 405 189
f 190 410 409
f 110 411 418
f 191 419 410
f 282 76 191
f 418 411 192
f 281 22 192
f 423 406 193
f 280 34 193
f 407 194 422
f 405 107 424
f 427 402 195
f 278 64 195
f 403 196 426
f 10 196 277
f 197 443 352
f 471 562 254
f 572 461 249
f 351 45 444
f 445 350 199
f 247 478 555
f 252 573 460
f 51 446 349
f 268 201 455
f 470 137 150
f 569 496 148
f 148 496 153
f 497 147 568
f 154 147 497
f 204 458 265
f 145 467 142
f 451 205 276
f 276 205 435
f 436 275 128
f 206 275 436
f 117 437 274
f 437 207 274
f 208 273 454
f 208 438 273
f 466 209 104
f 288 269 104
f 270 140 287
f 465 41 107
f 622 559 60
f 251 474 559
f 575 450 253
f 463 9 8
f 538 519 155
f 213 232 519
f 114 480 457
f 501 146 154
f 456 124 481
f 153 500 149
f 152 532 522
f 522 216 229
f 217 479 458
f 155 498 145
f 154 535 520
f 520 536 154
f 533 521 153
f 153 521 534
f 482 455 220
f 495 150 152
f 239 221 494
f 136 574 459
f 222 253 472
f 150 493 548
f 473 223 252
f 549 149 492
f 224 491 242
f 449 139 576
f 243 225 490
f 140 577 448
f 226 249 476
f 146 489 552
f 477 227 248
f 553 145 488
f 228 487 246
f 462 143 571
f 130 486 451
f 532 216 522
f 521 230 215
f 215 485 452
f 231 214 520
f 484 453 214
f 454 121 483
f 213 519 538
f 246 233 511
f 518 155 145
f 551 147 582
f 551 490 147
f 242 235 513
f 516 153 149
f 547 151 586
f 547 494 151
f 266 113 385
f 114 613 399
f 386 265 121
f 524 386 238
f 239 494 547
f 7 539 514
f 514 240 540
f 493 222 240
f 541 513 241
f 241 492 223
f 491 550 242
f 542 513 49
f 243 490 551
f 43 543 512
f 512 244 544
f 489 226 244
f 545 511 245
f 245 488 227
f 487 554 246
f 546 511 85
f 462 571 247
f 555 478 96
f 556 477 248
f 209 447 288
f 476 249 557
f 461 198 249
f 140 448 287
f 475 42 558
f 449 286 139
f 559 474 60
f 560 473 252
f 252 460 200
f 472 253 561
f 285 212 450
f 574 254 459
f 471 6 562
f 307 283 129
f 119 393 304
f 284 116 306
f 126 396 301
f 416 132 397
f 618 397 257
f 413 120 400
f 612 400 258
f 283 118 308
f 308 259 387
f 634 260 289
f 305 284 127
f 167 156 261
f 322 291 167
f 118 321 292
f 157 166 262
f 157 336 317
f 640 319 134
f 320 4 639
f 135 335 318
f 431 360 158
f 122 265 386
f 266 385 114
f 359 113 432
f 267 384 124
f 358 125 433
f 161 434 357
f 383 123 268
f 142 158 269
f 142 269 288
f 270 287 107
f 159 140 270
f 286 99 271
f 139 271 160
f 272 137 161
f 285 137 272
f 273 400 121
f 273 413 400
f 274 303 117
f 399 414 274
f 275 302 128
f 398 415 275
f 276 397 130
f 276 416 397
f 10 277 646
f 277 99 58
f 645 64 278
f 16 278 111
f 88 104 279
f 88 279 644
f 643 34 280
f 82 280 103
f 642 22 281
f 70 281 101
f 641 76 282
f 28 282 109
f 119 118 283
f 119 283 307
f 117 116 284
f 117 284 305
f 285 450 137
f 112 212 285
f 211 99 286
f 211 286 449
f 287 210 107
f 448 210 287
f 447 142 288
f 209 288 104
f 169 162 289
f 169 289 324
f 323 117 290
f 168 290 163
f 128 291 322
f 291 164 167
f 292 166 165
f 321 166 292
f 293 294 162
f 293 632 294
f 295 163 631
f 295 631 294
f 296 163 295
f 630 296 295
f 296 168 163
f 319 168 296
f 298 133 629
f 298 629 297
f 299 133 298
f 628 299 298
f 300 134 627
f 300 627 299
f 317 134 300
f 166 300 165
f 396 132 301
f 126 301 127
f 128 302 129
f 302 395 129
f 117 303 116
f 303 394 116
f 393 120 304
f 119 304 118
f 636 117 305
f 260 305 388
f 126 603 396
f 256 605 394
f 119 606 393
f 255 604 395
f 308 387 128
f 635 259 308
f 386 121 523
f 384 238 528
f 608 395 131
f 393 255 610
f 130 529 383
f 526 385 237
f 609 394 115
f 396 256 607
f 313 328 122
f 313 375 328
f 314 326 123
f 314 376 326
f 111 105 315
f 111 315 430
f 103 97 316
f 103 316 429
f 336 134 317
f 157 317 166
f 318 156 167
f 335 156 318
f 344 341 168
f 46 319 640
f 320 639 135
f 342 4 343
f 262 166 321
f 262 321 118
f 322 261 128
f 167 261 322
f 334 117 323
f 173 323 168
f 324 172 169
f 333 172 324
f 185 171 325
f 185 372 359
f 357 123 374
f 171 187 326
f 186 170 327
f 186 373 358
f 371 360 122
f 170 184 328
f 98 379 364
f 329 170 186
f 170 330 184
f 377 368 184
f 106 378 366
f 331 171 185
f 171 332 187
f 362 187 380
f 333 179 172
f 348 179 333
f 347 117 334
f 178 334 173
f 335 264 156
f 135 264 335
f 263 134 336
f 263 336 157
f 174 337 177
f 337 346 177
f 345 128 338
f 176 338 175
f 52 339 638
f 339 175 156
f 157 174 340
f 157 340 637
f 46 341 344
f 341 173 168
f 172 342 169
f 342 343 169
f 169 343 320
f 343 4 320
f 46 344 319
f 344 168 319
f 505 436 128
f 176 138 345
f 177 346 143
f 143 503 438
f 117 504 437
f 347 178 141
f 136 179 348
f 435 136 506
f 51 349 356
f 349 176 175
f 174 177 350
f 174 350 355
f 45 351 354
f 351 178 173
f 179 352 172
f 352 353 172
f 172 353 342
f 353 5 342
f 45 354 341
f 354 173 341
f 340 174 355
f 340 355 95
f 51 356 339
f 356 175 339
f 434 123 357
f 161 357 180
f 181 358 160
f 358 433 160
f 182 359 159
f 359 432 159
f 122 360 431
f 360 183 158
f 112 361 105
f 361 362 105
f 362 380 105
f 180 187 362
f 364 181 363
f 98 363 99
f 364 186 181
f 379 186 364
f 366 182 365
f 106 365 107
f 366 185 182
f 378 185 366
f 97 104 367
f 97 367 368
f 97 368 377
f 368 183 184
f 109 110 369
f 109 369 391
f 101 102 370
f 101 370 389
f 328 184 371
f 328 371 122
f 372 325 113
f 185 325 372
f 373 327 125
f 186 327 373
f 326 187 374
f 326 374 123
f 327 170 375
f 327 375 313
f 325 171 376
f 325 376 314
f 330 97 377
f 330 377 184
f 378 331 185
f 106 331 378
f 379 329 186
f 98 329 379
f 332 105 380
f 332 380 187
f 331 315 381
f 331 381 171
f 329 316 382
f 329 382 170
f 383 530 123
f 529 237 383
f 384 528 124
f 527 238 384
f 114 385 526
f 385 525 237
f 122 386 524
f 386 523 238
f 387 291 128
f 259 291 387
f 289 260 388
f 289 388 127
f 61 101 389
f 61 389 100
f 73 103 390
f 73 390 102
f 391 31 109
f 108 31 391
f 392 19 111
f 110 19 392
f 393 610 120
f 606 255 393
f 605 116 394
f 256 394 609
f 604 129 395
f 255 395 608
f 396 607 132
f 603 256 396
f 130 397 618
f 397 617 257
f 398 616 131
f 615 258 398
f 399 614 115
f 613 257 399
f 121 400 612
f 400 611 258
f 100 99 401
f 100 401 402
f 100 402 427
f 402 188 195
f 404 188 403
f 111 403 112
f 195 188 404
f 195 404 425
f 108 107 405
f 108 405 406
f 108 406 423
f 406 189 193
f 408 189 407
f 103 407 104
f 193 189 408
f 193 408 421
f 409 102 101
f 410 102 409
f 419 102 410
f 191 410 190
f 412 190 411
f 109 411 110
f 412 191 190
f 417 191 412
f 304 120 413
f 304 413 273
f 274 414 303
f 414 115 303
f 275 415 302
f 415 131 302
f 301 132 416
f 301 416 276
f 417 282 191
f 109 282 417
f 418 22 110
f 192 22 418
f 419 76 102
f 191 76 419
f 420 281 192
f 101 281 420
f 421 280 193
f 103 280 421
f 422 279 104
f 194 279 422
f 423 34 108
f 193 34 423
f 424 40 194
f 107 40 424
f 425 278 195
f 111 278 425
f 10 112 426
f 10 426 196
f 427 64 100
f 195 64 427
f 277 196 428
f 277 428 99
f 103 429 100
f 429 98 100
f 111 430 108
f 430 106 108
f 122 431 265
f 431 158 265
f 159 432 266
f 432 113 266
f 160 433 267
f 433 125 267
f 268 123 434
f 268 434 161
f 435 506 127
f 442 136 435
f 441 206 436
f 138 436 505
f 437 440 207
f 504 141 437
f 503 118 438
f 143 438 439
f 143 439 144
f 563 502 144
f 501 207 564
f 440 141 146
f 565 500 206
f 149 441 138
f 442 151 136
f 499 151 566
f 443 6 5
f 562 6 619
f 557 198 624
f 444 45 44
f 95 445 96
f 626 555 96
f 621 560 200
f 50 446 51
f 578 142 447
f 248 447 209
f 448 250 210
f 577 250 448
f 211 449 251
f 449 576 251
f 137 450 575
f 450 212 253
f 451 216 205
f 486 216 451
f 485 124 452
f 215 452 206
f 114 453 484
f 453 207 214
f 208 454 213
f 454 483 213
f 130 455 482
f 455 201 220
f 202 456 219
f 456 481 219
f 457 218 203
f 480 218 457
f 479 121 458
f 217 458 204
f 136 459 179
f 459 197 179
f 200 460 176
f 460 138 176
f 178 198 461
f 178 461 141
f 462 177 143
f 199 177 462
f 112 9 463
f 112 463 212
f 464 99 211
f 59 99 464
f 465 42 41
f 558 42 623
f 625 556 209
f 86 466 87
f 142 467 158
f 467 204 158
f 203 468 159
f 468 140 159
f 469 160 202
f 139 160 469
f 161 137 470
f 161 470 201
f 7 6 471
f 7 594 539
f 540 222 593
f 472 8 7
f 592 541 223
f 49 473 50
f 60 474 49
f 591 542 49
f 43 42 475
f 43 590 543
f 544 226 589
f 476 44 43
f 588 545 227
f 85 477 86
f 96 478 85
f 587 546 85
f 483 121 510
f 232 479 217
f 231 218 480
f 509 484 231
f 219 481 230
f 230 508 485
f 507 486 130
f 482 220 229
f 213 483 232
f 483 510 232
f 114 484 509
f 484 214 231
f 508 124 485
f 230 485 215
f 229 216 486
f 229 486 507
f 143 144 487
f 143 602 571
f 578 227 595
f 488 145 142
f 226 601 572
f 146 141 489
f 147 490 140
f 596 577 140
f 139 148 491
f 139 597 576
f 573 223 600
f 492 149 138
f 222 598 575
f 150 137 493
f 151 494 136
f 599 574 136
f 495 570 150
f 220 201 495
f 202 219 496
f 202 496 569
f 218 497 203
f 497 568 203
f 145 498 567
f 498 217 204
f 216 499 205
f 499 566 205
f 149 500 565
f 500 215 206
f 501 564 146
f 214 207 501
f 208 213 502
f 208 502 563
f 346 118 503
f 346 503 143
f 504 347 141
f 117 347 504
f 345 138 505
f 345 505 128
f 506 348 127
f 136 348 506
f 507 482 229
f 130 482 507
f 481 124 508
f 481 508 230
f 509 480 114
f 231 480 509
f 232 510 479
f 510 121 479
f 85 511 545
f 511 233 245
f 512 243 234
f 543 243 512
f 49 513 541
f 513 235 241
f 514 239 236
f 539 239 514
f 236 585 548
f 152 150 515
f 148 153 516
f 148 583 550
f 234 581 552
f 154 146 517
f 144 155 518
f 144 579 554
f 155 519 537
f 519 232 217
f 520 218 231
f 535 218 520
f 219 230 521
f 219 521 533
f 522 531 152
f 229 220 522
f 238 523 309
f 523 121 309
f 122 524 313
f 524 238 313
f 237 525 314
f 525 113 314
f 114 526 311
f 526 237 311
f 313 238 527
f 313 527 125
f 528 309 124
f 238 309 528
f 311 237 529
f 311 529 130
f 530 314 123
f 237 314 530
f 531 495 152
f 220 495 531
f 532 499 216
f 152 499 532
f 496 219 533
f 496 533 153
f 153 534 500
f 534 215 500
f 535 497 218
f 154 497 535
f 536 501 154
f 214 501 536
f 155 537 498
f 537 217 498
f 502 213 538
f 502 538 155
f 539 221 239
f 594 221 539
f 540 593 7
f 240 222 540
f 49 541 592
f 541 241 223
f 224 242 542
f 224 542 591
f 543 225 243
f 590 225 543
f 544 589 43
f 244 226 544
f 85 545 588
f 545 245 227
f 228 246 546
f 228 546 587
f 239 547 236
f 547 586 236
f 585 150 548
f 236 548 240
f 549 584 149
f 241 235 549
f 550 235 242
f 583 235 550
f 243 551 234
f 551 582 234
f 581 146 552
f 234 552 244
f 553 580 145
f 245 233 553
f 554 233 246
f 579 233 554
f 199 247 555
f 199 555 626
f 86 556 625
f 556 248 209
f 557 624 44
f 249 198 557
f 250 558 210
f 558 623 210
f 211 251 559
f 211 559 622
f 50 560 621
f 560 252 200
f 561 620 8
f 253 212 561
f 254 562 197
f 562 619 197
f 439 208 563
f 439 563 144
f 564 440 146
f 207 440 564
f 149 565 441
f 565 206 441
f 205 566 442
f 566 151 442
f 145 567 467
f 567 204 467
f 203 568 468
f 568 147 468
f 469 202 569
f 469 569 148
f 570 470 150
f 201 470 570
f 571 228 247
f 602 228 571
f 601 141 572
f 226 572 249
f 573 600 138
f 252 223 573
f 221 254 574
f 221 574 599
f 598 137 575
f 222 575 253
f 576 224 251
f 597 224 576
f 225 250 577
f 225 577 596
f 578 595 142
f 248 227 578
f 579 518 233
f 144 518 579
f 580 518 145
f 233 518 580
f 517 146 581
f 517 581 234
f 234 582 517
f 582 147 517
f 583 516 235
f 148 516 583
f 584 516 149
f 235 516 584
f 515 150 585
f 515 585 236
f 236 586 515
f 586 151 515
f 478 228 587
f 478 587 85
f 85 588 477
f 588 227 477
f 589 476 43
f 226 476 589
f 590 475 225
f 43 475 590
f 474 224 591
f 474 591 49
f 49 592 473
f 592 223 473
f 593 472 7
f 222 472 593
f 594 471 221
f 7 471 594
f 595 488 142
f 227 488 595
f 490 225 596
f 490 596 140
f 597 491 224
f 139 491 597
f 493 137 598
f 493 598 222
f 494 221 599
f 494 599 136
f 600 492 138
f 223 492 600
f 489 141 601
f 489 601 226
f 602 487 228
f 143 487 602
f 603 306 256
f 126 306 603
f 307 129 604
f 307 604 255
f 306 116 605
f 306 605 256
f 606 307 255
f 119 307 606
f 132 607 312
f 607 256 312
f 310 255 608
f 310 608 131
f 312 256 609
f 312 609 115
f 120 610 310
f 610 255 310
f 258 611 310
f 611 120 310
f 121 612 309
f 612 258 309
f 311 257 613
f 311 613 114
f 614 312 115
f 257 312 614
f 309 258 615
f 309 615 124
f 616 310 131
f 258 310 616
f 257 617 312
f 617 132 312
f 130 618 311
f 618 257 311
f 197 619 443
f 619 6 443
f 620 463 8
f 212 463 620
f 50 621 446
f 621 200 446
f 464 211 622
f 464 622 60
f 210 623 465
f 623 42 465
f 624 444 44
f 198 444 624
f 86 625 466
f 625 209 466
f 445 199 626
f 445 626 96
f 299 627 133
f 627 134 133
f 165 628 164
f 628 298 164
f 297 629 135
f 629 133 135
f 134 630 133
f 630 295 133
f 294 631 162
f 631 163 162
f 135 133 632
f 135 632 293
f 633 165 164
f 259 165 633
f 163 260 634
f 163 634 162
f 635 292 259
f 118 292 635
f 290 117 636
f 290 636 260
f 263 157 637
f 263 637 94
f 52 638 264
f 638 156 264
f 135 639 264
f 639 4 264
f 46 640 263
f 640 134 263
f 641 77 76
f 28 77 641
f 642 23 22
f 70 23 642
f 643 35 34
f 82 35 643
f 88 644 89
f 644 40 89
f 645 65 64
f 16 65 645
f 646 57 10
f 58 57 646
f 52 647 53
f 647 4 53
f 648 93 46
f 94 93 648

