
o 2.obj
v -3.97916666 -0.58333333 -0.46425565
v -3.97079325 -0.58333333 -0.49550565
v -3.94791666 -0.58333333 -0.51838224
v -3.91666666 -0.58333333 -0.52675565
v -3.88541666 -0.58333333 -0.51838224
v -3.86254007 -0.58333333 -0.49550565
v -3.85416666 -0.58333333 -0.46425565
v -3.86254007 -0.58333333 -0.43300565
v -3.88541666 -0.58333333 -0.41012906
v -3.91666666 -0.58333333 -0.40175565
v -3.94791666 -0.58333333 -0.41012906
v -3.97079325 -0.58333333 -0.43300565
v -3.97916666 -0.12500000 -0.46425565
v -3.97079325 -0.12500000 -0.43300565
v -3.94791666 -0.12500000 -0.41012906
v -3.91666666 -0.12500000 -0.40175565
v -3.88541666 -0.12500000 -0.41012906
v -3.86254007 -0.12500000 -0.43300565
v -3.85416666 -0.12500000 -0.46425565
v -3.86254007 -0.12500000 -0.49550565
v -3.88541666 -0.12500000 -0.51838224
v -3.91666666 -0.12500000 -0.52675565
v -3.94791666 -0.12500000 -0.51838224
v -3.97079325 -0.12500000 -0.49550565
v -3.97916666 0.12500000 -0.46425565
v -3.97079325 0.12500000 -0.49550565
v -3.94791666 0.12500000 -0.51838224
v -3.91666666 0.12500000 -0.52675565
v -3.88541666 0.12500000 -0.51838224
v -3.86254007 0.12500000 -0.49550565
v -3.85416666 0.12500000 -0.46425565
v -3.86254007 0.12500000 -0.43300565
v -3.88541666 0.12500000 -0.41012906
v -3.91666666 0.12500000 -0.40175565
v -3.94791666 0.12500000 -0.41012906
v -3.97079325 0.12500000 -0.43300565
v -3.97916666 0.58333333 -0.46425565
v -3.97079325 0.58333333 -0.43300565
v -3.94791666 0.58333333 -0.41012906
v -3.91666666 0.58333333 -0.40175565
v -3.88541666 0.58333333 -0.41012906
v -3.86254007 0.58333333 -0.43300565
v -3.85416666 0.58333333 -0.46425565
v -3.86254007 0.58333333 -0.49550565
v -3.88541666 0.58333333 -0.51838224
v -3.91666666 0.58333333 -0.52675565
v -3.94791666 0.58333333 -0.51838224
v -3.97079325 0.58333333 -0.49550565
v -3.50000000 0.41666667 0.33333333
v -3.50000000 -0.41666667 0.33333333
v -3.66666666 -0.41666667 0.16666667
v -3.66666666 -0.12500000 0.16666667
v -4.16666666 -0.12500000 -0.33333333
v -4.16666666 0.12500000 -0.33333333
v -3.66666666 0.12500000 0.16666667
v -3.66666666 0.41666667 0.16666667
v -3.50000000 0.41666667 -0.84517797
v -3.66666666 0.41666667 -0.84517797
v -3.66666666 0.12500000 -0.84517797
v -4.16666666 0.12500000 -0.84517797
v -4.16666666 -0.12500000 -0.84517797
v -3.66666666 -0.12500000 -0.84517797
v -3.66666666 -0.41666667 -0.84517797
v -3.50000000 -0.41666667 -0.84517797
v -3.50000000 0.41666667 1.00000000
v -3.50000000 0.58333333 0.83333333
v -4.33333333 0.58333333 0.83333333
v -4.33333333 0.41666667 1.00000000
v -3.50000000 0.41666667 1.50000000
v -4.33333333 0.41666667 1.50000000
v -3.50000000 -0.58333333 0.83333333
v -3.50000000 -0.41666667 1.00000000
v -4.33333333 -0.41666667 1.00000000
v -4.33333333 -0.58333333 0.83333333
v -3.50000000 -0.41666667 1.50000000
v -4.33333333 -0.41666667 1.50000000
v -3.50000000 0.58333333 -1.50000000
v -3.79166666 0.58333333 -1.50000000
v -3.79166666 0.58333333 -2.16666667
v -4.04166666 0.58333333 -2.16666667
v -4.04166666 0.58333333 -1.50000000
v -4.33333333 0.58333333 -1.50000000
v -4.33333333 -0.58333333 -1.50000000
v -4.04166666 -0.58333333 -1.50000000
v -4.04166666 -0.58333333 -2.16666667
v -3.79166666 -0.58333333 -2.16666667
v -3.79166666 -0.58333333 -1.50000000
v -3.50000000 -0.58333333 -1.50000000
v -3.50000000 0.12500000 1.50000000
v -3.50000000 0.12500000 2.16666667
v -3.50000000 -0.12500000 2.16666667
v -3.50000000 -0.12500000 1.50000000
v -3.97916666 0.12500000 1.83333333
v -3.97079325 0.12500000 1.80208333
v -3.94791666 0.12500000 1.77920674
v -3.91666666 0.12500000 1.77083333
v -3.88541666 0.12500000 1.77920674
v -3.86254007 0.12500000 1.80208333
v -3.85416666 0.12500000 1.83333333
v -3.86254007 0.12500000 1.86458333
v -3.88541666 0.12500000 1.88745992
v -3.91666666 0.12500000 1.89583333
v -3.94791666 0.12500000 1.88745992
v -3.97079325 0.12500000 1.86458333
v -4.33333333 0.12500000 1.50000000
v -4.33333333 0.12500000 2.16666667
v -3.97916666 -0.12500000 1.83333333
v -3.97079325 -0.12500000 1.80208333
v -3.94791666 -0.12500000 1.77920674
v -3.91666666 -0.12500000 1.77083333
v -3.88541666 -0.12500000 1.77920674
v -3.86254007 -0.12500000 1.80208333
v -3.85416666 -0.12500000 1.83333333
v -3.86254007 -0.12500000 1.86458333
v -3.88541666 -0.12500000 1.88745992
v -3.91666666 -0.12500000 1.89583333
v -3.94791666 -0.12500000 1.88745992
v -3.97079325 -0.12500000 1.86458333
v -4.33333333 -0.12500000 2.16666667
v -4.33333333 -0.12500000 1.50000000
v -3.79166666 -0.18750000 -1.83333333
v -3.79166666 -0.19587341 -1.86458333
v -3.79166666 -0.21875000 -1.88745992
v -3.79166666 -0.25000000 -1.89583333
v -3.79166666 -0.28125000 -1.88745992
v -3.79166666 -0.30412659 -1.86458333
v -3.79166666 -0.31250000 -1.83333333
v -3.79166666 -0.30412659 -1.80208333
v -3.79166666 -0.28125000 -1.77920675
v -3.79166666 -0.25000000 -1.77083333
v -3.79166666 -0.21875000 -1.77920675
v -3.79166666 -0.19587341 -1.80208333
v -3.79166666 0.31250000 -1.83333333
v -3.79166666 0.30412659 -1.86458333
v -3.79166666 0.28125000 -1.88745992
v -3.79166666 0.25000000 -1.89583333
v -3.79166666 0.21875000 -1.88745992
v -3.79166666 0.19587341 -1.86458333
v -3.79166666 0.18750000 -1.83333333
v -3.79166666 0.19587341 -1.80208333
v -3.79166666 0.21875000 -1.77920675
v -3.79166666 0.25000000 -1.77083333
v -3.79166666 0.28125000 -1.77920675
v -3.79166666 0.30412659 -1.80208333
v -4.04166666 0.31250000 -1.83333333
v -4.04166666 0.30412659 -1.86458333
v -4.04166666 0.28125000 -1.88745992
v -4.04166666 0.25000000 -1.89583333
v -4.04166666 0.21875000 -1.88745992
v -4.04166666 0.19587341 -1.86458333
v -4.04166666 0.18750000 -1.83333333
v -4.04166666 0.19587341 -1.80208333
v -4.04166666 0.21875000 -1.77920675
v -4.04166666 0.25000000 -1.77083333
v -4.04166666 0.28125000 -1.77920675
v -4.04166666 0.30412659 -1.80208333
v -4.04166666 -0.18750000 -1.83333333
v -4.04166666 -0.19587341 -1.86458333
v -4.04166666 -0.21875000 -1.88745992
v -4.04166666 -0.25000000 -1.89583333
v -4.04166666 -0.28125000 -1.88745992
v -4.04166666 -0.30412659 -1.86458333
v -4.04166666 -0.31250000 -1.83333333
v -4.04166666 -0.30412659 -1.80208333
v -4.04166666 -0.28125000 -1.77920675
v -4.04166666 -0.25000000 -1.77083333
v -4.04166666 -0.21875000 -1.77920675
v -4.04166666 -0.19587341 -1.80208333
v -4.33333333 -0.22916666 0.00000000
v -4.33333333 -0.35416666 0.00000000
v -4.33333333 -0.08333333 -0.25000000
v -4.33333333 0.50000000 -0.25000000
v -4.33333333 -0.50000000 -0.25000000
v -4.33333333 -0.58333333 -0.33333333
v -4.33333333 0.58333333 -0.33333333
v -3.50000000 -0.58333333 -0.33333333
v -3.50000000 0.58333333 -0.33333333
v -3.50000000 0.50000000 -0.00592232
v -3.50000000 -0.50000000 -0.00592232
v -4.33333333 -0.40625000 -0.75000000
v -4.33333333 -0.05208333 0.75000000
v -4.33333333 -0.46875000 -0.75000000
v -4.33333333 -0.23958333 0.75000000
v -4.33333333 -0.17708333 0.75000000
v -4.33333333 0.25000000 -0.87500000
v -4.33333333 -0.33333333 -0.87500000
v -4.33333333 0.16666667 0.37500000
v -4.15625000 0.58333333 0.18453884
v -4.15625000 -0.58333333 0.18453884
v -3.67708333 0.58333333 0.18453884
v -3.67708333 -0.58333333 0.18453884
v -4.15206329 -0.58333333 0.20016384
v -4.15206329 0.58333333 0.20016384
v -3.68127003 -0.58333333 0.20016384
v -3.68127003 0.58333333 0.20016384
v -4.12500000 -0.58333333 0.21578884
v -4.12500000 0.58333333 0.21578884
v -3.70833333 0.58333333 0.21578884
v -3.70833333 -0.58333333 0.21578884
v -4.14062500 0.58333333 0.21160213
v -4.14062500 -0.58333333 0.21160213
v -3.69270833 -0.58333333 0.21160213
v -3.69270833 0.58333333 0.21160213
v -3.50000000 0.14583334 0.91666666
v -4.33333333 0.45833334 0.37500000
v -4.33333333 0.54166666 -0.87500000
v -4.33333333 -0.54166666 -0.87500000
v -4.33333333 -0.45833334 0.37500000
v -3.50000000 -0.27083334 0.91666666
v -3.50000000 0.27083334 0.91666666
v -4.18749999 0.00000000 -1.50000000
v -3.64583333 0.00000000 -1.50000000
v -3.50000000 0.08333333 -1.17258898
v -3.91666666 0.00000000 -2.16666667
v -4.33333333 0.09375000 0.50000000
v -3.50000000 -0.41666667 -0.25592232
v -3.50000000 0.41666667 -0.25592232
v -4.33333333 -0.58333333 -0.91666667
v -4.33333333 0.58333333 -0.91666667
v -3.50000000 -0.58333333 0.25000000
v -3.50000000 0.58333333 0.25000000
v -4.33333333 -0.58333333 0.25000000
v -4.33333333 0.58333333 0.25000000
v -3.50000000 0.58333333 -0.91666667
v -3.50000000 -0.58333333 -0.91666667
v -4.04166666 0.00000000 -2.16666667
v -3.79166666 0.00000000 -2.16666667
v -3.50000000 0.00000000 -1.50000000
v -3.79166666 0.00000000 -1.50000000
v -4.04166666 0.00000000 -1.50000000
v -4.33333333 0.00000000 -1.50000000
v -4.15625000 0.58333333 -0.98212783
v -4.15625000 -0.58333333 -0.98212783
v -3.67708333 -0.58333333 -0.98212783
v -3.67708333 0.58333333 -0.98212783
v -4.33333333 0.54166666 0.29166667
v -4.33333333 -0.54166666 0.29166667
v -3.66666666 -0.27083334 -0.33925565
v -3.66666666 0.27083334 -0.33925565
v -4.33333333 -0.16666666 -1.18750000
v -3.82291666 0.58333333 -0.98212783
v -3.82291666 -0.58333333 -0.98212783
v -4.01041666 -0.58333333 -0.98212783
v -4.01041666 0.58333333 -0.98212783
v -3.58333333 0.41666667 -0.33925565
v -3.58333333 -0.41666667 -0.33925565
v -3.66666666 -0.41666667 -0.33925565
v -3.66666666 0.41666667 -0.33925565
v -3.66666666 0.12500000 -0.33925565
v -3.66666666 -0.12500000 -0.33925565
v -4.00622995 0.58333333 -0.99775283
v -4.00622995 -0.58333333 -0.99775283
v -3.82710336 -0.58333333 -0.99775283
v -3.82710336 0.58333333 -0.99775283
v -4.33333333 -0.38541667 0.50000000
v -3.83854166 0.58333333 -1.00919112
v -3.83854166 -0.58333333 -1.00919112
v -3.99479166 -0.58333333 -1.00919112
v -3.99479166 0.58333333 -1.00919112
v -3.97916666 0.58333333 -1.01337783
v -3.85416666 0.58333333 -1.01337783
v -3.97916666 -0.58333333 -1.01337783
v -3.85416666 -0.58333333 -1.01337783
v -3.91666666 -0.41666667 1.25000000
v -3.91666666 0.41666667 1.25000000
v -3.91666666 -0.27083334 1.50000000
v -3.91666666 0.27083334 1.50000000
v -3.81250000 -0.58333333 0.52456109
v -3.81250000 0.58333333 0.52456109
v -3.79166666 0.16666666 -2.03125000
v -4.04166666 -0.16666666 -2.03125000
v -4.04166666 0.16666666 -1.63541666
v -3.79166666 -0.16666666 -1.63541666
v -3.91666666 0.00000000 2.16666667
v -3.91666666 -0.50000000 0.91666666
v -3.91666666 0.50000000 0.91666666
v -3.50000000 0.54166666 0.41370551
v -3.50000000 -0.54166666 0.41370551
v -3.50000000 0.45833334 -0.42555015
v -3.50000000 -0.45833334 -0.42555015
v -3.50000000 0.00000000 -0.84517797
v -3.50000000 0.00000000 0.33333333
v -3.91666666 0.41666667 1.00000000
v -3.91666666 0.58333333 0.83333333
v -3.91666666 -0.58333333 0.83333333
v -3.91666666 -0.41666667 1.00000000
v -3.91666666 -0.12500000 2.16666667
v -3.91666666 0.12500000 2.16666667
v -3.91666666 0.41666667 1.50000000
v -3.91666666 0.12500000 1.50000000
v -3.91666666 -0.41666667 1.50000000
v -3.91666666 -0.12500000 1.50000000
v -3.50000000 -0.13541667 0.62500000
v -4.33333333 -0.31770833 -0.37500000
v -4.33333333 -0.14062500 0.37500000
v -4.33333333 -0.49479166 -1.12500000
v -4.33333333 0.03645833 1.12500000
v -4.33333333 -0.52604166 -1.12500000
v -4.33333333 -0.29687500 0.37500000
v -4.33333333 -0.18229167 1.12500000
v -4.33333333 -0.41145833 -0.37500000
v -4.33333333 -0.08854167 1.12500000
v -4.33333333 -0.15104167 1.12500000
v -4.33333333 -0.38020833 -0.37500000
v -4.33333333 -0.20312500 0.37500000
v -4.33333333 -0.23437500 0.37500000
v -3.91666666 0.00000000 -0.08333333
v -3.50000000 -0.25000000 -1.33629449
v -4.33333333 0.00000000 1.83333334
v -3.50000000 0.00000000 1.83333334
v -3.91666666 -0.58333333 -1.83333334
v -3.91666666 0.58333333 -1.83333334
v -4.33333333 0.41666666 -1.18750000
v -4.33333333 0.33333334 0.06250000
v -4.33333333 0.08333334 -0.56250000
v -3.91666666 -0.12500000 -0.08333333
v -3.91666666 0.12500000 -0.08333333
v -3.50000000 -0.50000000 -1.17258898
v -3.50000000 0.50000000 -1.17258898
v -4.33333333 0.37500000 -0.56250000
v -4.33333333 -0.20833333 -0.56250000
v -4.33333333 0.04166667 0.06250000
v -4.33333333 0.12500000 -1.18750000
v -4.33333333 -0.45833333 -1.18750000
v -4.33333333 0.29166667 0.68750000
v -4.06770833 -0.58333333 -0.13985840
v -4.06770833 0.58333333 -0.13985840
v -4.24479166 0.58333333 0.50893609
v -4.24479166 -0.58333333 0.50893609
v -3.58854166 0.58333333 0.50893609
v -3.58854166 -0.58333333 0.50893609
v -3.76562499 -0.58333333 -0.13985840
v -3.76562499 0.58333333 -0.13985840
v -3.50000000 0.41666667 0.66666666
v -3.50000000 -0.41666667 0.66666666
v -3.79166666 0.58333333 -1.83333334
v -4.04166666 0.58333333 -1.83333334
v -3.79166666 -0.58333333 -1.83333334
v -4.04166666 -0.58333333 -1.83333334
v -3.50000000 0.12500000 1.83333334
v -3.50000000 -0.12500000 1.83333334
v -4.33333333 0.12500000 1.83333334
v -4.33333333 -0.12500000 1.83333334
v -4.24269831 -0.58333333 0.51674859
v -4.24269831 0.58333333 0.51674859
v -4.06142827 0.58333333 -0.11642090
v -4.06142827 -0.58333333 -0.11642090
v -3.59063502 -0.58333333 0.51674859
v -3.59063502 0.58333333 0.51674859
v -3.77190505 0.58333333 -0.11642090
v -3.77190505 -0.58333333 -0.11642090
v -3.76041666 -0.12500000 -0.14879449
v -3.76041666 0.12500000 -0.14879449
v -4.22916666 0.58333333 0.52456109
v -4.22916666 -0.58333333 0.52456109
v -4.02083333 -0.58333333 -0.09298340
v -4.02083333 0.58333333 -0.09298340
v -3.81250000 0.58333333 -0.09298340
v -3.81250000 -0.58333333 -0.09298340
v -3.60416666 0.58333333 0.52456109
v -3.60416666 -0.58333333 0.52456109
v -4.23697916 -0.58333333 0.52246773
v -4.23697916 0.58333333 0.52246773
v -4.04427083 -0.58333333 -0.09926346
v -4.04427083 0.58333333 -0.09926346
v -3.59635416 -0.58333333 0.52246773
v -3.59635416 0.58333333 0.52246773
v -3.78906250 0.58333333 -0.09926346
v -3.78906250 -0.58333333 -0.09926346
v -4.03645833 0.58333333 -0.09717011
v -4.03645833 -0.58333333 -0.09717011
v -3.79687500 -0.58333333 -0.09717011
v -3.79687500 0.58333333 -0.09717011
v -4.06352162 -0.58333333 -0.12423340
v -4.06352162 0.58333333 -0.12423340
v -3.76981170 -0.58333333 -0.12423340
v -3.76981170 0.58333333 -0.12423340
v -4.04998997 0.58333333 -0.10498261
v -4.04998997 -0.58333333 -0.10498261
v -3.78334335 -0.58333333 -0.10498261
v -3.78334335 0.58333333 -0.10498261
v -3.50000000 0.01041667 1.20833333
v -3.50000000 0.28125000 0.62500000
v -3.80729166 0.12500000 -0.12173120
v -3.80729166 -0.12500000 -0.12173120
v -3.76460337 0.12500000 -0.13316949
v -3.76460337 -0.12500000 -0.13316949
v -4.33333333 0.43750000 0.68750000
v -4.33333333 0.52083333 -0.56250000
v -4.33333333 0.47916667 0.06250000
v -4.33333333 0.56250000 -1.18750000
v -4.33333333 -0.56250000 -1.18750000
v -4.33333333 -0.43750000 0.68750000
v -4.33333333 -0.47916667 0.06250000
v -4.33333333 -0.52083333 -0.56250000
v -3.79166666 -0.12500000 -0.11754449
v -3.79166666 0.12500000 -0.11754449
v -3.77604166 0.12500000 -0.12173120
v -3.77604166 -0.12500000 -0.12173120
v -4.07291666 -0.58333333 0.67894721
v -4.07291666 0.58333333 0.67894721
v -3.50000000 -0.19791667 1.20833333
v -3.50000000 0.19791667 1.20833333
v -3.50000000 0.34375000 0.62500000
v -3.50000000 0.07291667 0.62500000
v -3.50000000 -0.34375000 0.62500000
v -4.26041666 -0.29166666 -1.50000000
v -4.26041666 0.29166666 -1.50000000
v -4.11458333 0.29166666 -1.50000000
v -4.11458333 -0.29166666 -1.50000000
v -3.71874999 -0.29166666 -1.50000000
v -3.57291666 -0.29166666 -1.50000000
v -3.71874999 0.29166666 -1.50000000
v -3.57291666 0.29166666 -1.50000000
v -3.50000000 0.33333333 -1.33629449
v -3.50000000 -0.16666667 -1.00888348
v -3.85416666 0.29166666 -2.16666667
v -3.97916666 0.29166666 -2.16666667
v -3.85416666 -0.29166666 -2.16666667
v -3.97916666 -0.29166666 -2.16666667
v -4.33333333 0.25520834 0.75000000
v -4.33333333 -0.24479166 -0.50000000
v -4.33333333 -0.06770833 0.25000000
v -3.58333333 -0.14583334 0.25000000
v -3.50000000 -0.41666667 -0.55055015
v -3.50000000 0.41666667 -0.55055015
v -3.50000000 0.41666667 0.03870551
v -3.50000000 -0.41666667 0.03870551
v -3.50000000 0.13541667 1.20833333
v -3.50000000 -0.58333333 -0.62500000
v -3.50000000 0.58333333 -0.62500000
v -4.33333333 0.58333333 -0.04166667
v -4.33333333 -0.58333333 -0.04166667
v -3.50000000 0.58333333 -0.04166667
v -3.50000000 -0.58333333 -0.04166667
v -4.33333333 0.58333333 -0.62500000
v -4.33333333 -0.58333333 -0.62500000
v -4.33333333 -0.58333333 -1.20833333
v -4.33333333 0.58333333 -1.20833333
v -3.50000000 -0.58333333 0.54166666
v -3.50000000 0.58333333 0.54166666
v -4.33333333 -0.58333333 0.54166666
v -4.33333333 0.58333333 0.54166666
v -3.50000000 0.58333333 -1.20833333
v -3.50000000 -0.58333333 -1.20833333
v -4.04166666 -0.29166666 -2.16666667
v -3.79166666 -0.29166666 -2.16666667
v -4.04166666 0.29166666 -2.16666667
v -3.79166666 0.29166666 -2.16666667
v -3.50000000 0.29166666 -1.50000000
v -3.79166666 0.29166666 -1.50000000
v -3.50000000 -0.29166666 -1.50000000
v -3.79166666 -0.29166666 -1.50000000
v -4.04166666 -0.29166666 -1.50000000
v -4.04166666 0.29166666 -1.50000000
v -4.33333333 0.29166666 -1.50000000
v -4.33333333 -0.29166666 -1.50000000
v -4.33333333 0.20833334 -0.25000000
v -4.33333333 -0.04166666 -0.87500000
v -3.50000000 0.27083334 1.25000000
v -3.50000000 -0.27083334 1.25000000
v -4.33333333 -0.27083334 1.25000000
v -4.33333333 0.27083334 1.25000000
v -4.15625000 -0.58333333 -0.69046116
v -4.15625000 0.58333333 -0.69046116
v -3.67708333 0.58333333 -0.69046116
v -3.67708333 -0.58333333 -0.69046116
v -4.16666666 0.00000000 -0.58925565
v -3.58333333 -0.14583334 -0.84517797
v -3.91666666 0.00000000 -0.84517797
v -4.06770833 0.58333333 -0.72319174
v -4.06770833 -0.58333333 -0.72319174
v -4.24479166 0.58333333 -1.24106391
v -4.24479166 -0.58333333 -1.24106391
v -4.24479166 -0.58333333 -0.07439725
v -4.24479166 0.58333333 -0.07439725
v -3.76562499 -0.58333333 -0.72319174
v -3.76562499 0.58333333 -0.72319174
v -3.58854166 -0.58333333 -1.24106391
v -3.58854166 0.58333333 -1.24106391
v -3.58854166 -0.58333333 -0.07439725
v -3.58854166 0.58333333 -0.07439725
v -4.33333333 -0.03125000 0.18750000
v -4.33333333 0.56250000 0.56250000
v -4.33333333 -0.56250000 0.56250000
v -4.33333333 -0.56250000 -0.60416667
v -4.33333333 0.56250000 -0.60416667
v -4.33333333 -0.52083333 0.02083333
v -4.33333333 0.52083333 0.02083333
v -3.50000000 0.50000000 -0.58925565
v -3.50000000 -0.50000000 -0.58925565
v -4.33333333 0.18229167 0.87500000
v -4.09895833 -0.58333333 -1.24106391
v -4.09895833 0.58333333 -1.24106391
v -3.73437499 0.58333333 -1.24106391
v -3.73437499 -0.58333333 -1.24106391
v -3.50000000 -0.50000000 0.58333333
v -3.50000000 0.50000000 0.58333333
v -3.66666666 -0.19791667 -0.59221681
v -3.66666666 -0.34375000 -0.59221681
v -3.66666666 -0.19791667 -0.08629449
v -3.66666666 -0.34375000 -0.08629449
v -3.66666666 0.19791667 -0.08629449
v -3.66666666 0.34375000 -0.08629449
v -3.66666666 0.19791667 -0.59221681
v -3.66666666 0.34375000 -0.59221681
v -3.88541666 -0.58333333 -1.25668891
v -3.88541666 0.58333333 -1.25668891
v -4.33333333 0.04166667 -1.03125000
v -4.33333333 -0.12500000 -0.71875000
v -4.33333333 0.12500000 -0.09375000
v -4.33333333 0.29166667 -0.40625000
v -4.33333333 -0.37500000 -1.34375000
v -4.33333333 0.20833333 -1.34375000
v -3.83854166 0.58333333 -0.72319174
v -3.83854166 -0.58333333 -0.72319174
v -3.99479166 -0.58333333 -0.72319174
v -3.99479166 0.58333333 -0.72319174
v -3.80729166 -0.58333333 -1.24106391
v -3.80729166 0.58333333 -1.24106391
v -4.02604166 0.58333333 -1.24106391
v -4.02604166 -0.58333333 -1.24106391
v -3.50000000 -0.33333334 -1.09073623
v -3.54166666 0.41666667 -0.59221681
v -3.54166666 -0.41666667 -0.59221681
v -3.62500000 -0.41666667 -0.59221681
v -3.62500000 0.41666667 -0.59221681
v -3.62500000 0.41666667 -0.08629449
v -3.62500000 -0.41666667 -0.08629449
v -4.16666666 0.12500000 -0.58925565
v -4.16666666 -0.12500000 -0.58925565
v -4.33333333 0.54166666 0.00000000
v -4.33333333 -0.54166666 0.00000000
v -3.66666666 -0.41666667 -0.08629449
v -3.66666666 0.41666667 -0.08629449
v -3.66666666 0.41666667 -0.59221681
v -3.66666666 -0.41666667 -0.59221681
v -3.66666666 0.12500000 -0.59221681
v -3.66666666 0.12500000 -0.08629449
v -3.66666666 -0.12500000 -0.08629449
v -3.66666666 -0.12500000 -0.59221681
v -3.84482172 0.58333333 -0.74662924
v -3.84482172 -0.58333333 -0.74662924
v -3.98851160 -0.58333333 -0.74662924
v -3.98851160 0.58333333 -0.74662924
v -4.02394831 -0.58333333 -1.24887641
v -4.02394831 0.58333333 -1.24887641
v -3.80938501 0.58333333 -1.24887641
v -3.80938501 -0.58333333 -1.24887641
v -4.33333333 -0.48437500 -0.50000000
v -4.33333333 -0.40104167 0.75000000
v -4.33333333 -0.36979167 0.25000000
v -3.91666666 0.12500000 -0.84517797
v -3.91666666 -0.12500000 -0.84517797
v -4.33333333 0.41666667 1.25000000
v -4.33333333 -0.41666667 1.25000000
v -3.50000000 -0.41666667 1.25000000
v -3.50000000 0.41666667 1.25000000
v -3.79166666 0.00000000 -1.77083333
v -4.04166666 0.00000000 -1.77083333
v -4.04166666 0.00000000 -1.89583333
v -3.79166666 0.00000000 -1.89583333
f 2 24 1
f 1 24 13
f 1 13 12
f 12 13 14
f 12 14 11
f 11 14 15
f 11 15 10
f 10 15 16
f 10 16 9
f 9 16 17
f 9 17 8
f 8 17 18
f 8 18 7
f 7 18 19
f 7 19 6
f 6 19 20
f 6 20 5
f 5 20 21
f 5 21 4
f 4 21 22
f 4 22 3
f 3 22 23
f 3 23 2
f 2 23 24
f 26 48 25
f 25 48 37
f 25 37 36
f 36 37 38
f 36 38 35
f 35 38 39
f 35 39 34
f 34 39 40
f 34 40 33
f 33 40 41
f 33 41 32
f 32 41 42
f 32 42 31
f 31 42 43
f 31 43 30
f 30 43 44
f 30 44 29
f 29 44 45
f 29 45 28
f 28 45 46
f 28 46 27
f 27 46 47
f 27 47 26
f 26 47 48
f 56 49 55
f 282 293 50
f 424 282 50
f 52 50 51
f 52 307 55
f 307 317 55
f 427 56 217
f 245 528 248
f 36 54 25
f 60 530 468
f 25 60 26
f 26 60 27
f 27 60 28
f 59 553 470
f 28 59 29
f 29 59 30
f 30 59 31
f 249 503 539
f 539 503 55
f 353 55 386
f 34 397 384
f 35 384 317
f 307 54 317
f 35 54 36
f 61 468 531
f 468 54 53
f 24 61 13
f 531 468 53
f 13 53 14
f 14 53 15
f 316 307 52
f 385 316 52
f 385 52 396
f 18 387 352
f 19 352 250
f 250 499 541
f 19 62 20
f 20 62 21
f 21 62 22
f 554 470 61
f 22 61 23
f 23 61 24
f 249 239 503
f 528 535 248
f 250 238 499
f 526 525 63
f 58 59 57
f 281 213 57
f 281 59 469
f 64 62 63
f 62 470 554
f 470 60 61
f 216 280 425
f 425 280 64
f 68 276 67
f 276 284 67
f 463 70 555
f 283 276 68
f 74 275 73
f 275 286 73
f 73 556 462
f 76 291 266
f 37 471 465
f 37 465 436
f 489 223 532
f 545 47 251
f 251 47 259
f 260 259 46
f 548 520 78
f 78 520 495
f 78 495 480
f 319 77 444
f 57 224 431
f 350 190 377
f 368 195 381
f 360 198 269
f 269 197 354
f 358 40 357
f 328 443 67
f 188 223 328
f 78 312 81
f 312 337 81
f 374 347 189
f 296 83 298
f 438 392 83
f 192 379 364
f 268 361 71
f 196 199 268
f 356 359 199
f 71 331 440
f 331 191 220
f 179 220 435
f 430 7 467
f 467 7 477
f 253 543 5
f 257 253 5
f 262 258 84
f 86 311 85
f 311 339 85
f 84 546 522
f 522 493 84
f 493 474 84
f 213 415 319
f 57 279 426
f 221 330 441
f 404 383 49
f 49 383 282
f 403 65 460
f 216 179 280
f 318 225 445
f 213 308 228
f 204 382 209
f 382 402 209
f 335 209 72
f 89 310 92
f 310 341 92
f 403 460 89
f 402 92 461
f 94 105 93
f 342 309 106
f 93 106 104
f 104 106 103
f 103 106 102
f 288 274 90
f 102 90 101
f 101 90 100
f 100 90 99
f 340 310 89
f 99 89 98
f 98 89 97
f 97 89 96
f 290 267 105
f 96 105 95
f 95 105 94
f 104 118 93
f 93 118 107
f 93 107 94
f 94 107 108
f 94 108 95
f 95 108 109
f 95 109 96
f 96 109 110
f 96 110 97
f 97 110 111
f 97 111 98
f 98 111 112
f 98 112 99
f 99 112 113
f 99 113 100
f 100 113 114
f 100 114 101
f 101 114 115
f 101 115 102
f 102 115 116
f 102 116 103
f 103 116 117
f 103 117 104
f 104 117 118
f 106 274 288
f 274 91 90
f 118 119 107
f 309 120 343
f 107 120 108
f 108 120 109
f 109 120 110
f 292 266 92
f 110 92 111
f 111 92 112
f 112 92 113
f 310 91 341
f 113 91 114
f 114 91 115
f 115 91 116
f 119 287 274
f 116 119 117
f 117 119 118
f 89 267 290
f 267 70 105
f 120 266 292
f 266 75 92
f 122 138 121
f 121 138 139
f 121 139 132
f 132 139 140
f 132 140 131
f 131 140 141
f 131 141 130
f 130 559 273
f 453 411 87
f 229 411 453
f 78 142 143
f 78 143 144
f 138 122 137
f 137 122 123
f 137 123 136
f 136 562 270
f 449 417 79
f 227 417 449
f 86 124 125
f 86 125 126
f 126 127 86
f 338 311 86
f 87 127 128
f 87 128 129
f 129 130 87
f 134 79 133
f 336 312 78
f 133 78 144
f 134 135 79
f 79 135 136
f 144 156 133
f 133 156 145
f 133 145 134
f 134 145 146
f 134 146 135
f 135 146 147
f 135 147 136
f 136 147 148
f 136 148 137
f 137 148 149
f 137 149 138
f 138 149 150
f 138 150 139
f 139 150 151
f 139 151 140
f 140 151 152
f 140 152 141
f 141 152 153
f 141 153 142
f 142 153 154
f 142 154 143
f 143 154 155
f 143 155 144
f 144 155 156
f 132 168 121
f 121 168 157
f 121 157 122
f 122 157 158
f 122 158 123
f 123 158 159
f 123 159 124
f 124 159 160
f 124 160 125
f 125 160 161
f 125 161 126
f 126 161 162
f 126 162 127
f 127 162 163
f 127 163 128
f 128 163 164
f 128 164 129
f 129 164 165
f 129 165 130
f 130 165 166
f 130 166 131
f 131 166 167
f 131 167 132
f 132 167 168
f 419 214 227
f 227 214 417
f 168 152 157
f 157 152 151
f 157 151 158
f 158 151 150
f 158 150 159
f 159 150 149
f 159 149 160
f 160 561 271
f 85 446 420
f 85 420 419
f 80 148 147
f 80 147 146
f 152 168 153
f 153 168 167
f 153 167 154
f 154 560 272
f 455 409 81
f 81 409 408
f 84 166 165
f 84 165 164
f 164 163 84
f 311 84 339
f 85 163 162
f 85 162 161
f 161 160 85
f 156 81 145
f 312 80 337
f 145 80 146
f 156 155 81
f 81 155 154
f 229 212 411
f 412 228 452
f 408 456 82
f 211 231 408
f 205 314 187
f 390 172 314
f 215 423 295
f 184 183 300
f 106 309 119
f 309 343 119
f 324 83 296
f 407 83 457
f 300 73 462
f 463 297 105
f 169 294 170
f 105 297 120
f 393 551 255
f 208 393 255
f 185 313 323
f 171 315 321
f 172 512 458
f 68 325 421
f 329 74 442
f 329 442 222
f 433 173 174
f 83 392 298
f 465 219 436
f 38 37 327
f 491 176 430
f 8 7 332
f 178 177 434
f 224 466 431
f 279 178 217
f 441 330 66
f 179 278 220
f 50 428 51
f 304 301 170
f 301 173 170
f 297 302 120
f 302 184 303
f 395 173 550
f 174 173 395
f 299 255 183
f 295 169 305
f 423 169 295
f 297 181 302
f 315 459 510
f 407 457 231
f 510 459 186
f 186 296 180
f 325 187 215
f 511 458 171
f 38 375 346
f 346 39 38
f 189 329 222
f 12 326 1
f 221 190 330
f 333 43 42
f 8 376 351
f 351 9 8
f 74 355 400
f 12 11 347
f 365 39 378
f 200 365 193
f 369 9 380
f 202 369 194
f 66 360 269
f 350 42 41
f 196 356 199
f 379 11 364
f 198 357 197
f 269 198 197
f 198 358 357
f 368 381 41
f 268 199 361
f 356 10 359
f 345 328 67
f 365 378 193
f 192 364 201
f 192 344 329
f 348 331 71
f 369 380 194
f 203 195 368
f 349 330 195
f 383 405 282
f 383 204 405
f 236 489 390
f 68 388 325
f 206 391 313
f 172 389 320
f 174 486 437
f 1 174 437
f 237 208 394
f 170 552 299
f 406 209 335
f 382 92 402
f 210 65 403
f 334 65 210
f 211 407 231
f 410 407 211
f 78 413 451
f 413 212 229
f 416 308 213
f 57 319 224
f 214 418 417
f 86 419 447
f 421 325 215
f 215 295 181
f 428 216 51
f 51 529 534
f 426 279 217
f 49 56 427
f 1 437 464
f 464 437 218
f 219 439 391
f 37 436 175
f 440 331 220
f 179 435 176
f 178 434 221
f 178 221 277
f 488 173 533
f 488 394 173
f 328 223 443
f 432 175 172
f 319 444 224
f 57 431 490
f 64 430 225
f 64 523 416
f 226 448 418
f 271 148 226
f 447 419 227
f 270 124 227
f 413 77 414
f 411 212 412
f 451 413 229
f 273 142 229
f 454 410 230
f 272 166 230
f 408 231 456
f 514 456 231
f 232 473 439
f 232 494 473
f 472 464 233
f 474 438 83
f 445 234 479
f 479 234 496
f 235 478 466
f 77 480 444
f 484 443 236
f 205 390 314
f 237 394 488
f 74 485 442
f 52 501 540
f 501 238 250
f 59 505 538
f 505 239 249
f 315 185 459
f 186 324 296
f 241 515 478
f 542 45 44
f 496 242 519
f 477 7 516
f 517 472 243
f 544 3 2
f 244 521 494
f 37 518 471
f 426 245 524
f 524 245 527
f 529 246 247
f 425 64 525
f 501 51 502
f 499 238 500
f 505 58 506
f 503 239 504
f 538 505 249
f 31 249 353
f 540 501 250
f 541 499 62
f 251 547 521
f 48 47 545
f 252 3 544
f 258 3 252
f 549 519 253
f 543 6 5
f 254 45 542
f 256 45 254
f 552 255 299
f 393 73 551
f 256 46 45
f 260 46 261
f 87 263 507
f 5 4 257
f 4 3 258
f 4 258 262
f 81 259 260
f 259 47 46
f 508 261 78
f 260 261 508
f 78 261 256
f 261 46 256
f 263 4 262
f 507 263 262
f 257 4 263
f 257 263 87
f 461 75 557
f 275 72 286
f 460 65 558
f 69 289 267
f 291 75 266
f 76 266 120
f 289 70 267
f 69 267 89
f 355 196 268
f 285 275 74
f 276 66 284
f 269 354 401
f 562 124 270
f 136 270 79
f 561 148 271
f 160 271 85
f 560 166 272
f 154 272 81
f 559 142 273
f 130 273 87
f 287 91 274
f 119 274 106
f 71 72 275
f 71 275 285
f 65 66 276
f 65 276 283
f 178 277 49
f 49 498 334
f 497 335 71
f 50 278 179
f 279 177 178
f 490 431 177
f 64 491 430
f 280 179 176
f 281 469 64
f 57 59 281
f 55 49 282
f 55 282 424
f 265 65 283
f 265 283 68
f 401 354 67
f 66 269 284
f 285 268 71
f 400 355 268
f 286 264 73
f 72 264 286
f 116 91 287
f 116 287 119
f 102 106 288
f 102 288 90
f 289 265 70
f 69 265 289
f 96 89 290
f 96 290 105
f 264 75 291
f 264 291 76
f 110 120 292
f 110 292 92
f 50 406 335
f 204 209 293
f 422 321 180
f 171 294 169
f 181 295 184
f 295 305 184
f 180 296 182
f 296 298 182
f 492 421 181
f 68 297 463
f 298 207 182
f 392 207 298
f 169 170 299
f 169 306 305
f 300 462 120
f 183 73 300
f 180 182 301
f 180 301 304
f 302 303 120
f 181 184 302
f 303 300 120
f 184 300 303
f 294 180 304
f 294 304 170
f 305 183 184
f 306 183 305
f 306 299 183
f 169 299 306
f 53 54 307
f 53 307 316
f 318 88 308
f 523 308 416
f 105 120 309
f 105 309 342
f 90 91 310
f 90 310 340
f 87 84 311
f 87 311 338
f 79 80 312
f 79 312 336
f 391 82 313
f 206 313 185
f 187 314 322
f 458 315 171
f 320 185 315
f 512 315 458
f 15 53 316
f 15 316 385
f 384 55 317
f 35 317 54
f 318 445 88
f 64 225 318
f 415 77 319
f 213 319 57
f 320 206 185
f 389 206 320
f 171 321 422
f 321 186 180
f 423 187 483
f 322 171 169
f 459 185 509
f 323 231 240
f 513 457 83
f 186 240 324
f 325 205 187
f 388 205 325
f 1 326 174
f 475 433 174
f 188 476 432
f 37 175 327
f 193 188 328
f 193 328 345
f 344 74 329
f 192 329 189
f 66 330 349
f 330 190 195
f 194 191 331
f 194 331 348
f 435 191 481
f 332 7 176
f 177 43 333
f 177 482 434
f 334 66 65
f 498 66 334
f 50 335 497
f 335 72 71
f 133 79 336
f 133 336 78
f 145 81 337
f 145 337 80
f 338 127 87
f 86 127 338
f 339 163 85
f 84 163 339
f 99 90 340
f 99 340 89
f 113 92 341
f 113 341 91
f 93 105 342
f 93 342 106
f 107 119 343
f 107 343 120
f 74 362 355
f 192 201 344
f 345 200 193
f 363 354 200
f 346 188 193
f 375 188 346
f 12 347 374
f 347 192 189
f 348 202 194
f 366 361 202
f 367 360 66
f 349 195 203
f 350 377 42
f 195 190 350
f 351 191 194
f 376 191 351
f 387 52 352
f 18 352 19
f 31 353 32
f 353 386 32
f 67 354 363
f 354 197 200
f 355 201 196
f 362 201 355
f 356 11 10
f 364 11 371
f 365 197 370
f 357 40 39
f 41 40 358
f 41 373 368
f 369 199 372
f 359 10 9
f 203 198 360
f 203 360 367
f 71 361 366
f 361 199 202
f 344 201 362
f 344 362 74
f 67 363 345
f 363 200 345
f 201 364 196
f 364 371 196
f 365 370 39
f 200 197 365
f 71 366 348
f 366 202 348
f 367 349 203
f 66 349 367
f 368 198 203
f 373 198 368
f 369 372 9
f 202 199 369
f 370 357 39
f 197 357 370
f 196 371 356
f 371 11 356
f 372 359 9
f 199 359 372
f 373 358 198
f 41 358 373
f 12 374 326
f 374 189 326
f 375 327 188
f 38 327 375
f 376 332 191
f 8 332 376
f 377 333 42
f 190 333 377
f 193 378 346
f 378 39 346
f 347 11 379
f 347 379 192
f 194 380 351
f 380 9 351
f 381 350 41
f 195 350 381
f 89 92 382
f 89 429 403
f 210 204 383
f 210 383 404
f 397 55 384
f 34 384 35
f 15 385 16
f 385 396 16
f 32 386 33
f 33 398 397
f 396 52 399
f 17 387 18
f 67 205 388
f 67 388 68
f 487 436 206
f 175 389 172
f 489 172 390
f 236 390 205
f 439 82 391
f 219 391 206
f 218 207 392
f 218 392 438
f 74 73 393
f 74 393 208
f 173 394 170
f 394 208 170
f 207 395 182
f 395 550 182
f 16 396 17
f 396 399 17
f 398 55 397
f 33 397 34
f 386 55 398
f 386 398 33
f 17 399 387
f 399 52 387
f 74 400 285
f 400 268 285
f 284 269 401
f 284 401 67
f 209 402 72
f 402 461 72
f 403 204 210
f 429 204 403
f 404 334 210
f 49 334 404
f 282 405 293
f 405 204 293
f 293 209 406
f 293 406 50
f 84 83 407
f 84 407 410
f 409 211 408
f 81 408 82
f 230 211 409
f 230 409 455
f 84 410 454
f 410 211 230
f 87 411 88
f 411 412 88
f 412 452 88
f 212 228 412
f 413 414 212
f 78 77 413
f 212 414 228
f 415 228 450
f 415 450 77
f 213 228 415
f 64 416 281
f 416 213 281
f 417 80 79
f 418 80 417
f 448 80 418
f 226 418 214
f 420 214 419
f 85 419 86
f 420 226 214
f 446 226 420
f 68 421 492
f 421 215 181
f 171 422 294
f 422 180 294
f 423 483 169
f 215 187 423
f 55 424 52
f 424 50 52
f 216 425 246
f 425 525 246
f 426 524 57
f 217 245 426
f 427 178 49
f 217 178 427
f 428 179 216
f 50 179 428
f 429 382 204
f 89 382 429
f 430 467 225
f 176 7 430
f 431 43 177
f 466 43 431
f 476 175 432
f 188 432 223
f 189 222 433
f 189 433 475
f 434 190 221
f 482 190 434
f 435 481 176
f 220 191 435
f 175 436 487
f 436 219 206
f 437 207 218
f 486 207 437
f 233 218 438
f 233 438 474
f 473 82 439
f 232 439 219
f 278 71 440
f 278 440 220
f 277 221 441
f 277 441 66
f 442 237 222
f 485 237 442
f 67 443 484
f 443 223 236
f 444 235 224
f 480 235 444
f 445 479 88
f 225 234 445
f 446 271 226
f 85 271 446
f 447 124 86
f 227 124 447
f 448 148 80
f 226 148 448
f 449 270 227
f 79 270 449
f 414 77 450
f 414 450 228
f 451 142 78
f 229 142 451
f 308 88 452
f 308 452 228
f 453 273 229
f 87 273 453
f 454 166 84
f 230 166 454
f 455 272 230
f 81 272 455
f 313 82 456
f 313 456 514
f 240 231 457
f 240 457 513
f 314 172 458
f 314 458 511
f 186 459 240
f 459 509 240
f 89 460 69
f 460 558 69
f 461 557 72
f 92 75 461
f 462 76 120
f 556 76 462
f 463 555 68
f 105 70 463
f 1 464 472
f 464 218 233
f 465 232 219
f 471 232 465
f 478 43 466
f 235 466 224
f 225 467 234
f 467 477 234
f 530 54 468
f 60 468 61
f 64 469 62
f 469 59 62
f 553 60 470
f 59 470 62
f 471 244 232
f 518 244 471
f 1 472 517
f 472 233 243
f 473 81 82
f 494 81 473
f 233 474 493
f 474 83 84
f 326 189 475
f 326 475 174
f 327 175 476
f 327 476 188
f 234 477 242
f 477 516 242
f 515 43 478
f 241 478 235
f 88 479 87
f 479 496 87
f 495 235 480
f 78 480 77
f 481 332 176
f 191 332 481
f 482 333 190
f 177 333 482
f 483 322 169
f 187 322 483
f 67 484 205
f 484 236 205
f 485 208 237
f 74 208 485
f 486 395 207
f 174 395 486
f 175 487 389
f 487 206 389
f 237 488 222
f 488 533 222
f 489 532 172
f 236 223 489
f 57 490 279
f 490 177 279
f 491 280 176
f 64 280 491
f 68 492 297
f 492 181 297
f 243 233 493
f 243 493 522
f 521 81 494
f 244 494 232
f 495 241 235
f 520 241 495
f 496 519 87
f 234 242 496
f 50 497 278
f 497 71 278
f 277 66 498
f 277 498 49
f 62 499 63
f 499 500 63
f 537 526 63
f 238 247 500
f 501 502 238
f 52 51 501
f 238 502 247
f 534 529 247
f 55 503 56
f 503 504 56
f 528 56 535
f 239 248 504
f 505 506 239
f 59 58 505
f 239 506 248
f 527 248 536
f 87 507 84
f 507 262 84
f 81 260 508
f 81 508 78
f 509 323 240
f 185 323 509
f 321 315 510
f 321 510 186
f 322 314 511
f 322 511 171
f 512 320 315
f 172 320 512
f 324 240 513
f 324 513 83
f 323 313 514
f 323 514 231
f 44 43 515
f 44 515 241
f 242 516 6
f 516 7 6
f 517 2 1
f 243 2 517
f 48 244 518
f 48 518 37
f 87 519 549
f 519 242 253
f 254 241 520
f 254 520 548
f 547 81 521
f 251 521 244
f 522 252 243
f 546 252 522
f 523 318 308
f 64 318 523
f 57 524 58
f 524 527 58
f 246 525 526
f 525 64 63
f 247 246 526
f 247 526 537
f 527 536 58
f 245 248 527
f 217 56 528
f 217 528 245
f 216 246 529
f 216 529 51
f 25 54 530
f 25 530 60
f 13 61 531
f 13 531 53
f 532 432 172
f 223 432 532
f 222 533 433
f 533 173 433
f 502 51 534
f 502 534 247
f 504 248 535
f 504 535 56
f 506 58 536
f 506 536 248
f 500 247 537
f 500 537 63
f 31 59 538
f 31 538 249
f 353 249 539
f 353 539 55
f 352 52 540
f 352 540 250
f 19 250 541
f 19 541 62
f 542 241 254
f 44 241 542
f 543 242 6
f 253 242 543
f 252 544 243
f 544 2 243
f 48 545 244
f 545 251 244
f 546 258 252
f 84 258 546
f 547 259 81
f 251 259 547
f 548 256 254
f 78 256 548
f 87 549 257
f 549 253 257
f 182 550 301
f 550 173 301
f 255 551 183
f 551 73 183
f 208 255 552
f 208 552 170
f 28 60 553
f 28 553 59
f 22 62 554
f 22 554 61
f 555 265 68
f 70 265 555
f 556 264 76
f 73 264 556
f 72 557 264
f 557 75 264
f 69 558 265
f 558 65 265
f 559 141 142
f 130 141 559
f 560 167 166
f 154 167 560
f 561 149 148
f 160 149 561
f 562 123 124
f 136 123 562

