
o 3.obj
v -3.97916666 0.12500000 -0.46425565
v -3.97079325 0.12500000 -0.49550565
v -3.94791666 0.12500000 -0.51838224
v -3.91666666 0.12500000 -0.52675565
v -3.88541666 0.12500000 -0.51838224
v -3.86254007 0.12500000 -0.49550565
v -3.85416666 0.12500000 -0.46425565
v -3.86254007 0.12500000 -0.43300565
v -3.88541666 0.12500000 -0.41012906
v -3.91666666 0.12500000 -0.40175565
v -3.94791666 0.12500000 -0.41012906
v -3.97079325 0.12500000 -0.43300565
v -3.66666666 0.12500000 0.16666667
v -3.66666666 0.12500000 -0.84517797
v -4.16666666 0.12500000 -0.84517797
v -4.16666666 0.12500000 -0.33333333
v -3.97916666 -0.12500000 -0.46425565
v -3.97079325 -0.12500000 -0.49550565
v -3.94791666 -0.12500000 -0.51838224
v -3.91666666 -0.12500000 -0.52675565
v -3.88541666 -0.12500000 -0.51838224
v -3.86254007 -0.12500000 -0.49550565
v -3.85416666 -0.12500000 -0.46425565
v -3.86254007 -0.12500000 -0.43300565
v -3.88541666 -0.12500000 -0.41012906
v -3.91666666 -0.12500000 -0.40175565
v -3.94791666 -0.12500000 -0.41012906
v -3.97079325 -0.12500000 -0.43300565
v -4.16666666 -0.12500000 -0.84517797
v -4.16666666 -0.12500000 -0.33333333
v -3.66666666 -0.12500000 -0.84517797
v -3.66666666 -0.12500000 0.16666667
v -3.66666666 0.41666667 0.16666667
v -3.66666666 0.41666667 -0.84517797
v -3.66666666 -0.41666667 -0.84517797
v -3.66666666 -0.41666667 0.16666667
v -1.76491101 0.12500000 1.75000000
v -1.75653760 0.12500000 1.71875000
v -1.73366101 0.12500000 1.69587341
v -1.70241101 0.12500000 1.68750000
v -1.67116101 0.12500000 1.69587341
v -1.64828442 0.12500000 1.71875000
v -1.63991101 0.12500000 1.75000000
v -1.64828442 0.12500000 1.78125000
v -1.67116101 0.12500000 1.80412659
v -1.70241101 0.12500000 1.81250000
v -1.73366101 0.12500000 1.80412659
v -1.75653760 0.12500000 1.78125000
v -1.32148869 0.12500000 2.00000000
v -1.32148869 0.12500000 1.50000000
v -2.33333333 0.12500000 1.50000000
v -1.83333333 0.12500000 2.00000000
v -1.76491101 -0.12500000 1.75000000
v -1.75653760 -0.12500000 1.71875000
v -1.73366101 -0.12500000 1.69587341
v -1.70241101 -0.12500000 1.68750000
v -1.67116101 -0.12500000 1.69587341
v -1.64828442 -0.12500000 1.71875000
v -1.63991101 -0.12500000 1.75000000
v -1.64828442 -0.12500000 1.78125000
v -1.67116101 -0.12500000 1.80412659
v -1.70241101 -0.12500000 1.81250000
v -1.73366101 -0.12500000 1.80412659
v -1.75653760 -0.12500000 1.78125000
v -1.83333333 -0.12500000 2.00000000
v -1.32148869 -0.12500000 2.00000000
v -1.32148869 -0.12500000 1.50000000
v -2.33333333 -0.12500000 1.50000000
v -1.32148869 0.41666667 1.50000000
v -2.33333333 0.41666667 1.50000000
v -2.33333333 -0.41666667 1.50000000
v -1.32148869 -0.41666667 1.50000000
v -1.32148869 0.41666667 1.33333334
v -1.32148869 -0.41666667 1.33333334
v -3.50000000 0.41666667 -0.84517797
v -3.50000000 -0.41666667 -0.84517797
v -2.49407768 -0.41666667 0.32741102
v -2.49407768 0.41666667 0.32741102
v -2.41074435 0.41666667 0.32741102
v -2.41074435 -0.41666667 0.32741102
v -2.41074435 0.00000000 0.24407769
v -2.41074435 0.41666667 0.24407769
v -2.41074435 -0.41666667 0.24407769
v -2.49407768 0.41666667 0.83333334
v -2.49407768 -0.41666667 0.83333334
v -3.00000000 0.27083334 0.83333334
v -3.00000000 -0.27083334 0.83333334
v -3.00000000 0.00000000 0.83333334
v -3.00000000 0.12500000 0.83333334
v -3.00000000 -0.12500000 0.83333334
v -3.00000000 -0.41666667 0.83333334
v -3.00000000 0.41666667 0.83333334
v -1.90778318 -0.41666667 0.91370551
v -1.90778318 0.41666667 0.91370551
v -3.08037217 0.41666667 -0.25888348
v -3.08037217 -0.41666667 -0.25888348
v -1.86611652 0.41666667 0.91370551
v -1.86611652 -0.41666667 0.91370551
v -2.95537217 -0.41666667 -0.25888348
v -2.95537217 0.41666667 -0.25888348
v -1.86611652 -0.20833334 0.78870551
v -1.86611652 0.20833334 0.78870551
v -2.95537217 -0.20833334 -0.30055014
v -2.95537217 0.20833334 -0.30055014
v -2.99703884 0.41666667 -0.25888348
v -2.99703884 -0.41666667 -0.25888348
v -2.95537217 0.41666667 -0.30055014
v -2.95537217 -0.41666667 -0.30055014
v -1.86611652 0.41666667 0.78870551
v -1.86611652 -0.41666667 0.78870551
v -1.86611652 -0.41666667 0.83037218
v -1.86611652 0.41666667 0.83037218
v -1.90778318 0.41666667 1.16666667
v -1.90778318 -0.41666667 1.16666667
v -3.08037217 0.41666667 0.50000000
v -3.08037217 -0.41666667 0.50000000
v -3.08037217 -0.41666667 0.24703884
v -3.08037217 0.41666667 0.24703884
v -1.82741101 -0.27083334 1.50000000
v -1.82741101 0.27083334 1.50000000
v -3.66666666 -0.27083334 -0.33925565
v -3.66666666 0.27083334 -0.33925565
v -3.66666666 0.12500000 -0.33925565
v -3.66666666 0.41666667 -0.33925565
v -3.66666666 -0.12500000 -0.33925565
v -3.66666666 -0.41666667 -0.33925565
v -1.82741101 0.12500000 1.50000000
v -1.82741101 0.41666667 1.50000000
v -1.82741101 -0.12500000 1.50000000
v -1.82741101 -0.41666667 1.50000000
v -3.22768609 0.10416667 -0.57286406
v -1.59380260 0.10416667 1.06101943
v -2.66666666 0.34375000 1.16666667
v -2.66666666 0.19791667 1.16666667
v -3.33333333 0.34375000 0.50000000
v -3.33333333 0.19791667 0.50000000
v -3.33333333 -0.34375000 0.50000000
v -3.33333333 -0.19791667 0.50000000
v -2.66666666 -0.34375000 1.16666667
v -2.66666666 -0.19791667 1.16666667
v -3.33333333 -0.06250000 0.50000000
v -3.33333333 0.06250000 0.50000000
v -2.66666666 -0.06250000 1.16666667
v -2.66666666 0.06250000 1.16666667
v -2.66666666 0.12500000 1.16666667
v -2.66666666 -0.12500000 1.16666667
v -3.33333333 0.12500000 0.50000000
v -3.33333333 -0.12500000 0.50000000
v -2.66666666 -0.41666667 1.16666667
v -3.33333333 -0.41666667 0.50000000
v -3.33333333 0.41666667 0.50000000
v -2.66666666 0.41666667 1.16666667
v -1.32148869 0.00000000 1.33333334
v -3.50000000 0.00000000 -0.84517797
v -3.37351941 -0.41666667 -0.55203072
v -3.37351941 0.41666667 -0.55203072
v -2.78722492 0.41666667 0.03426377
v -2.78722492 -0.41666667 0.03426377
v -1.61463594 -0.41666667 1.20685275
v -1.61463594 0.41666667 1.20685275
v -2.20093043 0.41666667 0.62055826
v -2.20093043 -0.41666667 0.62055826
v -1.59380260 0.41666667 1.20685275
v -1.59380260 -0.41666667 1.20685275
v -2.13843043 0.41666667 0.62055826
v -2.13843043 -0.41666667 0.62055826
v -3.22768609 -0.41666667 -0.55203072
v -3.22768609 0.41666667 -0.55203072
v -2.68305826 0.41666667 0.03426377
v -2.68305826 -0.41666667 0.03426377
v -2.13843043 -0.31250000 0.51639160
v -2.13843043 -0.10416667 0.51639160
v -2.13843043 0.10416667 0.51639160
v -2.13843043 0.31250000 0.51639160
v -2.68305826 -0.31250000 -0.02823623
v -2.68305826 -0.10416667 -0.02823623
v -2.68305826 0.10416667 -0.02823623
v -2.68305826 0.31250000 -0.02823623
v -1.59380260 -0.31250000 1.06101943
v -1.59380260 0.31250000 1.06101943
v -3.22768609 -0.31250000 -0.57286406
v -3.22768609 0.31250000 -0.57286406
v -3.24851942 0.41666667 -0.55203072
v -3.24851942 -0.41666667 -0.55203072
v -2.15926376 -0.41666667 0.62055826
v -2.15926376 0.41666667 0.62055826
v -2.74555826 -0.41666667 0.03426377
v -2.74555826 0.41666667 0.03426377
v -2.68305826 0.41666667 -0.02823623
v -2.68305826 -0.41666667 -0.02823623
v -2.13843043 0.41666667 0.51639160
v -2.13843043 -0.41666667 0.51639160
v -3.22768609 0.41666667 -0.57286406
v -3.22768609 -0.41666667 -0.57286406
v -1.59380260 0.41666667 1.06101943
v -1.59380260 -0.41666667 1.06101943
v -2.08333333 0.00000000 1.75000000
v -3.91666666 0.00000000 -0.08333333
v -2.72472492 0.41666667 0.03426377
v -2.72472492 -0.41666667 0.03426377
v -1.59380260 -0.41666667 1.08185276
v -1.59380260 0.41666667 1.08185276
v -2.68305826 -0.41666667 -0.00740290
v -2.68305826 0.41666667 -0.00740290
v -2.13843043 -0.41666667 0.57889160
v -2.13843043 0.41666667 0.57889160
v -3.37351941 -0.41666667 -0.04610840
v -3.37351941 0.41666667 -0.04610840
v -3.29018608 -0.41666667 -0.55203072
v -3.29018608 0.41666667 -0.55203072
v -2.13843043 0.41666667 0.55805826
v -2.13843043 -0.41666667 0.55805826
v -3.91666666 0.12500000 -0.08333333
v -3.91666666 -0.12500000 -0.08333333
v -2.08333333 -0.12500000 1.75000000
v -2.08333333 0.12500000 1.75000000
v -1.59380260 0.41666667 1.12351942
v -1.59380260 -0.41666667 1.12351942
v -2.41370550 0.41666667 1.16666667
v -2.41370550 -0.41666667 1.16666667
v -1.61463594 0.41666667 1.33333333
v -1.61463594 -0.41666667 1.33333333
v -2.20093043 -0.41666667 1.00000000
v -2.20093043 0.41666667 1.00000000
v -3.37351941 0.41666667 0.33333334
v -3.37351941 -0.41666667 0.33333334
v -2.78722492 -0.41666667 0.66666667
v -2.78722492 0.41666667 0.66666667
v -2.01787217 -0.12500000 1.59375000
v -2.01787217 0.12500000 1.59375000
v -3.76041666 -0.12500000 -0.14879449
v -3.76041666 0.12500000 -0.14879449
v -3.36384304 -0.15625000 -0.70902101
v -1.45764565 -0.15625000 1.19717638
v -2.04493546 0.12500000 1.64062500
v -2.04493546 -0.12500000 1.64062500
v -3.80729166 -0.12500000 -0.12173120
v -3.80729166 0.12500000 -0.12173120
v -3.76460337 0.12500000 -0.13316949
v -3.76460337 -0.12500000 -0.13316949
v -2.03349717 0.12500000 1.59793671
v -2.03349717 -0.12500000 1.59793671
v -3.79166666 0.12500000 -0.11754449
v -3.79166666 -0.12500000 -0.11754449
v -2.04912217 -0.12500000 1.62500000
v -2.04912217 0.12500000 1.62500000
v -2.04493546 0.12500000 1.60937500
v -2.04493546 -0.12500000 1.60937500
v -3.77604166 -0.12500000 -0.12173120
v -3.77604166 0.12500000 -0.12173120
v -2.78722492 0.41666667 0.41370551
v -2.78722492 -0.41666667 0.41370551
v -2.78722492 -0.41666667 0.28722493
v -2.78722492 0.41666667 0.28722493
v -3.37351941 -0.41666667 0.20685276
v -3.37351941 0.41666667 0.20685276
v -2.20093043 0.41666667 0.87351942
v -2.20093043 -0.41666667 0.87351942
v -3.37351941 0.41666667 -0.29906956
v -3.37351941 -0.41666667 -0.29906956
v -1.57741101 0.00000000 2.00000000
v -4.16666666 0.00000000 -0.58925565
v -3.58333333 -0.14583334 -0.84517797
v -1.32148869 -0.14583334 1.41666667
v -3.91666666 0.00000000 -0.84517797
v -1.32148869 0.00000000 1.75000000
v -2.12055826 -0.41666667 1.33333333
v -2.12055826 0.41666667 1.33333333
v -2.08037217 -0.34375000 1.50000000
v -2.08037217 -0.19791667 1.50000000
v -2.08037217 0.34375000 1.50000000
v -2.08037217 0.19791667 1.50000000
v -3.66666666 -0.34375000 -0.08629449
v -3.66666666 -0.19791667 -0.08629449
v -3.66666666 0.34375000 -0.08629449
v -3.66666666 0.19791667 -0.08629449
v -1.57444985 -0.34375000 1.50000000
v -1.57444985 -0.19791667 1.50000000
v -1.57444985 0.34375000 1.50000000
v -1.57444985 0.19791667 1.50000000
v -3.66666666 -0.34375000 -0.59221681
v -3.66666666 -0.19791667 -0.59221681
v -3.66666666 0.34375000 -0.59221681
v -3.66666666 0.19791667 -0.59221681
v -2.50000000 -0.23437500 1.33333333
v -3.49999999 -0.23437500 0.33333334
v -3.49999999 0.23437500 0.33333334
v -2.50000000 0.23437500 1.33333333
v -4.16666666 -0.12500000 -0.58925565
v -4.16666666 0.12500000 -0.58925565
v -1.57741101 -0.12500000 2.00000000
v -1.57741101 0.12500000 2.00000000
v -2.50000000 0.03125000 1.33333333
v -3.49999999 0.03125000 0.33333334
v -3.66666666 0.12500000 -0.08629449
v -3.66666666 0.41666667 -0.08629449
v -3.66666666 -0.12500000 -0.08629449
v -3.66666666 -0.41666667 -0.08629449
v -2.08037217 0.12500000 1.50000000
v -2.08037217 0.41666667 1.50000000
v -2.08037217 -0.12500000 1.50000000
v -2.08037217 -0.41666667 1.50000000
v -3.66666666 0.12500000 -0.59221681
v -3.66666666 0.41666667 -0.59221681
v -3.66666666 -0.12500000 -0.59221681
v -3.66666666 -0.41666667 -0.59221681
v -1.57444985 0.12500000 1.50000000
v -1.57444985 0.41666667 1.50000000
v -1.57444985 -0.12500000 1.50000000
v -1.57444985 -0.41666667 1.50000000
v -2.16074434 0.41666667 1.16666667
v -2.16074434 -0.41666667 1.16666667
v -2.74703884 0.41666667 0.83333334
v -2.49407768 0.41666667 0.58037218
v -2.74703884 -0.41666667 0.83333334
v -2.49407768 -0.41666667 0.58037218
v -3.08037217 0.41666667 -0.00592232
v -3.08037217 -0.41666667 -0.00592232
v -1.32148869 0.12500000 1.75000000
v -1.32148869 -0.12500000 1.75000000
v -3.91666666 -0.12500000 -0.84517797
v -3.91666666 0.12500000 -0.84517797
f 2 15 1
f 290 262 16
f 1 16 12
f 12 16 11
f 213 198 13
f 238 213 13
f 238 13 243
f 8 239 232
f 7 232 123
f 14 284 283
f 7 14 6
f 6 14 5
f 5 14 4
f 322 265 15
f 4 15 3
f 3 15 2
f 12 28 1
f 1 28 17
f 1 17 2
f 2 17 18
f 2 18 3
f 3 18 19
f 3 19 4
f 4 19 20
f 4 20 5
f 5 20 21
f 5 21 6
f 6 21 22
f 6 22 7
f 7 22 23
f 7 23 8
f 8 23 24
f 8 24 9
f 9 24 25
f 9 25 10
f 10 25 26
f 10 26 11
f 11 26 27
f 11 27 12
f 12 27 28
f 15 262 290
f 262 30 16
f 28 30 17
f 29 289 262
f 17 29 18
f 18 29 19
f 19 29 20
f 31 321 265
f 20 31 21
f 21 31 22
f 22 31 23
f 32 274 273
f 297 274 32
f 231 32 240
f 26 244 237
f 27 237 214
f 198 30 214
f 27 30 28
f 283 304 34
f 122 124 283
f 273 298 36
f 121 126 273
f 216 48 235
f 235 37 246
f 241 230 51
f 299 272 51
f 51 272 271
f 50 40 41
f 50 41 42
f 42 43 50
f 50 319 266
f 49 43 44
f 49 44 45
f 45 46 49
f 292 261 49
f 52 46 47
f 52 47 48
f 197 52 216
f 48 64 37
f 37 64 53
f 37 53 38
f 38 53 54
f 38 54 39
f 39 54 55
f 39 55 40
f 40 55 56
f 40 56 41
f 41 56 57
f 41 57 42
f 42 57 58
f 42 58 43
f 43 58 59
f 43 59 44
f 44 59 60
f 44 60 45
f 45 60 61
f 45 61 46
f 46 61 62
f 46 62 47
f 47 62 63
f 47 63 48
f 48 63 64
f 52 261 292
f 261 66 49
f 68 245 236
f 68 236 215
f 215 197 68
f 65 64 63
f 65 63 62
f 65 291 261
f 66 62 61
f 66 61 60
f 60 59 66
f 320 266 66
f 67 59 58
f 67 58 57
f 57 56 67
f 67 278 277
f 129 56 229
f 242 229 55
f 271 300 70
f 120 128 271
f 277 310 72
f 119 130 277
f 69 50 73
f 73 153 132
f 153 50 264
f 74 67 72
f 67 266 320
f 266 49 66
f 34 75 14
f 233 181 76
f 263 154 76
f 31 76 35
f 14 265 322
f 265 29 15
f 131 103 181
f 103 175 108
f 160 94 113
f 161 79 78
f 95 259 208
f 228 251 115
f 187 99 200
f 106 187 158
f 137 36 150
f 85 223 220
f 151 33 135
f 143 146 68
f 88 90 143
f 139 149 71
f 87 91 139
f 92 135 86
f 13 198 32
f 198 214 32
f 68 197 51
f 197 216 51
f 185 166 93
f 281 35 306
f 193 182 75
f 75 182 131
f 182 104 131
f 69 160 221
f 111 98 166
f 101 110 171
f 171 192 83
f 81 172 171
f 174 173 82
f 79 169 78
f 175 190 108
f 234 74 179
f 311 268 113
f 152 92 133
f 137 150 91
f 159 222 114
f 133 92 86
f 51 144 293
f 87 137 91
f 141 148 90
f 88 141 90
f 88 142 141
f 136 287 13
f 133 86 134
f 68 140 285
f 87 138 137
f 139 91 149
f 316 85 227
f 92 151 135
f 70 152 133
f 93 159 114
f 80 162 77
f 165 79 186
f 206 79 165
f 228 78 251
f 275 296 124
f 281 306 126
f 36 226 150
f 112 206 165
f 69 163 160
f 98 164 159
f 179 74 196
f 108 99 167
f 170 80 77
f 199 188 78
f 78 188 157
f 73 132 180
f 132 101 102
f 180 132 102
f 173 172 81
f 176 175 103
f 131 104 103
f 104 177 176
f 178 177 104
f 251 78 254
f 168 75 183
f 184 167 106
f 96 318 207
f 189 178 107
f 107 168 100
f 181 108 194
f 175 83 190
f 195 180 109
f 191 174 82
f 171 110 192
f 205 166 80
f 111 166 205
f 74 201 196
f 202 195 112
f 112 165 97
f 279 308 128
f 152 70 219
f 149 85 220
f 269 302 130
f 225 151 115
f 314 78 228
f 77 227 252
f 252 227 116
f 253 252 117
f 260 96 207
f 275 33 296
f 118 317 208
f 119 269 130
f 270 269 119
f 120 279 128
f 280 279 120
f 121 281 126
f 282 281 121
f 122 275 124
f 276 275 122
f 295 276 123
f 303 284 14
f 283 124 304
f 259 124 208
f 305 282 125
f 23 125 231
f 273 126 298
f 126 260 207
f 307 280 127
f 230 40 127
f 219 70 268
f 221 160 113
f 301 270 129
f 309 278 67
f 159 72 222
f 312 114 267
f 75 131 154
f 131 181 233
f 132 179 101
f 132 234 179
f 288 134 51
f 133 134 288
f 51 145 144
f 86 89 134
f 86 135 136
f 136 135 287
f 86 136 89
f 89 147 142
f 138 32 286
f 138 286 137
f 141 32 148
f 90 138 87
f 140 87 139
f 285 140 139
f 140 90 87
f 143 90 146
f 142 13 294
f 142 294 141
f 147 13 142
f 89 142 88
f 144 88 143
f 293 144 143
f 144 89 88
f 145 89 144
f 134 89 145
f 134 145 51
f 68 146 140
f 146 90 140
f 136 13 147
f 136 147 89
f 90 148 138
f 148 32 138
f 149 220 71
f 227 85 315
f 150 116 91
f 226 116 150
f 33 151 225
f 151 92 115
f 228 92 313
f 152 219 84
f 153 264 74
f 73 50 153
f 14 75 154
f 14 154 263
f 209 184 96
f 76 155 35
f 156 75 34
f 183 75 210
f 157 105 95
f 188 105 157
f 187 77 158
f 106 158 96
f 164 72 159
f 98 159 93
f 160 97 94
f 163 97 160
f 224 94 257
f 84 314 228
f 77 316 227
f 258 223 85
f 217 202 97
f 73 163 69
f 74 72 164
f 74 218 201
f 97 165 94
f 165 186 94
f 80 166 185
f 166 98 93
f 76 167 184
f 167 99 106
f 100 168 105
f 168 183 105
f 204 189 100
f 82 169 79
f 83 80 170
f 83 203 190
f 172 101 171
f 81 171 83
f 102 101 172
f 102 172 173
f 102 173 174
f 173 81 82
f 109 102 174
f 109 174 191
f 81 83 175
f 81 175 176
f 177 81 176
f 104 176 103
f 82 81 177
f 82 177 178
f 82 178 189
f 178 104 107
f 101 179 110
f 179 196 110
f 73 180 195
f 180 102 109
f 181 194 76
f 103 108 181
f 107 104 182
f 107 182 193
f 105 183 95
f 183 210 95
f 76 184 209
f 184 106 96
f 80 185 162
f 185 93 162
f 94 186 161
f 186 79 161
f 187 200 77
f 106 99 187
f 100 105 188
f 100 188 199
f 82 189 204
f 189 107 100
f 190 99 108
f 203 99 190
f 206 109 211
f 191 82 79
f 192 80 83
f 205 80 212
f 107 193 168
f 193 75 168
f 194 167 76
f 108 167 194
f 73 195 202
f 195 109 112
f 196 111 110
f 201 111 196
f 65 52 197
f 65 197 215
f 16 30 198
f 16 198 213
f 169 100 199
f 169 199 78
f 200 170 77
f 99 170 200
f 201 98 111
f 218 98 201
f 73 202 217
f 202 112 97
f 203 170 99
f 83 170 203
f 82 204 169
f 204 100 169
f 111 205 110
f 205 212 110
f 206 211 79
f 112 109 206
f 255 226 36
f 318 117 207
f 317 95 208
f 225 118 256
f 76 209 155
f 209 96 155
f 95 210 156
f 210 75 156
f 211 191 79
f 109 191 211
f 110 212 192
f 212 80 192
f 11 16 213
f 11 213 238
f 237 32 214
f 27 214 30
f 215 64 65
f 236 64 215
f 216 235 51
f 52 48 216
f 73 217 163
f 217 97 163
f 218 164 98
f 74 164 218
f 84 219 224
f 219 268 311
f 220 267 71
f 220 312 267
f 279 69 308
f 113 128 221
f 114 222 130
f 277 130 310
f 93 114 223
f 93 223 258
f 224 257 84
f 113 94 224
f 225 256 33
f 115 118 225
f 117 116 226
f 117 226 255
f 116 227 91
f 227 315 91
f 228 313 84
f 115 92 228
f 68 229 242
f 229 56 55
f 39 40 230
f 39 230 241
f 23 231 24
f 231 240 24
f 239 13 232
f 8 232 7
f 154 131 233
f 154 233 76
f 153 74 234
f 153 234 132
f 235 246 51
f 48 37 235
f 236 53 64
f 245 53 236
f 244 32 237
f 26 237 27
f 11 238 10
f 238 243 10
f 243 13 250
f 9 239 8
f 24 240 25
f 25 249 244
f 241 38 39
f 247 246 38
f 248 245 68
f 242 55 54
f 10 243 9
f 243 250 9
f 249 32 244
f 25 244 26
f 54 53 245
f 54 245 248
f 51 246 247
f 246 37 38
f 51 247 241
f 247 38 241
f 248 242 54
f 68 242 248
f 240 32 249
f 240 249 25
f 9 250 239
f 250 13 239
f 115 251 118
f 251 254 118
f 77 252 253
f 252 116 117
f 158 77 253
f 158 253 117
f 254 157 118
f 78 157 254
f 207 117 255
f 207 255 36
f 256 208 33
f 118 208 256
f 257 161 84
f 94 161 257
f 162 93 258
f 162 258 85
f 259 156 124
f 95 156 259
f 155 96 260
f 155 260 126
f 291 66 261
f 65 261 52
f 289 30 262
f 29 262 15
f 14 263 31
f 263 76 31
f 74 264 67
f 264 50 67
f 321 29 265
f 31 265 14
f 319 49 266
f 50 266 67
f 269 71 302
f 114 130 267
f 113 268 128
f 271 128 300
f 68 71 269
f 68 269 270
f 68 270 301
f 270 119 129
f 272 120 271
f 51 271 70
f 127 120 272
f 127 272 299
f 274 121 273
f 32 273 36
f 125 121 274
f 125 274 297
f 13 33 275
f 13 275 276
f 13 276 295
f 276 122 123
f 278 119 277
f 67 277 72
f 129 119 278
f 129 278 309
f 50 69 279
f 50 279 280
f 50 280 307
f 280 120 127
f 31 35 281
f 31 281 282
f 31 282 305
f 282 121 125
f 284 122 283
f 14 283 34
f 123 122 284
f 123 284 303
f 68 285 71
f 285 139 71
f 137 286 36
f 286 32 36
f 287 33 13
f 135 33 287
f 70 133 288
f 70 288 51
f 17 30 289
f 17 289 29
f 1 15 290
f 1 290 16
f 291 62 66
f 65 62 291
f 292 46 52
f 49 46 292
f 51 293 68
f 293 143 68
f 141 294 32
f 294 13 32
f 232 13 295
f 232 295 123
f 208 124 296
f 208 296 33
f 231 125 297
f 231 297 32
f 298 207 36
f 126 207 298
f 299 230 127
f 51 230 299
f 268 70 300
f 268 300 128
f 301 229 68
f 129 229 301
f 267 130 302
f 267 302 71
f 7 123 303
f 7 303 14
f 156 34 304
f 156 304 124
f 23 31 305
f 23 305 125
f 306 155 126
f 35 155 306
f 307 40 50
f 127 40 307
f 221 128 308
f 221 308 69
f 309 56 129
f 67 56 309
f 222 72 310
f 222 310 130
f 224 219 311
f 224 311 113
f 223 114 312
f 223 312 220
f 313 152 84
f 92 152 313
f 161 78 314
f 161 314 84
f 91 315 149
f 315 85 149
f 316 162 85
f 77 162 316
f 157 95 317
f 157 317 118
f 318 158 117
f 96 158 318
f 319 43 49
f 50 43 319
f 320 59 67
f 66 59 320
f 20 29 321
f 20 321 31
f 4 14 322
f 4 322 15

