
o 4.obj
v 3.97916666 0.12500000 -0.46425565
v 3.97079325 0.12500000 -0.43300565
v 3.94791666 0.12500000 -0.41012906
v 3.91666666 0.12500000 -0.40175565
v 3.88541666 0.12500000 -0.41012906
v 3.86254007 0.12500000 -0.43300565
v 3.85416666 0.12500000 -0.46425565
v 3.86254007 0.12500000 -0.49550565
v 3.88541666 0.12500000 -0.51838224
v 3.91666666 0.12500000 -0.52675565
v 3.94791666 0.12500000 -0.51838224
v 3.97079325 0.12500000 -0.49550565
v 3.66666666 0.12500000 -0.84517797
v 3.66666666 0.12500000 0.16666667
v 4.16666666 0.12500000 -0.33333333
v 4.16666666 0.12500000 -0.84517797
v 3.97916666 -0.12500000 -0.46425565
v 3.97079325 -0.12500000 -0.43300565
v 3.94791666 -0.12500000 -0.41012906
v 3.91666666 -0.12500000 -0.40175565
v 3.88541666 -0.12500000 -0.41012906
v 3.86254007 -0.12500000 -0.43300565
v 3.85416666 -0.12500000 -0.46425565
v 3.86254007 -0.12500000 -0.49550565
v 3.88541666 -0.12500000 -0.51838224
v 3.91666666 -0.12500000 -0.52675565
v 3.94791666 -0.12500000 -0.51838224
v 3.97079325 -0.12500000 -0.49550565
v 4.16666666 -0.12500000 -0.84517797
v 4.16666666 -0.12500000 -0.33333333
v 3.66666666 -0.12500000 0.16666667
v 3.66666666 -0.12500000 -0.84517797
v 3.66666666 0.41666667 -0.84517797
v 3.66666666 0.41666667 0.16666667
v 3.66666666 -0.41666667 0.16666667
v 3.66666666 -0.41666667 -0.84517797
v 1.76491101 0.12500000 1.75000000
v 1.75653760 0.12500000 1.78125000
v 1.73366101 0.12500000 1.80412659
v 1.70241101 0.12500000 1.81250000
v 1.67116101 0.12500000 1.80412659
v 1.64828442 0.12500000 1.78125000
v 1.63991101 0.12500000 1.75000000
v 1.64828442 0.12500000 1.71875000
v 1.67116101 0.12500000 1.69587341
v 1.70241101 0.12500000 1.68750000
v 1.73366101 0.12500000 1.69587341
v 1.75653760 0.12500000 1.71875000
v 1.32148869 0.12500000 1.50000000
v 1.32148869 0.12500000 2.00000000
v 1.83333333 0.12500000 2.00000000
v 2.33333333 0.12500000 1.50000000
v 1.76491101 -0.12500000 1.75000000
v 1.75653760 -0.12500000 1.78125000
v 1.73366101 -0.12500000 1.80412659
v 1.70241101 -0.12500000 1.81250000
v 1.67116101 -0.12500000 1.80412659
v 1.64828442 -0.12500000 1.78125000
v 1.63991101 -0.12500000 1.75000000
v 1.64828442 -0.12500000 1.71875000
v 1.67116101 -0.12500000 1.69587341
v 1.70241101 -0.12500000 1.68750000
v 1.73366101 -0.12500000 1.69587341
v 1.75653760 -0.12500000 1.71875000
v 1.83333333 -0.12500000 2.00000000
v 1.32148869 -0.12500000 2.00000000
v 1.32148869 -0.12500000 1.50000000
v 2.33333333 -0.12500000 1.50000000
v 2.33333333 0.41666667 1.50000000
v 1.32148869 0.41666667 1.50000000
v 1.32148869 -0.41666667 1.50000000
v 2.33333333 -0.41666667 1.50000000
v 1.32148869 0.41666667 1.33333334
v 1.32148869 -0.41666667 1.33333334
v 3.50000000 0.41666667 -0.84517797
v 3.50000000 -0.41666667 -0.84517797
v 2.49407768 -0.41666667 0.32741102
v 2.49407768 0.41666667 0.32741102
v 2.41074435 0.41666667 0.32741102
v 2.41074435 -0.41666667 0.32741102
v 2.41074435 0.00000000 0.24407769
v 2.41074435 -0.41666667 0.24407769
v 2.41074435 0.41666667 0.24407769
v 2.49407768 0.41666667 0.83333334
v 2.49407768 -0.41666667 0.83333334
v 3.00000000 -0.27083334 0.83333334
v 3.00000000 0.27083334 0.83333334
v 3.00000000 0.00000000 0.83333334
v 3.00000000 0.12500000 0.83333334
v 3.00000000 -0.12500000 0.83333334
v 3.00000000 0.41666667 0.83333334
v 3.00000000 -0.41666667 0.83333334
v 1.90778318 -0.41666667 0.91370551
v 1.90778318 0.41666667 0.91370551
v 3.08037217 0.41666667 -0.25888348
v 3.08037217 -0.41666667 -0.25888348
v 1.86611652 0.41666667 0.91370551
v 1.86611652 -0.41666667 0.91370551
v 2.95537217 0.41666667 -0.25888348
v 2.95537217 -0.41666667 -0.25888348
v 1.86611652 0.20833334 0.78870551
v 1.86611652 -0.20833334 0.78870551
v 2.95537217 0.20833334 -0.30055014
v 2.95537217 -0.20833334 -0.30055014
v 2.99703884 -0.41666667 -0.25888348
v 2.99703884 0.41666667 -0.25888348
v 2.95537217 -0.41666667 -0.30055014
v 2.95537217 0.41666667 -0.30055014
v 1.86611652 -0.41666667 0.78870551
v 1.86611652 0.41666667 0.78870551
v 1.86611652 0.41666667 0.83037218
v 1.86611652 -0.41666667 0.83037218
v 1.90778318 0.41666667 1.16666667
v 1.90778318 -0.41666667 1.16666667
v 3.08037217 -0.41666667 0.50000000
v 3.08037217 0.41666667 0.50000000
v 3.08037217 0.41666667 0.24703884
v 3.08037217 -0.41666667 0.24703884
v 1.82741101 -0.27083334 1.50000000
v 1.82741101 0.27083334 1.50000000
v 3.66666666 -0.27083334 -0.33925565
v 3.66666666 0.27083334 -0.33925565
v 3.66666666 0.12500000 -0.33925565
v 3.66666666 0.41666667 -0.33925565
v 3.66666666 -0.12500000 -0.33925565
v 3.66666666 -0.41666667 -0.33925565
v 1.82741101 0.12500000 1.50000000
v 1.82741101 0.41666667 1.50000000
v 1.82741101 -0.12500000 1.50000000
v 1.82741101 -0.41666667 1.50000000
v 3.22768609 -0.10416667 -0.57286406
v 1.59380260 -0.10416667 1.06101943
v 2.66666666 -0.34375000 1.16666667
v 2.66666666 -0.19791667 1.16666667
v 3.33333333 -0.34375000 0.50000000
v 3.33333333 -0.19791667 0.50000000
v 3.33333333 0.34375000 0.50000000
v 3.33333333 0.19791667 0.50000000
v 2.66666666 0.34375000 1.16666667
v 2.66666666 0.19791667 1.16666667
v 2.66666666 -0.06250000 1.16666667
v 2.66666666 0.06250000 1.16666667
v 3.33333333 -0.06250000 0.50000000
v 3.33333333 0.06250000 0.50000000
v 3.33333333 0.12500000 0.50000000
v 3.33333333 -0.12500000 0.50000000
v 2.66666666 0.12500000 1.16666667
v 2.66666666 -0.12500000 1.16666667
v 2.66666666 0.41666667 1.16666667
v 3.33333333 0.41666667 0.50000000
v 3.33333333 -0.41666667 0.50000000
v 2.66666666 -0.41666667 1.16666667
v 1.32148869 0.00000000 1.33333334
v 3.50000000 0.00000000 -0.84517797
v 3.37351941 -0.41666667 -0.55203072
v 3.37351941 0.41666667 -0.55203072
v 2.78722492 -0.41666667 0.03426377
v 2.78722492 0.41666667 0.03426377
v 1.61463594 -0.41666667 1.20685275
v 1.61463594 0.41666667 1.20685275
v 2.20093043 0.41666667 0.62055826
v 2.20093043 -0.41666667 0.62055826
v 1.59380260 0.41666667 1.20685275
v 1.59380260 -0.41666667 1.20685275
v 2.13843043 -0.41666667 0.62055826
v 2.13843043 0.41666667 0.62055826
v 3.22768609 0.41666667 -0.55203072
v 3.22768609 -0.41666667 -0.55203072
v 2.68305826 -0.41666667 0.03426377
v 2.68305826 0.41666667 0.03426377
v 2.13843043 0.31250000 0.51639160
v 2.13843043 0.10416667 0.51639160
v 2.13843043 -0.10416667 0.51639160
v 2.13843043 -0.31250000 0.51639160
v 2.68305826 0.31250000 -0.02823623
v 2.68305826 0.10416667 -0.02823623
v 2.68305826 -0.10416667 -0.02823623
v 2.68305826 -0.31250000 -0.02823623
v 1.59380260 0.31250000 1.06101943
v 1.59380260 -0.31250000 1.06101943
v 3.22768609 0.31250000 -0.57286406
v 3.22768609 -0.31250000 -0.57286406
v 3.24851942 -0.41666667 -0.55203072
v 3.24851942 0.41666667 -0.55203072
v 2.15926376 0.41666667 0.62055826
v 2.15926376 -0.41666667 0.62055826
v 2.74555826 0.41666667 0.03426377
v 2.74555826 -0.41666667 0.03426377
v 2.68305826 -0.41666667 -0.02823623
v 2.68305826 0.41666667 -0.02823623
v 2.13843043 -0.41666667 0.51639160
v 2.13843043 0.41666667 0.51639160
v 3.22768609 -0.41666667 -0.57286406
v 3.22768609 0.41666667 -0.57286406
v 1.59380260 -0.41666667 1.06101943
v 1.59380260 0.41666667 1.06101943
v 3.91666666 0.00000000 -0.08333333
v 2.08333333 0.00000000 1.75000000
v 2.72472492 -0.41666667 0.03426377
v 2.72472492 0.41666667 0.03426377
v 1.59380260 0.41666667 1.08185276
v 1.59380260 -0.41666667 1.08185276
v 2.68305826 0.41666667 -0.00740290
v 2.68305826 -0.41666667 -0.00740290
v 2.13843043 0.41666667 0.57889160
v 2.13843043 -0.41666667 0.57889160
v 3.37351941 -0.41666667 -0.04610840
v 3.37351941 0.41666667 -0.04610840
v 3.29018608 0.41666667 -0.55203072
v 3.29018608 -0.41666667 -0.55203072
v 2.13843043 -0.41666667 0.55805826
v 2.13843043 0.41666667 0.55805826
v 2.08333333 0.12500000 1.75000000
v 2.08333333 -0.12500000 1.75000000
v 3.91666666 -0.12500000 -0.08333333
v 3.91666666 0.12500000 -0.08333333
v 1.59380260 -0.41666667 1.12351942
v 1.59380260 0.41666667 1.12351942
v 2.41370550 -0.41666667 1.16666667
v 2.41370550 0.41666667 1.16666667
v 1.61463594 0.41666667 1.33333333
v 1.61463594 -0.41666667 1.33333333
v 2.20093043 0.41666667 1.00000000
v 2.20093043 -0.41666667 1.00000000
v 3.37351941 -0.41666667 0.33333334
v 3.37351941 0.41666667 0.33333334
v 2.78722492 0.41666667 0.66666667
v 2.78722492 -0.41666667 0.66666667
v 2.01787217 -0.12500000 1.59375000
v 2.01787217 0.12500000 1.59375000
v 3.76041666 -0.12500000 -0.14879449
v 3.76041666 0.12500000 -0.14879449
v 3.36384304 0.15625000 -0.70902101
v 1.45764565 0.15625000 1.19717638
v 3.80729166 0.12500000 -0.12173120
v 3.80729166 -0.12500000 -0.12173120
v 2.04493546 -0.12500000 1.64062500
v 2.04493546 0.12500000 1.64062500
v 3.76460337 0.12500000 -0.13316949
v 3.76460337 -0.12500000 -0.13316949
v 2.03349717 0.12500000 1.59793671
v 2.03349717 -0.12500000 1.59793671
v 2.04912217 0.12500000 1.62500000
v 2.04912217 -0.12500000 1.62500000
v 3.79166666 -0.12500000 -0.11754449
v 3.79166666 0.12500000 -0.11754449
v 3.77604166 0.12500000 -0.12173120
v 3.77604166 -0.12500000 -0.12173120
v 2.04493546 -0.12500000 1.60937500
v 2.04493546 0.12500000 1.60937500
v 2.78722492 -0.41666667 0.41370551
v 2.78722492 0.41666667 0.41370551
v 2.78722492 0.41666667 0.28722493
v 2.78722492 -0.41666667 0.28722493
v 3.37351941 0.41666667 0.20685276
v 3.37351941 -0.41666667 0.20685276
v 2.20093043 -0.41666667 0.87351942
v 2.20093043 0.41666667 0.87351942
v 3.37351941 0.41666667 -0.29906956
v 3.37351941 -0.41666667 -0.29906956
v 1.57741101 0.00000000 2.00000000
v 4.16666666 0.00000000 -0.58925565
v 3.58333333 -0.14583334 -0.84517797
v 1.32148869 -0.14583334 1.41666667
v 3.91666666 0.00000000 -0.84517797
v 1.32148869 0.00000000 1.75000000
v 2.12055826 0.41666667 1.33333333
v 2.12055826 -0.41666667 1.33333333
v 2.08037217 -0.34375000 1.50000000
v 2.08037217 -0.19791667 1.50000000
v 2.08037217 0.34375000 1.50000000
v 2.08037217 0.19791667 1.50000000
v 3.66666666 -0.34375000 -0.08629449
v 3.66666666 -0.19791667 -0.08629449
v 3.66666666 0.34375000 -0.08629449
v 3.66666666 0.19791667 -0.08629449
v 1.57444985 -0.34375000 1.50000000
v 1.57444985 -0.19791667 1.50000000
v 1.57444985 0.34375000 1.50000000
v 1.57444985 0.19791667 1.50000000
v 3.66666666 -0.34375000 -0.59221681
v 3.66666666 -0.19791667 -0.59221681
v 3.66666666 0.34375000 -0.59221681
v 3.66666666 0.19791667 -0.59221681
v 2.50000000 0.23437500 1.33333333
v 3.49999999 0.23437500 0.33333334
v 3.49999999 -0.23437500 0.33333334
v 2.50000000 -0.23437500 1.33333333
v 4.16666666 0.12500000 -0.58925565
v 4.16666666 -0.12500000 -0.58925565
v 1.57741101 0.12500000 2.00000000
v 1.57741101 -0.12500000 2.00000000
v 3.49999999 0.03125000 0.33333334
v 2.50000000 0.03125000 1.33333333
v 3.66666666 0.12500000 -0.08629449
v 3.66666666 0.41666667 -0.08629449
v 3.66666666 -0.12500000 -0.08629449
v 3.66666666 -0.41666667 -0.08629449
v 2.08037217 0.12500000 1.50000000
v 2.08037217 0.41666667 1.50000000
v 2.08037217 -0.12500000 1.50000000
v 2.08037217 -0.41666667 1.50000000
v 3.66666666 0.12500000 -0.59221681
v 3.66666666 0.41666667 -0.59221681
v 3.66666666 -0.12500000 -0.59221681
v 3.66666666 -0.41666667 -0.59221681
v 1.57444985 0.12500000 1.50000000
v 1.57444985 0.41666667 1.50000000
v 1.57444985 -0.12500000 1.50000000
v 1.57444985 -0.41666667 1.50000000
v 2.16074434 -0.41666667 1.16666667
v 2.16074434 0.41666667 1.16666667
v 2.74703884 -0.41666667 0.83333334
v 2.49407768 -0.41666667 0.58037218
v 2.74703884 0.41666667 0.83333334
v 2.49407768 0.41666667 0.58037218
v 3.08037217 0.41666667 -0.00592232
v 3.08037217 -0.41666667 -0.00592232
v 1.32148869 -0.12500000 1.75000000
v 1.32148869 0.12500000 1.75000000
v 3.91666666 0.12500000 -0.84517797
v 3.91666666 -0.12500000 -0.84517797
f 2 15 1
f 16 289 262
f 1 16 12
f 12 16 11
f 11 16 10
f 13 321 265
f 10 13 9
f 9 13 8
f 8 13 7
f 14 276 275
f 295 276 14
f 232 14 239
f 4 246 235
f 3 235 216
f 197 15 216
f 3 15 2
f 12 28 1
f 1 28 17
f 1 17 2
f 2 17 18
f 2 18 3
f 3 18 19
f 3 19 4
f 4 19 20
f 4 20 5
f 5 20 21
f 5 21 6
f 6 21 22
f 6 22 7
f 7 22 23
f 7 23 8
f 8 23 24
f 8 24 9
f 9 24 25
f 9 25 10
f 10 25 26
f 10 26 11
f 11 26 27
f 11 27 12
f 12 27 28
f 29 262 290
f 262 15 30
f 28 29 17
f 290 262 30
f 17 30 18
f 18 30 19
f 215 197 31
f 236 215 31
f 236 31 245
f 22 240 231
f 23 231 125
f 32 282 281
f 23 32 24
f 24 32 25
f 25 32 26
f 322 265 29
f 26 29 27
f 27 29 28
f 275 296 34
f 122 124 275
f 281 306 36
f 121 126 281
f 52 243 238
f 52 238 213
f 213 198 52
f 51 38 39
f 51 39 40
f 51 291 261
f 50 40 41
f 50 41 42
f 42 43 50
f 320 266 50
f 49 43 44
f 49 44 45
f 45 46 49
f 49 280 279
f 127 46 230
f 241 230 47
f 48 64 37
f 37 64 53
f 37 53 38
f 38 53 54
f 38 54 39
f 39 54 55
f 39 55 40
f 40 55 56
f 40 56 41
f 41 56 57
f 41 57 42
f 42 57 58
f 42 58 43
f 43 58 59
f 43 59 44
f 44 59 60
f 44 60 45
f 45 60 61
f 45 61 46
f 46 61 62
f 46 62 47
f 47 62 63
f 47 63 48
f 48 63 64
f 65 261 292
f 261 50 66
f 214 54 237
f 237 53 244
f 242 229 68
f 301 270 68
f 68 270 269
f 67 62 61
f 67 61 60
f 60 59 67
f 67 319 266
f 66 59 58
f 66 58 57
f 57 56 66
f 292 261 66
f 65 56 55
f 65 55 54
f 198 65 214
f 279 308 70
f 120 128 279
f 269 302 72
f 119 130 269
f 70 73 49
f 74 153 132
f 264 153 74
f 67 74 71
f 49 266 320
f 266 66 50
f 33 13 75
f 233 181 75
f 154 13 263
f 76 32 36
f 32 265 322
f 265 16 29
f 131 103 181
f 103 175 108
f 187 99 200
f 106 187 158
f 150 137 34
f 84 223 220
f 159 93 114
f 162 80 77
f 96 260 207
f 228 251 115
f 91 87 137
f 14 144 293
f 143 146 31
f 88 90 143
f 135 151 35
f 86 92 135
f 52 198 68
f 198 214 68
f 31 197 14
f 197 216 14
f 193 182 76
f 76 182 131
f 185 166 94
f 283 33 304
f 111 97 166
f 101 110 171
f 182 104 131
f 71 159 222
f 171 192 83
f 81 172 171
f 174 173 82
f 80 169 77
f 175 190 108
f 234 73 179
f 91 137 150
f 160 221 113
f 311 268 114
f 133 152 92
f 86 133 92
f 141 148 90
f 69 139 149
f 139 87 91
f 88 141 90
f 88 142 141
f 285 52 140
f 137 87 138
f 31 136 287
f 86 134 133
f 149 139 91
f 316 84 227
f 135 92 151
f 133 72 152
f 165 80 186
f 206 80 165
f 94 160 113
f 79 161 78
f 283 304 124
f 34 226 150
f 228 77 251
f 273 298 126
f 97 163 160
f 179 73 196
f 112 206 165
f 71 164 159
f 108 99 167
f 170 79 78
f 199 188 77
f 77 188 157
f 74 132 180
f 132 101 102
f 180 132 102
f 173 172 81
f 176 175 103
f 131 104 103
f 104 177 176
f 178 177 104
f 251 77 254
f 168 76 183
f 184 167 106
f 95 317 208
f 189 178 107
f 107 168 100
f 181 108 194
f 175 83 190
f 195 180 109
f 191 174 82
f 171 110 192
f 205 166 79
f 111 166 205
f 73 201 196
f 202 195 112
f 112 165 98
f 149 84 220
f 271 300 128
f 277 310 130
f 152 72 219
f 225 151 115
f 314 77 228
f 78 227 252
f 252 227 116
f 253 252 117
f 259 95 208
f 273 35 298
f 118 318 207
f 119 277 130
f 278 277 119
f 120 271 128
f 272 271 120
f 121 273 126
f 274 273 121
f 122 283 124
f 284 283 122
f 303 284 123
f 7 123 232
f 275 124 296
f 124 259 208
f 297 274 125
f 305 282 32
f 281 126 306
f 260 126 207
f 299 272 127
f 307 280 49
f 160 70 221
f 312 113 267
f 309 278 129
f 229 62 129
f 219 72 268
f 222 159 114
f 76 131 154
f 131 181 233
f 132 179 101
f 132 234 179
f 134 68 288
f 134 288 133
f 141 68 148
f 90 134 86
f 136 86 135
f 287 136 135
f 136 90 86
f 143 90 146
f 286 138 14
f 137 138 286
f 14 145 144
f 87 89 138
f 139 140 87
f 139 285 140
f 87 140 89
f 89 147 142
f 142 52 294
f 142 294 141
f 147 52 142
f 89 142 88
f 144 88 143
f 293 144 143
f 144 89 88
f 145 89 144
f 138 89 145
f 138 145 14
f 31 146 136
f 146 90 136
f 140 52 147
f 140 147 89
f 90 148 134
f 148 68 134
f 149 220 69
f 227 84 315
f 150 116 91
f 226 116 150
f 35 151 225
f 151 92 115
f 228 92 313
f 152 219 85
f 49 73 153
f 49 153 264
f 154 263 76
f 75 13 154
f 155 76 36
f 183 76 210
f 209 184 95
f 75 156 33
f 157 105 96
f 188 105 157
f 187 78 158
f 106 158 95
f 159 98 93
f 164 98 159
f 163 70 160
f 97 160 94
f 78 316 227
f 258 223 84
f 224 93 257
f 85 314 228
f 73 70 163
f 73 218 201
f 217 202 98
f 74 164 71
f 98 165 93
f 165 186 93
f 79 166 185
f 166 97 94
f 75 167 184
f 167 99 106
f 100 168 105
f 168 183 105
f 204 189 100
f 82 169 80
f 83 79 170
f 83 203 190
f 172 101 171
f 81 171 83
f 102 101 172
f 102 172 173
f 102 173 174
f 173 81 82
f 109 102 174
f 109 174 191
f 81 83 175
f 81 175 176
f 177 81 176
f 104 176 103
f 82 81 177
f 82 177 178
f 82 178 189
f 178 104 107
f 101 179 110
f 179 196 110
f 74 180 195
f 180 102 109
f 181 194 75
f 103 108 181
f 107 104 182
f 107 182 193
f 105 183 96
f 183 210 96
f 75 184 209
f 184 106 95
f 79 185 161
f 185 94 161
f 93 186 162
f 186 80 162
f 187 200 78
f 106 99 187
f 100 105 188
f 100 188 199
f 82 189 204
f 189 107 100
f 190 99 108
f 203 99 190
f 206 109 211
f 191 82 80
f 192 79 83
f 205 79 212
f 107 193 168
f 193 76 168
f 194 167 75
f 108 167 194
f 74 195 202
f 195 109 112
f 196 111 110
f 201 111 196
f 30 15 197
f 30 197 215
f 51 65 198
f 51 198 213
f 169 100 199
f 169 199 77
f 200 170 78
f 99 170 200
f 201 97 111
f 218 97 201
f 74 202 217
f 202 112 98
f 203 170 99
f 83 170 203
f 82 204 169
f 204 100 169
f 111 205 110
f 205 212 110
f 206 211 80
f 112 109 206
f 318 96 207
f 225 118 256
f 255 226 34
f 317 117 208
f 75 209 156
f 209 95 156
f 96 210 155
f 210 76 155
f 211 191 80
f 109 191 211
f 110 212 192
f 212 79 192
f 213 38 51
f 238 38 213
f 214 237 68
f 65 54 214
f 19 30 215
f 19 215 236
f 235 14 216
f 3 216 15
f 74 217 164
f 217 98 164
f 218 163 97
f 73 163 218
f 85 219 224
f 219 268 311
f 220 267 69
f 220 312 267
f 113 221 128
f 279 128 308
f 277 71 310
f 114 130 222
f 94 113 223
f 94 223 258
f 224 257 85
f 114 93 224
f 225 256 35
f 115 118 225
f 117 116 226
f 117 226 255
f 116 227 91
f 227 315 91
f 228 313 85
f 115 92 228
f 63 62 229
f 63 229 242
f 52 230 241
f 230 46 47
f 240 31 231
f 22 231 23
f 7 232 6
f 232 239 6
f 154 131 233
f 154 233 75
f 153 73 234
f 153 234 132
f 246 14 235
f 4 235 3
f 19 236 20
f 236 245 20
f 237 244 68
f 54 53 237
f 238 37 38
f 243 37 238
f 6 239 5
f 5 247 246
f 245 31 248
f 21 240 22
f 250 243 52
f 241 47 48
f 242 64 63
f 249 244 64
f 48 37 243
f 48 243 250
f 68 244 249
f 244 53 64
f 20 245 21
f 245 248 21
f 247 14 246
f 5 246 4
f 239 14 247
f 239 247 5
f 21 248 240
f 248 31 240
f 68 249 242
f 249 64 242
f 250 241 48
f 52 241 250
f 115 251 118
f 251 254 118
f 78 252 253
f 252 116 117
f 158 78 253
f 158 253 117
f 254 157 118
f 77 157 254
f 208 117 255
f 208 255 34
f 256 207 35
f 118 207 256
f 257 162 85
f 93 162 257
f 161 94 258
f 161 258 84
f 156 95 259
f 156 259 124
f 260 155 126
f 96 155 260
f 291 50 261
f 51 261 65
f 289 15 262
f 16 262 29
f 76 263 32
f 263 13 32
f 49 264 67
f 264 74 67
f 321 16 265
f 13 265 32
f 319 66 266
f 67 266 49
f 271 69 300
f 113 128 267
f 114 268 130
f 269 130 302
f 270 119 269
f 68 269 72
f 129 119 270
f 129 270 301
f 52 69 271
f 52 271 272
f 52 272 299
f 272 120 127
f 31 35 273
f 31 273 274
f 31 274 297
f 274 121 125
f 276 122 275
f 14 275 34
f 123 122 276
f 123 276 295
f 67 71 277
f 67 277 278
f 67 278 309
f 278 119 129
f 280 120 279
f 49 279 70
f 127 120 280
f 127 280 307
f 282 121 281
f 32 281 36
f 125 121 282
f 125 282 305
f 13 33 283
f 13 283 284
f 13 284 303
f 284 122 123
f 69 52 285
f 69 285 139
f 34 137 286
f 34 286 14
f 31 287 35
f 287 135 35
f 133 288 72
f 288 68 72
f 1 15 289
f 1 289 16
f 17 29 290
f 17 290 30
f 291 40 50
f 51 40 291
f 292 56 65
f 66 56 292
f 14 293 31
f 293 143 31
f 141 294 68
f 294 52 68
f 232 123 295
f 232 295 14
f 296 208 34
f 124 208 296
f 231 31 297
f 231 297 125
f 207 126 298
f 207 298 35
f 299 230 52
f 127 230 299
f 267 128 300
f 267 300 69
f 301 229 129
f 68 229 301
f 268 72 302
f 268 302 130
f 7 13 303
f 7 303 123
f 304 156 124
f 33 156 304
f 23 125 305
f 23 305 32
f 155 36 306
f 155 306 126
f 307 46 127
f 49 46 307
f 221 70 308
f 221 308 128
f 309 62 67
f 129 62 309
f 222 130 310
f 222 310 71
f 224 219 311
f 224 311 114
f 223 113 312
f 223 312 220
f 313 152 85
f 92 152 313
f 162 77 314
f 162 314 85
f 91 315 149
f 315 84 149
f 316 161 84
f 78 161 316
f 317 158 117
f 95 158 317
f 157 96 318
f 157 318 118
f 319 59 66
f 67 59 319
f 320 43 49
f 50 43 320
f 10 16 321
f 10 321 13
f 26 32 322
f 26 322 29

