
o 5.obj
v 3.97916666 -0.58333333 -0.46425565
v 3.97079325 -0.58333333 -0.43300565
v 3.94791666 -0.58333333 -0.41012906
v 3.91666666 -0.58333333 -0.40175565
v 3.88541666 -0.58333333 -0.41012906
v 3.86254007 -0.58333333 -0.43300565
v 3.85416666 -0.58333333 -0.46425565
v 3.86254007 -0.58333333 -0.49550565
v 3.88541666 -0.58333333 -0.51838224
v 3.91666666 -0.58333333 -0.52675565
v 3.94791666 -0.58333333 -0.51838224
v 3.97079325 -0.58333333 -0.49550565
v 3.97916666 -0.12500000 -0.46425565
v 3.97079325 -0.12500000 -0.49550565
v 3.94791666 -0.12500000 -0.51838224
v 3.91666666 -0.12500000 -0.52675565
v 3.88541666 -0.12500000 -0.51838224
v 3.86254007 -0.12500000 -0.49550565
v 3.85416666 -0.12500000 -0.46425565
v 3.86254007 -0.12500000 -0.43300565
v 3.88541666 -0.12500000 -0.41012906
v 3.91666666 -0.12500000 -0.40175565
v 3.94791666 -0.12500000 -0.41012906
v 3.97079325 -0.12500000 -0.43300565
v 3.97916666 0.12500000 -0.46425565
v 3.97079325 0.12500000 -0.43300565
v 3.94791666 0.12500000 -0.41012906
v 3.91666666 0.12500000 -0.40175565
v 3.88541666 0.12500000 -0.41012906
v 3.86254007 0.12500000 -0.43300565
v 3.85416666 0.12500000 -0.46425565
v 3.86254007 0.12500000 -0.49550565
v 3.88541666 0.12500000 -0.51838224
v 3.91666666 0.12500000 -0.52675565
v 3.94791666 0.12500000 -0.51838224
v 3.97079325 0.12500000 -0.49550565
v 3.97916666 0.58333333 -0.46425565
v 3.97079325 0.58333333 -0.49550565
v 3.94791666 0.58333333 -0.51838224
v 3.91666666 0.58333333 -0.52675565
v 3.88541666 0.58333333 -0.51838224
v 3.86254007 0.58333333 -0.49550565
v 3.85416666 0.58333333 -0.46425565
v 3.86254007 0.58333333 -0.43300565
v 3.88541666 0.58333333 -0.41012906
v 3.91666666 0.58333333 -0.40175565
v 3.94791666 0.58333333 -0.41012906
v 3.97079325 0.58333333 -0.43300565
v 3.50000000 -0.41666667 0.33333333
v 3.50000000 0.41666667 0.33333333
v 3.66666666 0.41666667 0.16666667
v 3.66666666 0.12500000 0.16666667
v 4.16666666 0.12500000 -0.33333333
v 4.16666666 -0.12500000 -0.33333333
v 3.66666666 -0.12500000 0.16666667
v 3.66666666 -0.41666667 0.16666667
v 3.50000000 0.41666667 -0.84517797
v 3.66666666 0.41666667 -0.84517797
v 3.66666666 0.12500000 -0.84517797
v 4.16666666 0.12500000 -0.84517797
v 4.16666666 -0.12500000 -0.84517797
v 3.66666666 -0.12500000 -0.84517797
v 3.66666666 -0.41666667 -0.84517797
v 3.50000000 -0.41666667 -0.84517797
v 3.50000000 0.58333333 0.83333333
v 3.50000000 0.41666667 1.00000000
v 4.33333333 0.41666667 1.00000000
v 4.33333333 0.58333333 0.83333333
v 3.50000000 0.41666667 1.50000000
v 4.33333333 0.41666667 1.50000000
v 3.50000000 -0.41666667 1.00000000
v 3.50000000 -0.58333333 0.83333333
v 4.33333333 -0.58333333 0.83333333
v 4.33333333 -0.41666667 1.00000000
v 3.50000000 -0.41666667 1.50000000
v 4.33333333 -0.41666667 1.50000000
v 4.33333333 0.58333333 -1.50000000
v 4.04166666 0.58333333 -1.50000000
v 4.04166666 0.58333333 -2.16666667
v 3.79166666 0.58333333 -2.16666667
v 3.79166666 0.58333333 -1.50000000
v 3.50000000 0.58333333 -1.50000000
v 3.50000000 -0.58333333 -1.50000000
v 3.79166666 -0.58333333 -1.50000000
v 3.79166666 -0.58333333 -2.16666667
v 4.04166666 -0.58333333 -2.16666667
v 4.04166666 -0.58333333 -1.50000000
v 4.33333333 -0.58333333 -1.50000000
v 3.50000000 -0.12500000 1.50000000
v 3.50000000 -0.12500000 2.16666667
v 3.50000000 0.12500000 2.16666667
v 3.50000000 0.12500000 1.50000000
v 3.97916666 0.12500000 1.83333333
v 3.97079325 0.12500000 1.86458333
v 3.94791666 0.12500000 1.88745992
v 3.91666666 0.12500000 1.89583333
v 3.88541666 0.12500000 1.88745992
v 3.86254007 0.12500000 1.86458333
v 3.85416666 0.12500000 1.83333333
v 3.86254007 0.12500000 1.80208333
v 3.88541666 0.12500000 1.77920674
v 3.91666666 0.12500000 1.77083333
v 3.94791666 0.12500000 1.77920674
v 3.97079325 0.12500000 1.80208333
v 4.33333333 0.12500000 2.16666667
v 4.33333333 0.12500000 1.50000000
v 3.97916666 -0.12500000 1.83333333
v 3.97079325 -0.12500000 1.86458333
v 3.94791666 -0.12500000 1.88745992
v 3.91666666 -0.12500000 1.89583333
v 3.88541666 -0.12500000 1.88745992
v 3.86254007 -0.12500000 1.86458333
v 3.85416666 -0.12500000 1.83333333
v 3.86254007 -0.12500000 1.80208333
v 3.88541666 -0.12500000 1.77920674
v 3.91666666 -0.12500000 1.77083333
v 3.94791666 -0.12500000 1.77920674
v 3.97079325 -0.12500000 1.80208333
v 4.33333333 -0.12500000 2.16666667
v 4.33333333 -0.12500000 1.50000000
v 3.79166666 -0.18750000 -1.83333333
v 3.79166666 -0.19587341 -1.80208333
v 3.79166666 -0.21875000 -1.77920675
v 3.79166666 -0.25000000 -1.77083333
v 3.79166666 -0.28125000 -1.77920675
v 3.79166666 -0.30412659 -1.80208333
v 3.79166666 -0.31250000 -1.83333333
v 3.79166666 -0.30412659 -1.86458333
v 3.79166666 -0.28125000 -1.88745992
v 3.79166666 -0.25000000 -1.89583333
v 3.79166666 -0.21875000 -1.88745992
v 3.79166666 -0.19587341 -1.86458333
v 3.79166666 0.31250000 -1.83333333
v 3.79166666 0.30412659 -1.80208333
v 3.79166666 0.28125000 -1.77920675
v 3.79166666 0.25000000 -1.77083333
v 3.79166666 0.21875000 -1.77920675
v 3.79166666 0.19587341 -1.80208333
v 3.79166666 0.18750000 -1.83333333
v 3.79166666 0.19587341 -1.86458333
v 3.79166666 0.21875000 -1.88745992
v 3.79166666 0.25000000 -1.89583333
v 3.79166666 0.28125000 -1.88745992
v 3.79166666 0.30412659 -1.86458333
v 4.04166666 0.31250000 -1.83333333
v 4.04166666 0.30412659 -1.80208333
v 4.04166666 0.28125000 -1.77920675
v 4.04166666 0.25000000 -1.77083333
v 4.04166666 0.21875000 -1.77920675
v 4.04166666 0.19587341 -1.80208333
v 4.04166666 0.18750000 -1.83333333
v 4.04166666 0.19587341 -1.86458333
v 4.04166666 0.21875000 -1.88745992
v 4.04166666 0.25000000 -1.89583333
v 4.04166666 0.28125000 -1.88745992
v 4.04166666 0.30412659 -1.86458333
v 4.04166666 -0.18750000 -1.83333333
v 4.04166666 -0.19587341 -1.80208333
v 4.04166666 -0.21875000 -1.77920675
v 4.04166666 -0.25000000 -1.77083333
v 4.04166666 -0.28125000 -1.77920675
v 4.04166666 -0.30412659 -1.80208333
v 4.04166666 -0.31250000 -1.83333333
v 4.04166666 -0.30412659 -1.86458333
v 4.04166666 -0.28125000 -1.88745992
v 4.04166666 -0.25000000 -1.89583333
v 4.04166666 -0.21875000 -1.88745992
v 4.04166666 -0.19587341 -1.86458333
v 4.33333333 0.22916666 0.00000000
v 4.33333333 0.35416666 0.00000000
v 4.33333333 0.08333333 -0.25000000
v 4.33333333 -0.50000000 -0.25000000
v 4.33333333 0.50000000 -0.25000000
v 4.33333333 0.58333333 -0.33333333
v 4.33333333 -0.58333333 -0.33333333
v 3.50000000 0.58333333 -0.33333333
v 3.50000000 -0.58333333 -0.33333333
v 3.50000000 -0.50000000 -0.00592232
v 3.50000000 0.50000000 -0.00592232
v 4.33333333 0.40625000 -0.75000000
v 4.33333333 0.05208333 0.75000000
v 4.33333333 0.46875000 -0.75000000
v 4.33333333 0.23958333 0.75000000
v 4.33333333 0.17708333 0.75000000
v 4.33333333 -0.25000000 -0.87500000
v 4.33333333 0.33333333 -0.87500000
v 4.33333333 -0.16666667 0.37500000
v 4.15625000 -0.58333333 0.18453884
v 4.15625000 0.58333333 0.18453884
v 3.67708333 -0.58333333 0.18453884
v 3.67708333 0.58333333 0.18453884
v 4.15206329 0.58333333 0.20016384
v 4.15206329 -0.58333333 0.20016384
v 3.68127003 0.58333333 0.20016384
v 3.68127003 -0.58333333 0.20016384
v 4.12500000 -0.58333333 0.21578884
v 4.12500000 0.58333333 0.21578884
v 3.70833333 0.58333333 0.21578884
v 3.70833333 -0.58333333 0.21578884
v 4.14062500 0.58333333 0.21160213
v 4.14062500 -0.58333333 0.21160213
v 3.69270833 -0.58333333 0.21160213
v 3.69270833 0.58333333 0.21160213
v 3.50000000 -0.14583334 0.91666666
v 4.33333333 -0.45833334 0.37500000
v 4.33333333 -0.54166666 -0.87500000
v 4.33333333 0.54166666 -0.87500000
v 4.33333333 0.45833334 0.37500000
v 3.50000000 0.27083334 0.91666666
v 3.50000000 -0.27083334 0.91666666
v 4.18749999 0.00000000 -1.50000000
v 3.64583333 0.00000000 -1.50000000
v 3.50000000 -0.08333333 -1.17258898
v 3.91666666 0.00000000 -2.16666667
v 4.33333333 -0.09375000 0.50000000
v 3.50000000 0.41666667 -0.25592232
v 3.50000000 -0.41666667 -0.25592232
v 4.33333333 0.58333333 -0.91666667
v 4.33333333 -0.58333333 -0.91666667
v 3.50000000 0.58333333 0.25000000
v 3.50000000 -0.58333333 0.25000000
v 4.33333333 0.58333333 0.25000000
v 4.33333333 -0.58333333 0.25000000
v 3.50000000 -0.58333333 -0.91666667
v 3.50000000 0.58333333 -0.91666667
v 3.79166666 0.00000000 -2.16666667
v 4.04166666 0.00000000 -2.16666667
v 3.50000000 0.00000000 -1.50000000
v 3.79166666 0.00000000 -1.50000000
v 4.04166666 0.00000000 -1.50000000
v 4.33333333 0.00000000 -1.50000000
v 4.15625000 -0.58333333 -0.98212783
v 4.15625000 0.58333333 -0.98212783
v 3.67708333 0.58333333 -0.98212783
v 3.67708333 -0.58333333 -0.98212783
v 4.33333333 -0.54166666 0.29166667
v 4.33333333 0.54166666 0.29166667
v 3.66666666 -0.27083334 -0.33925565
v 3.66666666 0.27083334 -0.33925565
v 4.33333333 0.16666666 -1.18750000
v 3.82291666 -0.58333333 -0.98212783
v 3.82291666 0.58333333 -0.98212783
v 4.01041666 0.58333333 -0.98212783
v 4.01041666 -0.58333333 -0.98212783
v 3.58333333 -0.41666667 -0.33925565
v 3.58333333 0.41666667 -0.33925565
v 3.66666666 0.41666667 -0.33925565
v 3.66666666 -0.41666667 -0.33925565
v 3.66666666 0.12500000 -0.33925565
v 3.66666666 -0.12500000 -0.33925565
v 4.00622995 -0.58333333 -0.99775283
v 4.00622995 0.58333333 -0.99775283
v 3.82710336 0.58333333 -0.99775283
v 3.82710336 -0.58333333 -0.99775283
v 4.33333333 0.38541667 0.50000000
v 3.83854166 -0.58333333 -1.00919112
v 3.83854166 0.58333333 -1.00919112
v 3.99479166 0.58333333 -1.00919112
v 3.99479166 -0.58333333 -1.00919112
v 3.97916666 -0.58333333 -1.01337783
v 3.85416666 -0.58333333 -1.01337783
v 3.97916666 0.58333333 -1.01337783
v 3.85416666 0.58333333 -1.01337783
v 3.91666666 -0.41666667 1.25000000
v 3.91666666 0.41666667 1.25000000
v 3.91666666 -0.27083334 1.50000000
v 3.91666666 0.27083334 1.50000000
v 3.81250000 -0.58333333 0.52456109
v 3.81250000 0.58333333 0.52456109
v 4.04166666 0.16666666 -2.03125000
v 3.79166666 -0.16666666 -2.03125000
v 4.04166666 -0.16666666 -1.63541666
v 3.79166666 0.16666666 -1.63541666
v 3.91666666 0.00000000 2.16666667
v 3.91666666 -0.50000000 0.91666666
v 3.91666666 0.50000000 0.91666666
v 3.50000000 -0.54166666 0.41370551
v 3.50000000 0.54166666 0.41370551
v 3.50000000 -0.45833334 -0.42555015
v 3.50000000 0.45833334 -0.42555015
v 3.50000000 0.00000000 -0.84517797
v 3.50000000 0.00000000 0.33333333
v 3.91666666 0.58333333 0.83333333
v 3.91666666 0.41666667 1.00000000
v 3.91666666 -0.41666667 1.00000000
v 3.91666666 -0.58333333 0.83333333
v 3.91666666 0.12500000 2.16666667
v 3.91666666 -0.12500000 2.16666667
v 3.91666666 0.41666667 1.50000000
v 3.91666666 0.12500000 1.50000000
v 3.91666666 -0.41666667 1.50000000
v 3.91666666 -0.12500000 1.50000000
v 3.50000000 0.13541667 0.62500000
v 4.33333333 0.31770833 -0.37500000
v 4.33333333 0.14062500 0.37500000
v 4.33333333 0.49479166 -1.12500000
v 4.33333333 -0.03645833 1.12500000
v 4.33333333 0.52604166 -1.12500000
v 4.33333333 0.29687500 0.37500000
v 4.33333333 0.18229167 1.12500000
v 4.33333333 0.41145833 -0.37500000
v 4.33333333 0.08854167 1.12500000
v 4.33333333 0.15104167 1.12500000
v 4.33333333 0.38020833 -0.37500000
v 4.33333333 0.20312500 0.37500000
v 4.33333333 0.23437500 0.37500000
v 3.91666666 0.00000000 -0.08333333
v 3.50000000 0.25000000 -1.33629449
v 4.33333333 0.00000000 1.83333334
v 3.50000000 0.00000000 1.83333334
v 3.91666666 -0.58333333 -1.83333334
v 3.91666666 0.58333333 -1.83333334
v 4.33333333 -0.41666666 -1.18750000
v 4.33333333 -0.33333334 0.06250000
v 4.33333333 -0.08333334 -0.56250000
v 3.91666666 0.12500000 -0.08333333
v 3.91666666 -0.12500000 -0.08333333
v 3.50000000 0.50000000 -1.17258898
v 3.50000000 -0.50000000 -1.17258898
v 4.33333333 -0.37500000 -0.56250000
v 4.33333333 0.20833333 -0.56250000
v 4.33333333 -0.04166667 0.06250000
v 4.33333333 -0.12500000 -1.18750000
v 4.33333333 0.45833333 -1.18750000
v 4.33333333 -0.29166667 0.68750000
v 4.06770833 0.58333333 -0.13985840
v 4.06770833 -0.58333333 -0.13985840
v 4.24479166 -0.58333333 0.50893609
v 4.24479166 0.58333333 0.50893609
v 3.58854166 -0.58333333 0.50893609
v 3.58854166 0.58333333 0.50893609
v 3.76562499 0.58333333 -0.13985840
v 3.76562499 -0.58333333 -0.13985840
v 3.50000000 -0.41666667 0.66666666
v 3.50000000 0.41666667 0.66666666
v 3.79166666 0.58333333 -1.83333334
v 4.04166666 0.58333333 -1.83333334
v 3.79166666 -0.58333333 -1.83333334
v 4.04166666 -0.58333333 -1.83333334
v 3.50000000 -0.12500000 1.83333334
v 3.50000000 0.12500000 1.83333334
v 4.33333333 -0.12500000 1.83333334
v 4.33333333 0.12500000 1.83333334
v 4.24269831 0.58333333 0.51674859
v 4.24269831 -0.58333333 0.51674859
v 4.06142827 -0.58333333 -0.11642090
v 4.06142827 0.58333333 -0.11642090
v 3.59063502 0.58333333 0.51674859
v 3.59063502 -0.58333333 0.51674859
v 3.77190505 -0.58333333 -0.11642090
v 3.77190505 0.58333333 -0.11642090
v 3.76041666 -0.12500000 -0.14879449
v 3.76041666 0.12500000 -0.14879449
v 4.22916666 0.58333333 0.52456109
v 4.22916666 -0.58333333 0.52456109
v 4.02083333 -0.58333333 -0.09298340
v 4.02083333 0.58333333 -0.09298340
v 3.81250000 0.58333333 -0.09298340
v 3.81250000 -0.58333333 -0.09298340
v 3.60416666 0.58333333 0.52456109
v 3.60416666 -0.58333333 0.52456109
v 4.23697916 -0.58333333 0.52246773
v 4.23697916 0.58333333 0.52246773
v 4.04427083 -0.58333333 -0.09926346
v 4.04427083 0.58333333 -0.09926346
v 3.59635416 -0.58333333 0.52246773
v 3.59635416 0.58333333 0.52246773
v 3.78906250 0.58333333 -0.09926346
v 3.78906250 -0.58333333 -0.09926346
v 4.03645833 0.58333333 -0.09717011
v 4.03645833 -0.58333333 -0.09717011
v 3.79687500 -0.58333333 -0.09717011
v 3.79687500 0.58333333 -0.09717011
v 4.06352162 0.58333333 -0.12423340
v 4.06352162 -0.58333333 -0.12423340
v 3.76981170 0.58333333 -0.12423340
v 3.76981170 -0.58333333 -0.12423340
v 4.04998997 0.58333333 -0.10498261
v 4.04998997 -0.58333333 -0.10498261
v 3.78334335 -0.58333333 -0.10498261
v 3.78334335 0.58333333 -0.10498261
v 3.50000000 -0.01041667 1.20833333
v 3.50000000 -0.28125000 0.62500000
v 3.80729166 -0.12500000 -0.12173120
v 3.80729166 0.12500000 -0.12173120
v 3.76460337 0.12500000 -0.13316949
v 3.76460337 -0.12500000 -0.13316949
v 4.33333333 -0.43750000 0.68750000
v 4.33333333 -0.52083333 -0.56250000
v 4.33333333 -0.47916667 0.06250000
v 4.33333333 -0.56250000 -1.18750000
v 4.33333333 0.56250000 -1.18750000
v 4.33333333 0.43750000 0.68750000
v 4.33333333 0.47916667 0.06250000
v 4.33333333 0.52083333 -0.56250000
v 3.79166666 0.12500000 -0.11754449
v 3.79166666 -0.12500000 -0.11754449
v 3.77604166 -0.12500000 -0.12173120
v 3.77604166 0.12500000 -0.12173120
v 4.07291666 -0.58333333 0.67894721
v 4.07291666 0.58333333 0.67894721
v 3.50000000 0.19791667 1.20833333
v 3.50000000 -0.19791667 1.20833333
v 3.50000000 -0.34375000 0.62500000
v 3.50000000 -0.07291667 0.62500000
v 3.50000000 0.34375000 0.62500000
v 4.26041666 0.29166666 -1.50000000
v 4.26041666 -0.29166666 -1.50000000
v 4.11458333 -0.29166666 -1.50000000
v 4.11458333 0.29166666 -1.50000000
v 3.71874999 0.29166666 -1.50000000
v 3.57291666 0.29166666 -1.50000000
v 3.71874999 -0.29166666 -1.50000000
v 3.57291666 -0.29166666 -1.50000000
v 3.50000000 -0.33333333 -1.33629449
v 3.50000000 0.16666667 -1.00888348
v 3.97916666 0.29166666 -2.16666667
v 3.85416666 0.29166666 -2.16666667
v 3.97916666 -0.29166666 -2.16666667
v 3.85416666 -0.29166666 -2.16666667
v 4.33333333 -0.25520834 0.75000000
v 4.33333333 0.24479166 -0.50000000
v 4.33333333 0.06770833 0.25000000
v 3.58333333 0.14583334 0.25000000
v 3.50000000 0.41666667 -0.55055015
v 3.50000000 -0.41666667 -0.55055015
v 3.50000000 -0.41666667 0.03870551
v 3.50000000 0.41666667 0.03870551
v 3.50000000 -0.13541667 1.20833333
v 3.50000000 0.58333333 -0.62500000
v 3.50000000 -0.58333333 -0.62500000
v 4.33333333 -0.58333333 -0.04166667
v 4.33333333 0.58333333 -0.04166667
v 3.50000000 -0.58333333 -0.04166667
v 3.50000000 0.58333333 -0.04166667
v 4.33333333 -0.58333333 -0.62500000
v 4.33333333 0.58333333 -0.62500000
v 4.33333333 0.58333333 -1.20833333
v 4.33333333 -0.58333333 -1.20833333
v 3.50000000 0.58333333 0.54166666
v 3.50000000 -0.58333333 0.54166666
v 4.33333333 0.58333333 0.54166666
v 4.33333333 -0.58333333 0.54166666
v 3.50000000 -0.58333333 -1.20833333
v 3.50000000 0.58333333 -1.20833333
v 3.79166666 -0.29166666 -2.16666667
v 4.04166666 -0.29166666 -2.16666667
v 3.79166666 0.29166666 -2.16666667
v 4.04166666 0.29166666 -2.16666667
v 3.50000000 -0.29166666 -1.50000000
v 3.79166666 -0.29166666 -1.50000000
v 3.50000000 0.29166666 -1.50000000
v 3.79166666 0.29166666 -1.50000000
v 4.04166666 0.29166666 -1.50000000
v 4.04166666 -0.29166666 -1.50000000
v 4.33333333 -0.29166666 -1.50000000
v 4.33333333 0.29166666 -1.50000000
v 4.33333333 -0.20833334 -0.25000000
v 4.33333333 0.04166666 -0.87500000
v 3.50000000 -0.27083334 1.25000000
v 3.50000000 0.27083334 1.25000000
v 4.33333333 0.27083334 1.25000000
v 4.33333333 -0.27083334 1.25000000
v 4.15625000 0.58333333 -0.69046116
v 4.15625000 -0.58333333 -0.69046116
v 3.67708333 -0.58333333 -0.69046116
v 3.67708333 0.58333333 -0.69046116
v 4.16666666 0.00000000 -0.58925565
v 3.58333333 -0.14583334 -0.84517797
v 3.91666666 0.00000000 -0.84517797
v 4.06770833 -0.58333333 -0.72319174
v 4.06770833 0.58333333 -0.72319174
v 4.24479166 -0.58333333 -1.24106391
v 4.24479166 0.58333333 -1.24106391
v 4.24479166 0.58333333 -0.07439725
v 4.24479166 -0.58333333 -0.07439725
v 3.76562499 0.58333333 -0.72319174
v 3.76562499 -0.58333333 -0.72319174
v 3.58854166 0.58333333 -1.24106391
v 3.58854166 -0.58333333 -1.24106391
v 3.58854166 0.58333333 -0.07439725
v 3.58854166 -0.58333333 -0.07439725
v 4.33333333 0.03125000 0.18750000
v 4.33333333 -0.56250000 0.56250000
v 4.33333333 0.56250000 0.56250000
v 4.33333333 0.56250000 -0.60416667
v 4.33333333 -0.56250000 -0.60416667
v 4.33333333 0.52083333 0.02083333
v 4.33333333 -0.52083333 0.02083333
v 3.50000000 -0.50000000 -0.58925565
v 3.50000000 0.50000000 -0.58925565
v 4.33333333 -0.18229167 0.87500000
v 4.09895833 0.58333333 -1.24106391
v 4.09895833 -0.58333333 -1.24106391
v 3.73437499 -0.58333333 -1.24106391
v 3.73437499 0.58333333 -1.24106391
v 3.50000000 0.50000000 0.58333333
v 3.50000000 -0.50000000 0.58333333
v 3.66666666 -0.19791667 -0.08629449
v 3.66666666 -0.34375000 -0.08629449
v 3.66666666 -0.19791667 -0.59221681
v 3.66666666 -0.34375000 -0.59221681
v 3.66666666 0.19791667 -0.59221681
v 3.66666666 0.34375000 -0.59221681
v 3.66666666 0.19791667 -0.08629449
v 3.66666666 0.34375000 -0.08629449
v 3.88541666 0.58333333 -1.25668891
v 3.88541666 -0.58333333 -1.25668891
v 4.33333333 -0.04166667 -1.03125000
v 4.33333333 0.12500000 -0.71875000
v 4.33333333 -0.12500000 -0.09375000
v 4.33333333 -0.29166667 -0.40625000
v 4.33333333 0.37500000 -1.34375000
v 4.33333333 -0.20833333 -1.34375000
v 3.83854166 -0.58333333 -0.72319174
v 3.83854166 0.58333333 -0.72319174
v 3.99479166 0.58333333 -0.72319174
v 3.99479166 -0.58333333 -0.72319174
v 3.80729166 0.58333333 -1.24106391
v 3.80729166 -0.58333333 -1.24106391
v 4.02604166 -0.58333333 -1.24106391
v 4.02604166 0.58333333 -1.24106391
v 3.50000000 0.33333334 -1.09073623
v 3.54166666 -0.41666667 -0.59221681
v 3.54166666 0.41666667 -0.59221681
v 3.62500000 0.41666667 -0.59221681
v 3.62500000 -0.41666667 -0.59221681
v 3.62500000 -0.41666667 -0.08629449
v 3.62500000 0.41666667 -0.08629449
v 4.16666666 -0.12500000 -0.58925565
v 4.16666666 0.12500000 -0.58925565
v 4.33333333 -0.54166666 0.00000000
v 4.33333333 0.54166666 0.00000000
v 3.66666666 0.41666667 -0.08629449
v 3.66666666 -0.41666667 -0.08629449
v 3.66666666 -0.41666667 -0.59221681
v 3.66666666 0.41666667 -0.59221681
v 3.66666666 0.12500000 -0.08629449
v 3.66666666 0.12500000 -0.59221681
v 3.66666666 -0.12500000 -0.59221681
v 3.66666666 -0.12500000 -0.08629449
v 3.84482172 -0.58333333 -0.74662924
v 3.84482172 0.58333333 -0.74662924
v 3.98851160 0.58333333 -0.74662924
v 3.98851160 -0.58333333 -0.74662924
v 4.02394831 0.58333333 -1.24887641
v 4.02394831 -0.58333333 -1.24887641
v 3.80938501 -0.58333333 -1.24887641
v 3.80938501 0.58333333 -1.24887641
v 4.33333333 0.48437500 -0.50000000
v 4.33333333 0.40104167 0.75000000
v 4.33333333 0.36979167 0.25000000
v 3.91666666 -0.12500000 -0.84517797
v 3.91666666 0.12500000 -0.84517797
v 4.33333333 -0.41666667 1.25000000
v 4.33333333 0.41666667 1.25000000
v 3.50000000 0.41666667 1.25000000
v 3.50000000 -0.41666667 1.25000000
v 3.79166666 0.00000000 -1.77083333
v 4.04166666 0.00000000 -1.77083333
v 3.79166666 0.00000000 -1.89583333
v 4.04166666 0.00000000 -1.89583333
f 2 24 1
f 1 24 13
f 1 13 12
f 12 13 14
f 12 14 11
f 11 14 15
f 11 15 10
f 10 15 16
f 10 16 9
f 9 16 17
f 9 17 8
f 8 17 18
f 8 18 7
f 7 18 19
f 7 19 6
f 6 19 20
f 6 20 5
f 5 20 21
f 5 21 4
f 4 21 22
f 4 22 3
f 3 22 23
f 3 23 2
f 2 23 24
f 26 48 25
f 25 48 37
f 25 37 36
f 36 37 38
f 36 38 35
f 35 38 39
f 35 39 34
f 34 39 40
f 34 40 33
f 33 40 41
f 33 41 32
f 32 41 42
f 32 42 31
f 31 42 43
f 31 43 30
f 30 43 44
f 30 44 29
f 29 44 45
f 29 45 28
f 28 45 46
f 28 46 27
f 27 46 47
f 27 47 26
f 26 47 48
f 56 49 55
f 282 293 50
f 424 282 50
f 52 50 51
f 52 307 55
f 307 317 55
f 216 280 425
f 425 280 57
f 36 60 25
f 531 468 53
f 25 53 26
f 26 53 27
f 316 307 52
f 385 316 52
f 385 52 396
f 30 386 353
f 31 353 249
f 249 503 539
f 31 59 32
f 32 59 33
f 33 59 34
f 554 470 60
f 34 60 35
f 35 60 36
f 60 468 531
f 468 54 53
f 24 54 13
f 61 530 468
f 13 61 14
f 14 61 15
f 15 61 16
f 62 553 470
f 16 62 17
f 17 62 18
f 18 62 19
f 250 499 541
f 541 499 55
f 352 55 387
f 22 397 384
f 23 384 317
f 307 54 317
f 23 54 24
f 249 239 503
f 526 525 58
f 250 238 499
f 528 535 248
f 58 57 59
f 281 213 64
f 469 281 64
f 62 64 63
f 59 470 554
f 470 61 60
f 427 56 217
f 245 528 248
f 68 276 67
f 276 284 67
f 67 556 462
f 70 289 267
f 74 275 73
f 275 286 73
f 76 555 463
f 285 275 74
f 374 347 189
f 77 298 296
f 438 392 77
f 192 378 365
f 269 360 65
f 197 198 269
f 357 358 198
f 65 331 440
f 331 191 220
f 179 220 435
f 430 43 467
f 467 43 477
f 253 543 41
f 257 253 41
f 262 258 78
f 80 312 79
f 312 337 79
f 78 546 522
f 522 493 78
f 493 474 78
f 1 471 465
f 1 465 436
f 489 223 532
f 545 11 251
f 251 11 259
f 260 259 10
f 548 520 84
f 84 520 495
f 84 495 480
f 319 83 444
f 64 224 431
f 350 190 377
f 369 195 380
f 361 199 268
f 268 196 355
f 359 4 356
f 328 443 73
f 188 223 328
f 84 311 87
f 311 339 87
f 213 415 319
f 64 279 426
f 221 330 441
f 404 383 49
f 49 383 282
f 403 71 460
f 216 179 280
f 318 225 445
f 213 308 228
f 204 382 209
f 382 402 209
f 335 209 66
f 89 310 92
f 310 341 92
f 403 460 89
f 402 92 461
f 94 105 93
f 309 106 343
f 93 106 104
f 104 106 103
f 103 106 102
f 290 267 92
f 102 92 101
f 101 92 100
f 100 92 99
f 310 91 341
f 99 91 98
f 98 91 97
f 97 91 96
f 105 287 274
f 96 105 95
f 95 105 94
f 104 118 93
f 93 118 107
f 93 107 94
f 94 107 108
f 94 108 95
f 95 108 109
f 95 109 96
f 96 109 110
f 96 110 97
f 97 110 111
f 97 111 98
f 98 111 112
f 98 112 99
f 99 112 113
f 99 113 100
f 100 113 114
f 100 114 101
f 101 114 115
f 101 115 102
f 102 115 116
f 102 116 103
f 103 116 117
f 103 117 104
f 104 117 118
f 119 274 288
f 274 91 90
f 118 120 107
f 342 309 119
f 107 119 108
f 108 119 109
f 109 119 110
f 288 274 90
f 110 90 111
f 111 90 112
f 112 90 113
f 340 310 89
f 113 89 114
f 114 89 115
f 115 89 116
f 292 266 120
f 116 120 117
f 117 120 118
f 106 267 290
f 267 69 92
f 89 266 292
f 266 76 120
f 122 138 121
f 121 138 139
f 121 139 132
f 132 139 140
f 132 140 131
f 131 140 141
f 131 141 130
f 130 561 271
f 85 446 420
f 85 420 419
f 80 142 143
f 80 143 144
f 138 122 137
f 137 122 123
f 137 123 136
f 136 559 273
f 453 411 81
f 229 411 453
f 84 124 125
f 84 125 126
f 126 127 84
f 338 311 84
f 85 127 128
f 85 128 129
f 129 130 85
f 134 81 133
f 336 312 80
f 133 80 144
f 134 135 81
f 81 135 136
f 144 156 133
f 133 156 145
f 133 145 134
f 134 145 146
f 134 146 135
f 135 146 147
f 135 147 136
f 136 147 148
f 136 148 137
f 137 148 149
f 137 149 138
f 138 149 150
f 138 150 139
f 139 150 151
f 139 151 140
f 140 151 152
f 140 152 141
f 141 152 153
f 141 153 142
f 142 153 154
f 142 154 143
f 143 154 155
f 143 155 144
f 144 155 156
f 132 168 121
f 121 168 157
f 121 157 122
f 122 157 158
f 122 158 123
f 123 158 159
f 123 159 124
f 124 159 160
f 124 160 125
f 125 160 161
f 125 161 126
f 126 161 162
f 126 162 127
f 127 162 163
f 127 163 128
f 128 163 164
f 128 164 129
f 129 164 165
f 129 165 130
f 130 165 166
f 130 166 131
f 131 166 167
f 131 167 132
f 132 167 168
f 419 214 227
f 227 214 417
f 168 152 157
f 157 152 151
f 157 151 158
f 158 151 150
f 158 150 159
f 159 150 149
f 159 149 160
f 160 560 272
f 455 409 87
f 87 409 408
f 78 148 147
f 78 147 146
f 152 168 153
f 153 168 167
f 153 167 154
f 154 562 270
f 449 417 79
f 227 417 449
f 86 166 165
f 86 165 164
f 164 163 86
f 311 86 339
f 87 163 162
f 87 162 161
f 161 160 87
f 156 79 145
f 312 78 337
f 145 78 146
f 156 155 79
f 79 155 154
f 229 212 411
f 412 228 452
f 408 456 88
f 211 231 408
f 296 324 77
f 407 77 457
f 294 170 169
f 119 309 105
f 309 343 105
f 300 67 462
f 120 463 297
f 181 492 421
f 205 314 187
f 390 172 314
f 184 303 302
f 183 300 184
f 393 551 255
f 208 393 255
f 185 313 323
f 171 315 321
f 172 512 458
f 421 74 325
f 329 68 442
f 329 442 222
f 433 173 174
f 77 392 298
f 465 219 436
f 2 1 327
f 491 176 430
f 44 43 332
f 178 177 434
f 224 466 431
f 279 178 217
f 441 330 72
f 179 278 220
f 50 428 51
f 301 170 304
f 301 173 170
f 295 215 423
f 463 74 297
f 395 173 550
f 174 173 395
f 299 255 183
f 169 305 295
f 295 423 169
f 181 302 297
f 315 459 510
f 407 457 231
f 510 459 186
f 180 186 296
f 215 325 187
f 511 458 171
f 2 375 346
f 346 3 2
f 189 329 222
f 48 326 37
f 221 190 330
f 333 7 6
f 44 376 351
f 351 45 44
f 68 354 401
f 48 47 347
f 364 3 379
f 201 364 193
f 368 45 381
f 203 368 194
f 72 361 268
f 350 6 5
f 199 356 196
f 268 199 196
f 197 357 198
f 378 47 365
f 269 198 360
f 357 46 358
f 199 359 356
f 369 380 5
f 192 365 200
f 192 344 329
f 345 328 73
f 364 379 193
f 202 195 369
f 349 330 195
f 348 331 65
f 368 381 194
f 383 405 282
f 383 204 405
f 236 489 390
f 74 388 325
f 206 391 313
f 172 389 320
f 174 486 437
f 37 174 437
f 237 208 394
f 170 552 299
f 406 209 335
f 382 92 402
f 210 71 403
f 334 71 210
f 211 407 231
f 410 407 211
f 84 413 451
f 413 212 229
f 416 308 213
f 64 319 224
f 214 418 417
f 86 419 447
f 215 421 325
f 181 215 295
f 428 216 51
f 51 529 534
f 426 279 217
f 49 56 427
f 37 437 464
f 464 437 218
f 219 439 391
f 1 436 175
f 440 331 220
f 179 435 176
f 178 434 221
f 178 221 277
f 488 173 533
f 488 394 173
f 328 223 443
f 432 175 172
f 319 444 224
f 64 431 490
f 57 430 225
f 57 523 416
f 226 448 418
f 271 142 226
f 447 419 227
f 270 166 227
f 413 83 414
f 411 212 412
f 451 413 229
f 273 124 229
f 454 410 230
f 272 148 230
f 408 231 456
f 514 456 231
f 232 473 439
f 232 494 473
f 472 464 233
f 474 438 77
f 445 234 479
f 479 234 496
f 235 478 466
f 83 480 444
f 484 443 236
f 205 390 314
f 237 394 488
f 68 485 442
f 62 501 540
f 501 238 250
f 52 505 538
f 505 239 249
f 315 185 459
f 296 186 324
f 241 515 478
f 542 9 8
f 496 242 519
f 477 43 516
f 517 472 243
f 544 39 38
f 244 521 494
f 1 518 471
f 426 245 524
f 524 245 527
f 529 246 247
f 425 57 525
f 505 51 506
f 503 239 504
f 501 63 502
f 499 238 500
f 538 505 249
f 539 503 59
f 540 501 250
f 19 250 352
f 251 547 521
f 12 11 545
f 252 39 544
f 258 39 252
f 549 519 253
f 543 42 41
f 254 9 542
f 256 9 254
f 552 255 299
f 393 67 551
f 256 10 9
f 260 10 261
f 81 263 507
f 41 40 257
f 40 39 258
f 40 258 262
f 87 259 260
f 259 11 10
f 508 261 84
f 260 261 508
f 84 261 256
f 261 10 256
f 263 40 262
f 507 263 262
f 257 40 263
f 257 263 81
f 460 71 558
f 75 291 266
f 461 69 557
f 276 66 284
f 291 76 266
f 75 266 89
f 289 69 267
f 70 267 106
f 275 72 286
f 268 355 400
f 354 197 269
f 283 276 68
f 562 166 270
f 154 270 79
f 561 142 271
f 130 271 85
f 560 148 272
f 160 272 87
f 559 124 273
f 136 273 81
f 287 91 274
f 105 274 119
f 71 72 275
f 71 275 285
f 65 66 276
f 65 276 283
f 178 277 49
f 49 498 334
f 497 335 65
f 50 278 179
f 279 177 178
f 490 431 177
f 57 491 430
f 280 179 176
f 59 57 281
f 59 281 469
f 55 49 282
f 55 282 424
f 283 269 65
f 401 354 269
f 284 265 67
f 66 265 284
f 264 71 285
f 264 285 74
f 400 355 73
f 72 268 286
f 96 91 287
f 96 287 105
f 110 119 288
f 110 288 90
f 265 69 289
f 265 289 70
f 102 106 290
f 102 290 92
f 291 264 76
f 75 264 291
f 116 89 292
f 116 292 120
f 50 406 335
f 204 209 293
f 180 422 321
f 169 171 294
f 295 184 181
f 305 184 295
f 296 182 180
f 298 182 296
f 297 106 120
f 302 106 297
f 298 207 182
f 392 207 298
f 170 299 169
f 306 305 169
f 300 462 106
f 183 67 300
f 182 301 180
f 301 304 180
f 303 106 302
f 184 302 181
f 300 106 303
f 300 303 184
f 180 304 294
f 304 170 294
f 183 184 305
f 183 305 306
f 299 183 306
f 299 306 169
f 53 54 307
f 53 307 316
f 318 82 308
f 523 308 416
f 120 106 309
f 120 309 342
f 90 91 310
f 90 310 340
f 85 86 311
f 85 311 338
f 81 78 312
f 81 312 336
f 391 88 313
f 206 313 185
f 187 314 322
f 458 315 171
f 320 185 315
f 512 315 458
f 27 53 316
f 27 316 385
f 384 55 317
f 23 317 54
f 318 445 82
f 57 225 318
f 415 83 319
f 213 319 64
f 320 206 185
f 389 206 320
f 422 171 321
f 180 321 186
f 483 423 187
f 169 322 171
f 459 185 509
f 323 231 240
f 513 457 77
f 186 240 324
f 325 205 187
f 388 205 325
f 37 326 174
f 475 433 174
f 188 476 432
f 1 175 327
f 193 188 328
f 193 328 345
f 344 68 329
f 192 329 189
f 72 330 349
f 330 190 195
f 194 191 331
f 194 331 348
f 435 191 481
f 332 43 176
f 177 7 333
f 177 482 434
f 334 72 71
f 498 72 334
f 50 335 497
f 335 66 65
f 133 81 336
f 133 336 80
f 145 79 337
f 145 337 78
f 338 127 85
f 84 127 338
f 339 163 87
f 86 163 339
f 113 90 340
f 113 340 89
f 99 92 341
f 99 341 91
f 107 120 342
f 107 342 119
f 93 105 343
f 93 343 106
f 68 363 354
f 192 200 344
f 345 201 193
f 362 355 201
f 346 188 193
f 375 188 346
f 48 347 374
f 347 192 189
f 348 203 194
f 367 360 203
f 366 361 72
f 349 195 202
f 350 377 6
f 195 190 350
f 351 191 194
f 376 191 351
f 19 352 20
f 352 387 20
f 386 52 353
f 30 353 31
f 354 200 197
f 363 200 354
f 73 355 362
f 355 196 201
f 364 196 371
f 356 4 3
f 357 47 46
f 365 47 370
f 368 198 373
f 358 46 45
f 5 4 359
f 5 372 369
f 65 360 367
f 360 198 203
f 202 199 361
f 202 361 366
f 73 362 345
f 362 201 345
f 344 200 363
f 344 363 68
f 364 371 3
f 201 196 364
f 200 365 197
f 365 370 197
f 366 349 202
f 72 349 366
f 65 367 348
f 367 203 348
f 368 373 45
f 203 198 368
f 369 199 202
f 372 199 369
f 197 370 357
f 370 47 357
f 371 356 3
f 196 356 371
f 372 359 199
f 5 359 372
f 373 358 45
f 198 358 373
f 48 374 326
f 374 189 326
f 375 327 188
f 2 327 375
f 376 332 191
f 44 332 376
f 377 333 6
f 190 333 377
f 347 47 378
f 347 378 192
f 193 379 346
f 379 3 346
f 380 350 5
f 195 350 380
f 194 381 351
f 381 45 351
f 89 92 382
f 89 429 403
f 210 204 383
f 210 383 404
f 397 55 384
f 22 384 23
f 27 385 28
f 385 396 28
f 396 52 399
f 29 386 30
f 20 387 21
f 21 398 397
f 73 205 388
f 73 388 74
f 487 436 206
f 175 389 172
f 489 172 390
f 236 390 205
f 439 88 391
f 219 391 206
f 218 207 392
f 218 392 438
f 68 67 393
f 68 393 208
f 173 394 170
f 394 208 170
f 207 395 182
f 395 550 182
f 28 396 29
f 396 399 29
f 398 55 397
f 21 397 22
f 387 55 398
f 387 398 21
f 29 399 386
f 399 52 386
f 286 268 400
f 286 400 73
f 68 401 283
f 401 269 283
f 209 402 66
f 402 461 66
f 403 204 210
f 429 204 403
f 404 334 210
f 49 334 404
f 282 405 293
f 405 204 293
f 293 209 406
f 293 406 50
f 78 77 407
f 78 407 410
f 409 211 408
f 87 408 88
f 230 211 409
f 230 409 455
f 78 410 454
f 410 211 230
f 81 411 82
f 411 412 82
f 412 452 82
f 212 228 412
f 413 414 212
f 84 83 413
f 212 414 228
f 415 228 450
f 415 450 83
f 213 228 415
f 57 416 281
f 416 213 281
f 417 80 79
f 418 80 417
f 448 80 418
f 226 418 214
f 420 214 419
f 85 419 86
f 420 226 214
f 446 226 420
f 492 74 421
f 181 421 215
f 294 171 422
f 294 422 180
f 169 423 483
f 423 215 187
f 55 424 52
f 424 50 52
f 216 425 246
f 425 525 246
f 426 524 64
f 217 245 426
f 427 178 49
f 217 178 427
f 428 179 216
f 50 179 428
f 429 382 204
f 89 382 429
f 430 467 225
f 176 43 430
f 431 7 177
f 466 7 431
f 476 175 432
f 188 432 223
f 189 222 433
f 189 433 475
f 434 190 221
f 482 190 434
f 435 481 176
f 220 191 435
f 175 436 487
f 436 219 206
f 437 207 218
f 486 207 437
f 233 218 438
f 233 438 474
f 473 88 439
f 232 439 219
f 278 65 440
f 278 440 220
f 277 221 441
f 277 441 72
f 442 237 222
f 485 237 442
f 73 443 484
f 443 223 236
f 444 235 224
f 480 235 444
f 445 479 82
f 225 234 445
f 446 271 226
f 85 271 446
f 447 166 86
f 227 166 447
f 448 142 80
f 226 142 448
f 449 270 227
f 79 270 449
f 414 83 450
f 414 450 228
f 451 124 84
f 229 124 451
f 308 82 452
f 308 452 228
f 453 273 229
f 81 273 453
f 454 148 78
f 230 148 454
f 455 272 230
f 87 272 455
f 313 88 456
f 313 456 514
f 240 231 457
f 240 457 513
f 314 172 458
f 314 458 511
f 186 459 240
f 459 509 240
f 89 460 75
f 460 558 75
f 461 557 66
f 92 69 461
f 462 70 106
f 556 70 462
f 555 74 463
f 76 463 120
f 37 464 472
f 464 218 233
f 465 232 219
f 471 232 465
f 478 7 466
f 235 466 224
f 225 467 234
f 467 477 234
f 530 54 468
f 61 468 60
f 59 469 62
f 469 64 62
f 553 61 470
f 62 470 59
f 471 244 232
f 518 244 471
f 37 472 517
f 472 233 243
f 473 87 88
f 494 87 473
f 233 474 493
f 474 77 78
f 326 189 475
f 326 475 174
f 327 175 476
f 327 476 188
f 234 477 242
f 477 516 242
f 515 7 478
f 241 478 235
f 82 479 81
f 479 496 81
f 495 235 480
f 84 480 83
f 481 332 176
f 191 332 481
f 482 333 190
f 177 333 482
f 169 483 322
f 483 187 322
f 73 484 205
f 484 236 205
f 485 208 237
f 68 208 485
f 486 395 207
f 174 395 486
f 175 487 389
f 487 206 389
f 237 488 222
f 488 533 222
f 489 532 172
f 236 223 489
f 64 490 279
f 490 177 279
f 491 280 176
f 57 280 491
f 297 74 492
f 297 492 181
f 243 233 493
f 243 493 522
f 521 87 494
f 244 494 232
f 495 241 235
f 520 241 495
f 496 519 81
f 234 242 496
f 50 497 278
f 497 65 278
f 277 72 498
f 277 498 49
f 55 499 56
f 499 500 56
f 528 56 535
f 238 248 500
f 501 502 238
f 62 63 501
f 238 502 248
f 527 248 536
f 59 503 58
f 503 504 58
f 537 526 58
f 239 247 504
f 505 506 239
f 52 51 505
f 239 506 247
f 534 529 247
f 81 507 78
f 507 262 78
f 87 260 508
f 87 508 84
f 509 323 240
f 185 323 509
f 321 315 510
f 321 510 186
f 322 314 511
f 322 511 171
f 512 320 315
f 172 320 512
f 324 240 513
f 324 513 77
f 323 313 514
f 323 514 231
f 8 7 515
f 8 515 241
f 242 516 42
f 516 43 42
f 517 38 37
f 243 38 517
f 12 244 518
f 12 518 1
f 81 519 549
f 519 242 253
f 254 241 520
f 254 520 548
f 547 87 521
f 251 521 244
f 522 252 243
f 546 252 522
f 523 318 308
f 57 318 523
f 64 524 63
f 524 527 63
f 246 525 526
f 525 57 58
f 247 246 526
f 247 526 537
f 527 536 63
f 245 248 527
f 217 56 528
f 217 528 245
f 216 246 529
f 216 529 51
f 13 54 530
f 13 530 61
f 25 60 531
f 25 531 53
f 532 432 172
f 223 432 532
f 222 533 433
f 533 173 433
f 506 51 534
f 506 534 247
f 500 248 535
f 500 535 56
f 502 63 536
f 502 536 248
f 504 247 537
f 504 537 58
f 353 52 538
f 353 538 249
f 31 249 539
f 31 539 59
f 19 62 540
f 19 540 250
f 352 250 541
f 352 541 55
f 542 241 254
f 8 241 542
f 543 242 42
f 253 242 543
f 252 544 243
f 544 38 243
f 12 545 244
f 545 251 244
f 546 258 252
f 78 258 546
f 547 259 87
f 251 259 547
f 548 256 254
f 84 256 548
f 81 549 257
f 549 253 257
f 182 550 301
f 550 173 301
f 255 551 183
f 551 67 183
f 208 255 552
f 208 552 170
f 16 61 553
f 16 553 62
f 34 59 554
f 34 554 60
f 555 264 74
f 76 264 555
f 556 265 70
f 67 265 556
f 66 557 265
f 557 69 265
f 75 558 264
f 558 71 264
f 559 123 124
f 136 123 559
f 560 149 148
f 160 149 560
f 561 141 142
f 130 141 561
f 562 167 166
f 154 167 562

