
o 6.obj
v 4.33333334 -0.18750000 -1.83333334
v 4.33333334 -0.19587341 -1.80208334
v 4.33333334 -0.21875000 -1.77920675
v 4.33333334 -0.25000000 -1.77083334
v 4.33333334 -0.28125000 -1.77920675
v 4.33333334 -0.30412659 -1.80208334
v 4.33333334 -0.31250000 -1.83333334
v 4.33333334 -0.30412659 -1.86458334
v 4.33333334 -0.28125000 -1.88745993
v 4.33333334 -0.25000000 -1.89583334
v 4.33333334 -0.21875000 -1.88745993
v 4.33333334 -0.19587341 -1.86458334
v 4.04166667 -0.18750000 -1.83333334
v 4.04166667 -0.19587341 -1.86458334
v 4.04166667 -0.21875000 -1.88745993
v 4.04166667 -0.25000000 -1.89583334
v 4.04166667 -0.28125000 -1.88745993
v 4.04166667 -0.30412659 -1.86458334
v 4.04166667 -0.31250000 -1.83333334
v 4.04166667 -0.30412659 -1.80208334
v 4.04166667 -0.28125000 -1.77920675
v 4.04166667 -0.25000000 -1.77083334
v 4.04166667 -0.21875000 -1.77920675
v 4.04166667 -0.19587341 -1.80208334
v 3.79166667 -0.18750000 -1.83333334
v 3.79166667 -0.19587341 -1.80208334
v 3.79166667 -0.21875000 -1.77920675
v 3.79166667 -0.25000000 -1.77083334
v 3.79166667 -0.28125000 -1.77920675
v 3.79166667 -0.30412659 -1.80208334
v 3.79166667 -0.31250000 -1.83333334
v 3.79166667 -0.30412659 -1.86458334
v 3.79166667 -0.28125000 -1.88745993
v 3.79166667 -0.25000000 -1.89583334
v 3.79166667 -0.21875000 -1.88745993
v 3.79166667 -0.19587341 -1.86458334
v 3.50000000 -0.18750000 -1.83333334
v 3.50000000 -0.19587341 -1.86458334
v 3.50000000 -0.21875000 -1.88745993
v 3.50000000 -0.25000000 -1.89583334
v 3.50000000 -0.28125000 -1.88745993
v 3.50000000 -0.30412659 -1.86458334
v 3.50000000 -0.31250000 -1.83333334
v 3.50000000 -0.30412659 -1.80208334
v 3.50000000 -0.28125000 -1.77920675
v 3.50000000 -0.25000000 -1.77083334
v 3.50000000 -0.21875000 -1.77920675
v 3.50000000 -0.19587341 -1.80208334
v 4.33333334 0.31250000 -1.83333334
v 4.33333334 0.30412659 -1.80208334
v 4.33333334 0.28125000 -1.77920675
v 4.33333334 0.25000000 -1.77083334
v 4.33333334 0.21875000 -1.77920675
v 4.33333334 0.19587341 -1.80208334
v 4.33333334 0.18750000 -1.83333334
v 4.33333334 0.19587341 -1.86458334
v 4.33333334 0.21875000 -1.88745993
v 4.33333334 0.25000000 -1.89583334
v 4.33333334 0.28125000 -1.88745993
v 4.33333334 0.30412659 -1.86458334
v 4.04166667 0.31250000 -1.83333334
v 4.04166667 0.30412659 -1.86458334
v 4.04166667 0.28125000 -1.88745993
v 4.04166667 0.25000000 -1.89583334
v 4.04166667 0.21875000 -1.88745993
v 4.04166667 0.19587341 -1.86458334
v 4.04166667 0.18750000 -1.83333334
v 4.04166667 0.19587341 -1.80208334
v 4.04166667 0.21875000 -1.77920675
v 4.04166667 0.25000000 -1.77083334
v 4.04166667 0.28125000 -1.77920675
v 4.04166667 0.30412659 -1.80208334
v 3.79166667 0.31250000 -1.83333334
v 3.79166667 0.30412659 -1.80208334
v 3.79166667 0.28125000 -1.77920675
v 3.79166667 0.25000000 -1.77083334
v 3.79166667 0.21875000 -1.77920675
v 3.79166667 0.19587341 -1.80208334
v 3.79166667 0.18750000 -1.83333334
v 3.79166667 0.19587341 -1.86458334
v 3.79166667 0.21875000 -1.88745993
v 3.79166667 0.25000000 -1.89583334
v 3.79166667 0.28125000 -1.88745993
v 3.79166667 0.30412659 -1.86458334
v 3.50000000 0.31250000 -1.83333334
v 3.50000000 0.30412659 -1.86458334
v 3.50000000 0.28125000 -1.88745993
v 3.50000000 0.25000000 -1.89583334
v 3.50000000 0.21875000 -1.88745993
v 3.50000000 0.19587341 -1.86458334
v 3.50000000 0.18750000 -1.83333334
v 3.50000000 0.19587341 -1.80208334
v 3.50000000 0.21875000 -1.77920675
v 3.50000000 0.25000000 -1.77083334
v 3.50000000 0.28125000 -1.77920675
v 3.50000000 0.30412659 -1.80208334
v 4.33333334 0.58333333 -1.33333334
v 3.50000000 0.58333333 -1.33333334
v 3.50000000 0.58333333 -1.50000000
v 3.79166667 0.58333333 -1.50000000
v 3.79166667 0.58333333 -2.16666667
v 4.04166667 0.58333333 -2.16666667
v 4.04166667 0.58333333 -1.50000000
v 4.33333334 0.58333333 -1.50000000
v 3.50000000 -0.58333333 -1.33333334
v 4.33333334 -0.58333333 -1.33333334
v 4.33333334 -0.58333333 -1.50000000
v 4.04166667 -0.58333333 -1.50000000
v 4.04166667 -0.58333333 -2.16666667
v 3.79166667 -0.58333333 -2.16666667
v 3.79166667 -0.58333333 -1.50000000
v 3.50000000 -0.58333333 -1.50000000
v 3.50000000 2.00000000 -1.33333334
v 3.50000000 2.50000000 -1.83333334
v 3.50000000 2.50000000 -2.50000000
v 3.50000000 1.83333333 -2.50000000
v 3.50000000 1.66666667 -2.33333334
v 3.50000000 -1.66666667 -2.33333334
v 3.50000000 -1.83333333 -2.50000000
v 3.50000000 -2.50000000 -2.50000000
v 3.50000000 -2.50000000 -1.83333334
v 3.50000000 -2.00000000 -1.33333334
v 4.33333334 -2.00000000 -1.33333334
v 4.33333334 2.00000000 -1.33333334
v 4.33333334 2.50000000 -1.83333334
v 4.33333334 -1.66666667 -2.33333334
v 4.33333334 -1.83333333 -2.50000000
v 4.33333334 1.66666667 -2.33333334
v 4.33333334 1.83333333 -2.50000000
v 4.33333334 -2.50000000 -1.83333334
v 4.33333334 2.50000000 -2.50000000
v 4.33333334 -2.50000000 -2.50000000
v 3.91666667 0.00000000 -2.33333334
v 3.50000000 0.00000000 -2.33333334
v 4.33333334 0.00000000 -2.33333334
v 4.33333334 -1.39062500 -1.80627005
v 4.33333334 -1.39062500 -1.86039664
v 4.33333334 1.39062500 -1.80627005
v 4.33333334 1.39062500 -1.86039664
v 3.50000000 -1.39062500 -1.86039664
v 3.50000000 -1.39062500 -1.80627005
v 3.50000000 1.39062500 -1.86039664
v 3.50000000 1.39062500 -1.80627005
v 3.50000000 1.40206330 -1.81770834
v 3.50000000 1.40206330 -1.84895834
v 3.50000000 -1.40206330 -1.81770834
v 3.50000000 -1.40206330 -1.84895834
v 4.33333334 1.40206330 -1.84895834
v 4.33333334 1.40206330 -1.81770834
v 4.33333334 -1.40206330 -1.84895834
v 4.33333334 -1.40206330 -1.81770834
v 4.33333334 -1.40625000 -1.83333334
v 4.33333334 1.40625000 -1.83333334
v 3.50000000 -1.40625000 -1.83333334
v 3.50000000 1.40625000 -1.83333334
v 4.33333334 0.70833333 -2.11458334
v 3.50000000 0.70833333 -2.11458334
v 3.50000000 1.54166666 -1.66666667
v 3.50000000 -1.54166666 -1.66666667
v 4.33333334 1.54166666 -1.66666667
v 4.33333334 -1.54166666 -1.66666667
v 4.12500001 0.83333333 -2.33333334
v 3.70833333 0.83333333 -2.33333334
v 4.12500001 -0.83333333 -2.33333334
v 3.70833333 -0.83333333 -2.33333334
v 3.50000000 -0.83333333 -2.33333334
v 4.33333334 -0.83333333 -2.33333334
v 3.50000000 0.83333333 -2.33333334
v 4.33333334 0.83333333 -2.33333334
v 3.91666667 1.29166666 -1.33333334
v 3.91666667 -1.29166666 -1.33333334
v 4.33333334 -0.95833333 -2.11458334
v 3.50000000 -0.95833333 -2.11458334
v 3.50000000 0.95833333 -2.11458334
v 4.33333334 0.95833333 -2.11458334
v 4.33333334 0.97395833 -2.11039663
v 3.50000000 0.97395833 -2.11039663
v 3.50000000 -0.97395833 -2.11039663
v 4.33333334 -0.97395833 -2.11039663
v 4.33333334 -1.29166666 -1.41666667
v 4.33333334 1.29166666 -1.41666667
v 3.50000000 -1.29166666 -1.41666667
v 3.50000000 1.29166666 -1.41666667
v 3.50000000 1.29166666 -1.33333334
v 3.50000000 -1.29166666 -1.33333334
v 4.33333334 1.29166666 -1.33333334
v 4.33333334 -1.29166666 -1.33333334
v 4.18750001 0.00000000 -1.50000000
v 3.64583333 0.00000000 -1.50000000
v 3.91666667 0.00000000 -2.16666667
v 4.04166667 0.00000000 -2.16666667
v 3.79166667 0.00000000 -2.16666667
v 3.79166667 0.00000000 -1.50000000
v 3.50000000 0.00000000 -1.50000000
v 4.04166667 0.00000000 -1.50000000
v 4.33333334 0.00000000 -1.50000000
v 4.33333334 -0.83593750 -1.87392828
v 3.50000000 -0.83593750 -1.87392828
v 3.50000000 0.83593750 -1.87392828
v 4.33333334 0.83593750 -1.87392828
v 4.33333334 -1.94531250 -1.81980169
v 4.33333334 1.94531250 -1.81980169
v 3.50000000 -1.94531250 -1.81980169
v 3.50000000 1.94531250 -1.81980169
v 4.33333334 -1.94531250 -1.84686499
v 4.33333334 1.94531250 -1.84686499
v 3.50000000 -1.94531250 -1.84686499
v 3.50000000 1.94531250 -1.84686499
v 3.50000000 0.83593750 -1.79273840
v 3.50000000 -0.83593750 -1.79273840
v 4.33333334 0.83593750 -1.79273840
v 4.33333334 -0.83593750 -1.79273840
v 3.50000000 1.95103165 -1.84114584
v 3.50000000 -1.95103165 -1.84114584
v 4.33333334 1.95103165 -1.84114584
v 4.33333334 -1.95103165 -1.84114584
v 3.50000000 1.95103165 -1.82552084
v 3.50000000 -1.95103165 -1.82552084
v 4.33333334 1.95103165 -1.82552084
v 4.33333334 -1.95103165 -1.82552084
v 4.33333334 -0.85309494 -1.80989584
v 4.33333334 -0.85309494 -1.85677084
v 4.33333334 0.85309494 -1.80989584
v 4.33333334 0.85309494 -1.85677084
v 3.50000000 -0.85309494 -1.85677084
v 3.50000000 -0.85309494 -1.80989584
v 3.50000000 0.85309494 -1.85677084
v 3.50000000 0.85309494 -1.80989584
v 4.33333334 -1.95312500 -1.83333334
v 4.33333334 1.95312500 -1.83333334
v 3.50000000 -1.95312500 -1.83333334
v 3.50000000 1.95312500 -1.83333334
v 3.50000000 0.85937500 -1.83333334
v 3.50000000 -0.85937500 -1.83333334
v 4.33333334 0.85937500 -1.83333334
v 4.33333334 -0.85937500 -1.83333334
v 3.91666667 -2.25000000 -1.58333334
v 3.91666667 2.25000000 -1.58333334
v 4.33333334 -0.85728165 -1.82552084
v 4.33333334 -0.85728165 -1.84114584
v 4.33333334 0.85728165 -1.82552084
v 4.33333334 0.85728165 -1.84114584
v 3.50000000 -0.85728165 -1.84114584
v 3.50000000 -0.85728165 -1.82552084
v 3.50000000 0.85728165 -1.84114584
v 3.50000000 0.85728165 -1.82552084
v 3.50000000 0.84737580 -1.80417669
v 3.50000000 0.84737580 -1.86248999
v 3.50000000 -0.84737580 -1.80417669
v 3.50000000 -0.84737580 -1.86248999
v 4.33333334 0.84737580 -1.86248999
v 4.33333334 0.84737580 -1.80417669
v 4.33333334 -0.84737580 -1.86248999
v 4.33333334 -0.84737580 -1.80417669
v 3.91666667 2.16666667 -2.50000000
v 3.91666667 -2.16666667 -2.50000000
v 3.91666667 -2.50000000 -2.16666667
v 3.91666667 2.50000000 -2.16666667
v 3.81250000 -1.25000000 -2.33333334
v 3.81250000 1.25000000 -2.33333334
v 4.33333334 1.18750000 -2.22395834
v 3.50000000 1.18750000 -2.22395834
v 3.50000000 0.22916667 -2.00520834
v 4.33333334 0.22916667 -2.00520834
v 3.50000000 2.02083333 -1.75000000
v 3.50000000 -2.02083333 -1.75000000
v 4.33333334 2.02083333 -1.75000000
v 4.33333334 -2.02083333 -1.75000000
v 3.50000000 1.06250000 -1.58333334
v 3.50000000 -1.06250000 -1.58333334
v 4.33333334 1.06250000 -1.58333334
v 4.33333334 -1.06250000 -1.58333334
v 3.50000000 2.08333333 -2.08333334
v 3.50000000 -2.08333333 -2.08333334
v 4.33333334 2.08333333 -2.08333334
v 4.33333334 -2.08333333 -2.08333334
v 4.33333334 0.16666666 -1.63541667
v 4.04166667 0.16666666 -1.63541667
v 3.50000000 0.16666666 -1.63541667
v 3.79166667 -0.16666666 -1.63541667
v 3.79166667 0.16666666 -2.03125000
v 4.04166667 -0.16666666 -2.03125000
v 3.91666667 1.75000000 -2.41666667
v 3.91666667 -1.75000000 -2.41666667
v 4.33333334 -0.98697916 -1.65313502
v 4.33333334 0.98697916 -1.65313502
v 3.50000000 -0.98697916 -1.65313502
v 3.50000000 0.98697916 -1.65313502
v 4.22916667 1.25000000 -2.33333334
v 3.60416667 1.25000000 -2.33333334
v 4.22916667 -1.25000000 -2.33333334
v 3.60416667 -1.25000000 -2.33333334
v 4.22916667 0.41666667 -2.33333334
v 4.02083334 0.41666667 -2.33333334
v 3.81250000 0.41666667 -2.33333334
v 3.60416667 0.41666667 -2.33333334
v 4.22916667 -0.41666667 -2.33333334
v 4.02083334 -0.41666667 -2.33333334
v 3.81250000 -0.41666667 -2.33333334
v 3.60416667 -0.41666667 -2.33333334
v 4.33333334 -2.08333333 -2.41666667
v 4.33333334 2.08333333 -2.41666667
v 3.50000000 -2.08333333 -2.41666667
v 3.50000000 2.08333333 -2.41666667
v 3.91666667 -1.83333333 -2.50000000
v 3.91666667 -1.66666667 -2.33333334
v 3.91666667 1.66666667 -2.33333334
v 3.91666667 1.83333333 -2.50000000
v 3.91666667 2.50000000 -1.83333334
v 3.91666667 2.50000000 -2.50000000
v 3.91666667 -2.50000000 -1.83333334
v 3.91666667 -2.50000000 -2.50000000
v 3.91666667 2.00000000 -1.33333334
v 3.91666667 -2.00000000 -1.33333334
v 3.91666667 -0.58333333 -1.33333334
v 3.91666667 0.58333333 -1.33333334
v 3.50000000 -0.41666667 -2.33333334
v 4.33333334 -0.41666667 -2.33333334
v 3.50000000 0.41666667 -2.33333334
v 4.33333334 0.41666667 -2.33333334
v 3.50000000 -1.25000000 -2.33333334
v 4.33333334 -1.25000000 -2.33333334
v 3.50000000 1.25000000 -2.33333334
v 4.33333334 1.25000000 -2.33333334
v 4.12500001 -1.64583333 -1.33333334
v 3.70833333 -1.64583333 -1.33333334
v 3.70833333 1.64583333 -1.33333334
v 4.12500001 1.64583333 -1.33333334
v 3.70833333 0.93750000 -1.33333334
v 4.12500001 0.93750000 -1.33333334
v 4.12500001 -0.93750000 -1.33333334
v 3.70833333 -0.93750000 -1.33333334
v 4.33333334 -1.31250000 -2.22395834
v 3.50000000 -1.31250000 -2.22395834
v 4.33333334 0.35416667 -2.22395834
v 3.50000000 0.35416667 -2.22395834
v 3.50000000 1.31250000 -2.22395834
v 4.33333334 1.31250000 -2.22395834
v 4.33333334 0.60416667 -2.00520834
v 3.50000000 0.60416667 -2.00520834
v 3.50000000 -0.60416667 -2.00520834
v 4.33333334 -0.60416667 -2.00520834
v 4.33333334 -0.54166667 -2.11458334
v 3.50000000 -0.54166667 -2.11458334
v 4.33333334 1.32031250 -2.22186499
v 3.50000000 1.32031250 -2.22186499
v 3.50000000 -1.32031250 -2.22186499
v 4.33333334 -1.32031250 -2.22186499
v 4.33333334 0.62760417 -1.99892828
v 3.50000000 0.62760417 -1.99892828
v 3.50000000 -0.62760417 -1.99892828
v 4.33333334 -0.62760417 -1.99892828
v 4.33333334 -0.61979167 -2.00102164
v 3.50000000 -0.61979167 -2.00102164
v 3.50000000 0.61979167 -2.00102164
v 4.33333334 0.61979167 -2.00102164
v 4.33333334 -1.64583333 -1.37500000
v 4.33333334 1.64583333 -1.37500000
v 3.50000000 -1.64583333 -1.37500000
v 3.50000000 1.64583333 -1.37500000
v 4.33333334 -0.93750000 -1.45833333
v 4.33333334 -0.93750000 -1.37500000
v 4.33333334 0.93750000 -1.45833333
v 4.33333334 0.93750000 -1.37500000
v 3.50000000 -0.93750000 -1.45833333
v 3.50000000 -0.93750000 -1.37500000
v 3.50000000 0.93750000 -1.45833333
v 3.50000000 0.93750000 -1.37500000
v 3.91666667 -0.58333333 -1.83333334
v 3.91666667 0.58333333 -1.83333334
v 3.50000000 1.64583333 -1.33333334
v 3.50000000 -1.64583333 -1.33333334
v 4.33333334 1.64583333 -1.33333334
v 4.33333334 -1.64583333 -1.33333334
v 3.91666667 1.64583333 -1.33333334
v 3.91666667 -1.64583333 -1.33333334
v 3.50000000 0.93750000 -1.33333334
v 3.50000000 -0.93750000 -1.33333334
v 4.33333334 0.93750000 -1.33333334
v 4.33333334 -0.93750000 -1.33333334
v 3.91666667 -0.93750000 -1.33333334
v 3.91666667 0.93750000 -1.33333334
v 4.33333334 -2.25000000 -1.58333334
v 4.33333334 2.25000000 -1.58333334
v 3.50000000 -2.25000000 -1.58333334
v 3.50000000 2.25000000 -1.58333334
v 4.07291667 1.45833334 -2.33333334
v 4.07291667 -1.45833334 -2.33333334
v 3.79166667 0.58333333 -1.83333334
v 4.04166667 0.58333333 -1.83333334
v 4.04166667 -0.58333333 -1.83333334
v 3.79166667 -0.58333333 -1.83333334
v 3.50000000 2.16666667 -2.50000000
v 3.50000000 -2.16666667 -2.50000000
v 4.33333334 2.16666667 -2.50000000
v 4.33333334 -2.16666667 -2.50000000
v 4.33333334 -2.50000000 -2.16666667
v 4.33333334 2.50000000 -2.16666667
v 3.50000000 -2.50000000 -2.16666667
v 3.50000000 2.50000000 -2.16666667
v 4.26041667 -0.29166666 -1.50000000
v 4.11458334 -0.29166666 -1.50000000
v 4.26041667 0.29166666 -1.50000000
v 4.11458334 0.29166666 -1.50000000
v 3.57291667 0.29166666 -1.50000000
v 3.71875000 0.29166666 -1.50000000
v 3.57291667 -0.29166666 -1.50000000
v 3.71875000 -0.29166666 -1.50000000
v 3.85416667 0.29166666 -2.16666667
v 3.97916667 0.29166666 -2.16666667
v 3.85416667 -0.29166666 -2.16666667
v 3.97916667 -0.29166666 -2.16666667
v 3.50000000 2.29166667 -2.29166667
v 3.50000000 -2.29166667 -2.29166667
v 4.33333334 2.29166667 -2.29166667
v 4.33333334 -2.29166667 -2.29166667
v 4.04166667 -0.29166666 -2.16666667
v 3.79166667 -0.29166666 -2.16666667
v 4.04166667 0.29166666 -2.16666667
v 3.79166667 0.29166666 -2.16666667
v 3.79166667 -0.29166666 -1.50000000
v 3.50000000 -0.29166666 -1.50000000
v 3.79166667 0.29166666 -1.50000000
v 3.50000000 0.29166666 -1.50000000
v 4.04166667 0.29166666 -1.50000000
v 4.33333334 0.29166666 -1.50000000
v 4.04166667 -0.29166666 -1.50000000
v 4.33333334 -0.29166666 -1.50000000
v 3.77083333 0.58333333 -1.41666667
v 4.06250001 -0.58333333 -1.41666667
v 3.50000000 1.77083333 -1.50000000
v 3.50000000 -1.77083333 -1.50000000
v 4.33333334 1.77083333 -1.50000000
v 4.33333334 -1.77083333 -1.50000000
v 4.33333334 -1.80598958 -2.09009916
v 4.33333334 1.80598958 -2.09009916
v 3.50000000 -1.80598958 -2.09009916
v 3.50000000 1.80598958 -2.09009916
v 3.50000000 1.66796875 -1.85363081
v 3.50000000 -1.66796875 -1.85363081
v 4.33333334 1.66796875 -1.85363081
v 4.33333334 -1.66796875 -1.85363081
v 4.33333334 -0.55859375 -1.88069411
v 3.50000000 -0.55859375 -1.88069411
v 3.50000000 0.55859375 -1.88069411
v 4.33333334 0.55859375 -1.88069411
v 3.50000000 1.11328125 -1.79950422
v 3.50000000 -1.11328125 -1.79950422
v 4.33333334 1.11328125 -1.79950422
v 4.33333334 -1.11328125 -1.79950422
v 4.33333334 -2.22265625 -1.84009916
v 4.33333334 2.22265625 -1.84009916
v 3.50000000 -2.22265625 -1.84009916
v 3.50000000 2.22265625 -1.84009916
v 4.33333334 -2.22265625 -1.82656752
v 4.33333334 2.22265625 -1.82656752
v 3.50000000 -2.22265625 -1.82656752
v 3.50000000 2.22265625 -1.82656752
v 4.33333334 -1.11328125 -1.86716246
v 4.33333334 1.11328125 -1.86716246
v 3.50000000 -1.11328125 -1.86716246
v 3.50000000 1.11328125 -1.86716246
v 4.33333334 -0.55859375 -1.78597257
v 4.33333334 0.55859375 -1.78597257
v 3.50000000 -0.55859375 -1.78597257
v 3.50000000 0.55859375 -1.78597257
v 3.50000000 1.66796875 -1.81303587
v 3.50000000 -1.66796875 -1.81303587
v 4.33333334 1.66796875 -1.81303587
v 4.33333334 -1.66796875 -1.81303587
v 4.33333334 -0.57861077 -1.80598959
v 4.33333334 -0.57861077 -1.86067709
v 4.33333334 0.57861077 -1.80598959
v 4.33333334 0.57861077 -1.86067709
v 3.50000000 -0.57861077 -1.86067709
v 3.50000000 -0.57861077 -1.80598959
v 3.50000000 0.57861077 -1.86067709
v 3.50000000 0.57861077 -1.80598959
v 3.50000000 2.22551582 -1.82942709
v 3.50000000 -2.22551582 -1.82942709
v 4.33333334 2.22551582 -1.82942709
v 4.33333334 -2.22551582 -1.82942709
v 3.50000000 2.22551582 -1.83723959
v 3.50000000 -2.22551582 -1.83723959
v 4.33333334 2.22551582 -1.83723959
v 4.33333334 -2.22551582 -1.83723959
v 3.50000000 1.12757912 -1.81380209
v 3.50000000 1.12757912 -1.85286459
v 3.50000000 -1.12757912 -1.81380209
v 3.50000000 -1.12757912 -1.85286459
v 4.33333334 1.12757912 -1.85286459
v 4.33333334 1.12757912 -1.81380209
v 4.33333334 -1.12757912 -1.85286459
v 4.33333334 -1.12757912 -1.81380209
v 4.33333334 -1.67654747 -1.82161459
v 4.33333334 1.67654747 -1.82161459
v 3.50000000 -1.67654747 -1.82161459
v 3.50000000 1.67654747 -1.82161459
v 4.33333334 -1.67654747 -1.84505209
v 4.33333334 1.67654747 -1.84505209
v 3.50000000 -1.67654747 -1.84505209
v 3.50000000 1.67654747 -1.84505209
v 3.50000000 1.52864583 -2.09686499
v 3.50000000 -1.52864583 -2.09686499
v 4.33333334 1.52864583 -2.09686499
v 4.33333334 -1.52864583 -2.09686499
v 4.33333334 -2.22656250 -1.83333334
v 4.33333334 2.22656250 -1.83333334
v 3.50000000 -2.22656250 -1.83333334
v 3.50000000 2.22656250 -1.83333334
v 3.50000000 0.58593750 -1.83333334
v 3.50000000 -0.58593750 -1.83333334
v 4.33333334 0.58593750 -1.83333334
v 4.33333334 -0.58593750 -1.83333334
v 4.33333334 -1.13281250 -1.83333334
v 4.33333334 1.13281250 -1.83333334
v 3.50000000 -1.13281250 -1.83333334
v 3.50000000 1.13281250 -1.83333334
v 3.50000000 1.67968750 -1.83333334
v 3.50000000 -1.67968750 -1.83333334
v 4.33333334 1.67968750 -1.83333334
v 4.33333334 -1.67968750 -1.83333334
v 3.70833333 2.12500000 -1.45833334
v 3.70833333 2.37500000 -1.70833334
v 3.70833333 -2.37500000 -1.70833334
v 3.70833333 -2.12500000 -1.45833334
v 4.12500001 2.37500000 -1.70833334
v 4.12500001 2.12500000 -1.45833334
v 4.12500001 -2.12500000 -1.45833334
v 4.12500001 -2.37500000 -1.70833334
v 4.33333334 -1.67864082 -1.82942709
v 4.33333334 -1.67864082 -1.83723959
v 4.33333334 1.67864082 -1.82942709
v 4.33333334 1.67864082 -1.83723959
v 3.50000000 -1.67864082 -1.82942709
v 3.50000000 -1.67864082 -1.83723959
v 3.50000000 1.67864082 -1.82942709
v 3.50000000 1.67864082 -1.83723959
v 4.33333334 -0.58489082 -1.82942709
v 4.33333334 -0.58489082 -1.83723959
v 4.33333334 0.58489082 -1.82942709
v 4.33333334 0.58489082 -1.83723959
v 3.50000000 -0.58489082 -1.83723959
v 3.50000000 -0.58489082 -1.82942709
v 3.50000000 0.58489082 -1.83723959
v 3.50000000 0.58489082 -1.82942709
v 4.33333334 -1.12967247 -1.82161459
v 4.33333334 -1.12967247 -1.84505209
v 4.33333334 1.12967247 -1.82161459
v 4.33333334 1.12967247 -1.84505209
v 3.50000000 -1.12967247 -1.84505209
v 3.50000000 -1.12967247 -1.82161459
v 3.50000000 1.12967247 -1.84505209
v 3.50000000 1.12967247 -1.82161459
v 3.50000000 0.57575119 -1.80313002
v 3.50000000 0.57575119 -1.86353666
v 3.50000000 -0.57575119 -1.80313002
v 3.50000000 -0.57575119 -1.86353666
v 4.33333334 0.57575119 -1.86353666
v 4.33333334 0.57575119 -1.80313002
v 4.33333334 -0.57575119 -1.86353666
v 4.33333334 -0.57575119 -1.80313002
v 3.50000000 1.67368790 -1.84791166
v 3.50000000 -1.67368790 -1.84791166
v 4.33333334 1.67368790 -1.84791166
v 4.33333334 -1.67368790 -1.84791166
v 3.50000000 1.67368790 -1.81875502
v 3.50000000 -1.67368790 -1.81875502
v 4.33333334 1.67368790 -1.81875502
v 4.33333334 -1.67368790 -1.81875502
v 3.50000000 1.11900040 -1.86144331
v 3.50000000 -1.11900040 -1.86144331
v 4.33333334 1.11900040 -1.86144331
v 4.33333334 -1.11900040 -1.86144331
v 4.33333334 -1.11900040 -1.80522337
v 4.33333334 1.11900040 -1.80522337
v 3.50000000 -1.11900040 -1.80522337
v 3.50000000 1.11900040 -1.80522337
v 3.50000000 1.13071915 -1.82552084
v 3.50000000 1.13071915 -1.84114584
v 3.50000000 -1.13071915 -1.82552084
v 3.50000000 -1.13071915 -1.84114584
v 4.33333334 1.13071915 -1.84114584
v 4.33333334 1.13071915 -1.82552084
v 4.33333334 -1.13071915 -1.84114584
v 4.33333334 -1.13071915 -1.82552084
v 3.50000000 0.58279747 -1.82161459
v 3.50000000 0.58279747 -1.84505209
v 3.50000000 -0.58279747 -1.82161459
v 3.50000000 -0.58279747 -1.84505209
v 4.33333334 0.58279747 -1.84505209
v 4.33333334 0.58279747 -1.82161459
v 4.33333334 -0.58279747 -1.84505209
v 4.33333334 -0.58279747 -1.82161459
v 3.50000000 1.12185997 -1.80808294
v 3.50000000 -1.12185997 -1.80808294
v 4.33333334 1.12185997 -1.80808294
v 4.33333334 -1.12185997 -1.80808294
v 4.33333334 -1.12185997 -1.85858374
v 4.33333334 1.12185997 -1.85858374
v 3.50000000 -1.12185997 -1.85858374
v 3.50000000 1.12185997 -1.85858374
v 4.12500001 -2.00000000 -2.50000000
v 4.12500001 2.00000000 -2.50000000
v 3.70833333 -2.00000000 -2.50000000
v 3.70833333 2.00000000 -2.50000000
v 4.12500001 -2.33333333 -2.50000000
v 4.12500001 2.33333333 -2.50000000
v 3.70833333 -2.33333333 -2.50000000
v 3.70833333 2.33333333 -2.50000000
v 3.70833333 2.50000000 -2.00000001
v 3.70833333 2.50000000 -2.33333334
v 3.70833333 -2.50000000 -2.33333334
v 3.70833333 -2.50000000 -2.00000001
v 4.12500001 2.50000000 -2.33333334
v 4.12500001 2.50000000 -2.00000001
v 4.12500001 -2.50000000 -2.00000001
v 4.12500001 -2.50000000 -2.33333334
v 4.33333334 -0.57003205 -1.79741087
v 4.33333334 -0.57003205 -1.86925581
v 4.33333334 0.57003205 -1.79741087
v 4.33333334 0.57003205 -1.86925581
v 3.50000000 -0.57003205 -1.86925581
v 3.50000000 -0.57003205 -1.79741087
v 3.50000000 0.57003205 -1.86925581
v 3.50000000 0.57003205 -1.79741087
v 3.65625000 -0.20833333 -2.33333334
v 3.86458334 -0.62500000 -2.33333334
v 4.07291667 -0.20833333 -2.33333334
v 3.65625000 0.20833333 -2.33333334
v 3.86458334 0.62500000 -2.33333334
v 4.07291667 0.20833333 -2.33333334
v 3.96875000 -1.04166667 -2.33333334
v 3.96875000 1.04166667 -2.33333334
v 3.65625000 1.45833334 -2.33333334
v 3.65625000 -1.45833334 -2.33333334
v 3.50000000 0.47916667 -2.00520834
v 4.33333334 0.47916667 -2.00520834
v 4.33333334 -0.12500000 -2.11458334
v 3.50000000 -0.12500000 -2.11458334
v 4.04166667 0.00000000 -1.89583334
v 3.79166667 0.00000000 -1.89583334
v 3.79166667 0.00000000 -1.77083334
v 3.50000000 0.00000000 -1.77083334
v 4.04166667 0.00000000 -1.77083334
v 4.33333334 0.00000000 -1.77083334
v 4.33333334 0.00000000 -1.89583334
v 3.50000000 0.00000000 -1.89583334
f 2 24 1
f 1 24 13
f 1 13 12
f 12 13 14
f 12 14 11
f 11 14 15
f 11 15 10
f 10 15 16
f 10 16 9
f 9 16 17
f 9 17 8
f 8 17 18
f 8 18 7
f 7 18 19
f 7 19 6
f 6 19 20
f 6 20 5
f 5 20 21
f 5 21 4
f 4 21 22
f 4 22 3
f 3 22 23
f 3 23 2
f 2 23 24
f 26 48 25
f 25 48 37
f 25 37 36
f 36 37 38
f 36 38 35
f 35 38 39
f 35 39 34
f 34 39 40
f 34 40 33
f 33 40 41
f 33 41 32
f 32 41 42
f 32 42 31
f 31 42 43
f 31 43 30
f 30 43 44
f 30 44 29
f 29 44 45
f 29 45 28
f 28 45 46
f 28 46 27
f 27 46 47
f 27 47 26
f 26 47 48
f 50 72 49
f 49 72 61
f 49 61 60
f 60 61 62
f 60 62 59
f 59 62 63
f 59 63 58
f 58 63 64
f 58 64 57
f 57 64 65
f 57 65 56
f 56 65 66
f 56 66 55
f 55 66 67
f 55 67 54
f 54 67 68
f 54 68 53
f 53 68 69
f 53 69 52
f 52 69 70
f 52 70 51
f 51 70 71
f 51 71 50
f 50 71 72
f 74 96 73
f 73 96 85
f 73 85 84
f 84 85 86
f 84 86 83
f 83 86 87
f 83 87 82
f 82 87 88
f 82 88 81
f 81 88 89
f 81 89 80
f 80 89 90
f 80 90 79
f 79 90 91
f 79 91 78
f 78 91 92
f 78 92 77
f 77 92 93
f 77 93 76
f 76 93 94
f 76 94 75
f 75 94 95
f 75 95 74
f 74 95 96
f 104 97 103
f 98 316 329
f 429 316 98
f 100 98 99
f 100 370 103
f 370 390 103
f 112 105 111
f 106 315 331
f 430 315 106
f 108 106 107
f 108 369 111
f 369 392 111
f 36 80 25
f 25 80 79
f 25 79 26
f 26 79 78
f 26 78 27
f 27 78 77
f 27 77 28
f 28 643 280
f 421 408 111
f 111 408 407
f 100 76 75
f 100 75 74
f 80 36 81
f 81 36 35
f 81 35 82
f 82 642 281
f 420 409 101
f 192 409 420
f 110 34 33
f 110 33 32
f 32 31 110
f 369 110 392
f 111 31 30
f 111 30 29
f 29 28 111
f 84 101 73
f 389 370 100
f 73 100 74
f 84 83 101
f 101 83 82
f 411 190 192
f 192 190 409
f 24 68 13
f 13 68 67
f 13 67 14
f 14 67 66
f 14 66 15
f 15 66 65
f 15 65 16
f 16 641 282
f 109 417 412
f 109 412 411
f 102 64 63
f 102 63 62
f 68 24 69
f 69 24 23
f 69 23 70
f 70 645 278
f 425 404 103
f 103 404 403
f 108 22 21
f 108 21 20
f 20 19 108
f 391 369 108
f 109 19 18
f 109 18 17
f 17 16 109
f 72 103 61
f 370 102 390
f 61 102 62
f 72 71 103
f 103 71 70
f 407 422 112
f 189 194 407
f 403 426 104
f 188 196 403
f 48 92 37
f 37 92 91
f 37 91 90
f 92 48 93
f 93 48 47
f 93 47 46
f 45 112 46
f 405 424 194
f 405 99 424
f 94 99 95
f 143 288 269
f 247 228 478
f 204 265 458
f 245 553 488
f 350 199 177
f 208 454 273
f 355 350 174
f 637 340 157
f 648 263 40
f 89 40 39
f 89 39 38
f 497 203 568
f 557 210 624
f 552 489 244
f 154 147 501
f 207 440 437
f 118 334 321
f 118 321 292
f 292 165 259
f 89 38 90
f 90 38 37
f 644 279 94
f 367 183 269
f 269 183 158
f 454 114 273
f 400 115 413
f 118 303 274
f 274 437 118
f 159 203 266
f 182 359 185
f 123 529 383
f 359 372 185
f 384 267 125
f 384 238 528
f 127 284 126
f 284 306 126
f 167 164 297
f 135 293 320
f 128 283 129
f 283 308 129
f 268 123 383
f 130 617 397
f 114 400 273
f 400 258 612
f 399 120 613
f 301 132 396
f 130 397 276
f 397 257 618
f 386 113 523
f 186 358 373
f 398 131 615
f 304 115 393
f 12 56 1
f 1 56 55
f 1 55 54
f 56 12 57
f 57 12 11
f 57 11 10
f 353 352 172
f 293 162 169
f 387 307 128
f 261 338 175
f 200 460 251
f 251 224 474
f 148 500 153
f 241 549 492
f 252 576 449
f 363 104 271
f 51 104 52
f 196 4 277
f 646 277 4
f 53 4 3
f 53 3 2
f 435 137 442
f 352 443 197
f 548 493 240
f 455 201 268
f 470 151 136
f 212 463 107
f 107 5 4
f 401 428 196
f 53 2 54
f 54 2 1
f 647 264 58
f 186 181 358
f 202 267 160
f 361 180 272
f 272 180 161
f 276 451 130
f 397 132 416
f 128 302 275
f 436 128 275
f 632 133 294
f 633 164 291
f 134 296 630
f 118 636 306
f 167 297 318
f 10 264 647
f 471 562 254
f 221 471 254
f 179 352 197
f 276 205 451
f 569 496 202
f 51 464 104
f 441 436 206
f 261 128 338
f 461 250 198
f 225 475 250
f 112 287 270
f 270 365 112
f 142 439 438
f 445 199 350
f 143 467 144
f 95 466 96
f 246 511 546
f 553 233 580
f 538 519 213
f 86 477 556
f 121 453 274
f 476 557 44
f 512 544 43
f 234 244 512
f 242 513 542
f 549 235 584
f 533 521 219
f 50 473 560
f 130 455 268
f 472 561 8
f 514 540 7
f 236 240 514
f 515 151 152
f 522 216 532
f 452 275 125
f 491 148 550
f 517 147 154
f 520 218 535
f 458 265 114
f 487 144 554
f 638 339 58
f 58 339 59
f 174 262 157
f 88 263 648
f 204 158 265
f 371 113 360
f 159 182 270
f 266 457 121
f 181 271 160
f 456 125 267
f 268 201 161
f 374 123 357
f 260 635 307
f 162 634 289
f 163 290 260
f 133 295 294
f 164 298 297
f 259 633 291
f 165 299 628
f 165 300 299
f 166 317 300
f 341 41 40
f 322 291 167
f 318 297 135
f 337 117 262
f 134 319 296
f 320 293 169
f 156 261 175
f 316 330 382
f 98 368 367
f 315 332 381
f 106 362 361
f 172 333 322
f 9 342 10
f 351 41 354
f 444 41 351
f 174 337 262
f 87 340 88
f 356 349 59
f 59 349 446
f 349 176 200
f 338 128 345
f 177 346 337
f 571 142 462
f 198 351 178
f 118 347 334
f 179 348 333
f 137 459 574
f 187 357 180
f 107 361 272
f 181 363 271
f 364 363 181
f 270 182 365
f 365 182 366
f 184 360 183
f 99 367 269
f 113 327 313
f 382 330 170
f 315 105 332
f 376 171 326
f 316 97 330
f 375 170 328
f 123 325 314
f 381 332 171
f 188 401 196
f 402 401 188
f 189 405 194
f 406 405 189
f 190 410 409
f 110 411 418
f 191 419 410
f 282 64 191
f 418 411 192
f 281 34 192
f 423 406 193
f 280 76 193
f 407 194 422
f 46 194 279
f 427 402 195
f 278 22 195
f 403 196 426
f 401 107 428
f 574 459 253
f 352 9 443
f 198 444 351
f 475 558 250
f 248 571 462
f 87 445 350
f 446 349 200
f 251 474 559
f 495 151 570
f 152 151 495
f 202 456 267
f 149 469 138
f 266 203 457
f 468 141 146
f 567 498 144
f 144 498 155
f 126 435 276
f 435 205 276
f 206 275 452
f 206 436 275
f 453 207 274
f 274 207 437
f 438 273 117
f 208 273 438
f 626 555 96
f 247 478 555
f 577 448 249
f 465 45 44
f 464 211 104
f 286 271 104
f 272 136 285
f 463 5 107
f 458 114 479
f 155 502 145
f 154 536 520
f 520 214 231
f 534 521 153
f 215 230 521
f 130 482 455
f 499 150 152
f 537 519 155
f 155 519 538
f 480 457 218
f 497 146 154
f 219 481 456
f 153 496 149
f 152 531 522
f 522 532 152
f 239 221 494
f 136 575 450
f 222 253 472
f 150 493 548
f 473 223 252
f 549 149 492
f 224 491 242
f 460 139 573
f 243 225 490
f 140 572 461
f 226 249 476
f 146 489 552
f 477 227 248
f 553 145 488
f 228 487 246
f 447 143 578
f 229 216 522
f 486 451 216
f 452 125 485
f 215 521 534
f 121 484 453
f 536 214 520
f 519 232 213
f 213 483 454
f 246 233 511
f 518 155 145
f 551 147 582
f 551 490 147
f 242 235 513
f 516 153 149
f 547 151 586
f 547 494 151
f 121 385 266
f 526 385 237
f 265 113 386
f 114 611 400
f 239 494 547
f 7 539 514
f 514 240 540
f 493 222 240
f 541 513 241
f 241 492 223
f 491 550 242
f 542 513 49
f 243 490 551
f 43 543 512
f 512 244 544
f 489 226 244
f 545 511 245
f 245 488 227
f 487 554 246
f 546 511 85
f 447 288 143
f 555 478 96
f 556 477 248
f 248 462 199
f 476 249 557
f 287 210 448
f 572 250 461
f 475 42 558
f 460 573 251
f 559 474 60
f 560 473 252
f 211 449 286
f 472 253 561
f 459 197 253
f 136 450 285
f 471 6 562
f 283 116 308
f 129 395 302
f 305 284 127
f 119 394 303
f 414 120 399
f 614 399 257
f 415 131 398
f 616 398 258
f 284 118 306
f 306 259 388
f 634 260 289
f 307 283 128
f 324 289 128
f 156 169 261
f 168 157 262
f 168 323 290
f 317 40 640
f 134 336 319
f 156 335 320
f 639 318 135
f 265 386 114
f 360 113 431
f 159 432 359
f 385 122 266
f 433 358 160
f 124 267 384
f 268 383 130
f 357 123 434
f 288 99 269
f 143 269 158
f 270 141 159
f 287 141 270
f 138 160 271
f 138 271 286
f 272 285 107
f 161 136 272
f 273 304 117
f 400 413 273
f 274 399 121
f 274 414 399
f 275 398 125
f 275 415 398
f 276 301 126
f 397 416 276
f 52 104 277
f 52 277 646
f 645 22 278
f 70 278 103
f 46 279 644
f 279 99 94
f 643 76 280
f 28 280 111
f 642 34 281
f 82 281 101
f 641 64 282
f 16 282 109
f 117 116 283
f 117 283 307
f 119 118 284
f 119 284 305
f 285 212 107
f 450 212 285
f 449 138 286
f 211 286 104
f 287 448 141
f 112 210 287
f 209 99 288
f 209 288 447
f 169 162 289
f 169 289 324
f 323 117 290
f 168 290 163
f 126 291 322
f 291 164 167
f 292 166 165
f 321 166 292
f 293 294 162
f 293 632 294
f 295 163 631
f 295 631 294
f 296 163 295
f 630 296 295
f 296 168 163
f 319 168 296
f 298 133 629
f 298 629 297
f 299 133 298
f 628 299 298
f 300 134 627
f 300 627 299
f 317 134 300
f 166 300 165
f 126 301 127
f 301 396 127
f 395 131 302
f 129 302 128
f 394 120 303
f 119 303 118
f 117 304 116
f 304 393 116
f 119 605 394
f 256 603 396
f 306 388 126
f 636 259 306
f 635 117 307
f 260 307 387
f 129 604 395
f 255 606 393
f 125 527 384
f 524 386 238
f 610 393 115
f 395 255 608
f 385 121 525
f 383 237 530
f 607 396 132
f 394 256 609
f 313 328 124
f 313 375 328
f 314 326 122
f 314 376 326
f 111 105 315
f 111 315 430
f 103 97 316
f 103 316 429
f 317 640 134
f 341 40 344
f 343 342 167
f 10 318 639
f 319 157 168
f 336 157 319
f 335 135 320
f 156 320 169
f 321 173 166
f 334 173 321
f 333 126 322
f 172 322 167
f 323 262 117
f 168 262 323
f 261 169 324
f 261 324 128
f 187 171 325
f 187 374 357
f 359 122 372
f 171 185 326
f 184 170 327
f 184 371 360
f 373 358 124
f 170 186 328
f 98 377 368
f 329 170 184
f 170 330 186
f 379 364 186
f 106 380 362
f 331 171 187
f 171 332 185
f 366 185 378
f 348 126 333
f 179 333 172
f 334 178 173
f 347 178 334
f 264 135 335
f 264 335 156
f 336 263 157
f 134 263 336
f 346 117 337
f 177 337 174
f 175 338 176
f 338 345 176
f 156 175 339
f 156 339 638
f 88 340 637
f 340 174 157
f 173 341 166
f 341 344 166
f 10 342 343
f 342 172 167
f 10 343 318
f 343 167 318
f 166 344 317
f 344 40 317
f 176 345 139
f 139 505 436
f 503 438 117
f 177 142 346
f 140 178 347
f 437 140 504
f 126 506 435
f 348 179 137
f 175 176 349
f 175 349 356
f 87 350 355
f 350 177 174
f 178 351 173
f 351 354 173
f 9 352 353
f 352 179 172
f 9 353 342
f 353 172 342
f 173 354 341
f 354 41 341
f 87 355 340
f 355 174 340
f 339 175 356
f 339 356 59
f 180 357 161
f 357 434 161
f 124 358 433
f 358 181 160
f 432 122 359
f 159 359 182
f 183 360 158
f 360 431 158
f 362 180 361
f 106 361 107
f 362 187 180
f 380 187 362
f 97 104 363
f 97 363 364
f 97 364 379
f 364 181 186
f 112 365 105
f 365 366 105
f 366 378 105
f 182 185 366
f 368 183 367
f 98 367 99
f 368 184 183
f 377 184 368
f 109 110 369
f 109 369 391
f 101 102 370
f 101 370 389
f 371 327 113
f 184 327 371
f 326 185 372
f 326 372 122
f 328 186 373
f 328 373 124
f 374 325 123
f 187 325 374
f 327 170 375
f 327 375 313
f 325 171 376
f 325 376 314
f 377 329 184
f 98 329 377
f 332 105 378
f 332 378 185
f 330 97 379
f 330 379 186
f 380 331 187
f 106 331 380
f 331 315 381
f 331 381 171
f 329 316 382
f 329 382 170
f 383 530 130
f 529 237 383
f 384 528 124
f 527 238 384
f 122 385 526
f 385 525 237
f 114 386 524
f 386 523 238
f 289 260 387
f 289 387 128
f 388 291 126
f 259 291 388
f 73 101 389
f 73 389 100
f 61 103 390
f 61 390 102
f 391 19 109
f 108 19 391
f 392 31 111
f 110 31 392
f 606 116 393
f 255 393 610
f 394 609 120
f 605 256 394
f 395 608 131
f 604 255 395
f 603 127 396
f 256 396 607
f 397 618 132
f 617 257 397
f 125 398 616
f 398 615 258
f 121 399 614
f 399 613 257
f 400 612 115
f 611 258 400
f 108 107 401
f 108 401 402
f 108 402 427
f 402 188 195
f 404 188 403
f 103 403 104
f 195 188 404
f 195 404 425
f 100 99 405
f 100 405 406
f 100 406 423
f 406 189 193
f 408 189 407
f 111 407 112
f 193 189 408
f 193 408 421
f 409 102 101
f 410 102 409
f 419 102 410
f 191 410 190
f 412 190 411
f 109 411 110
f 412 191 190
f 417 191 412
f 273 413 304
f 413 115 304
f 303 120 414
f 303 414 274
f 302 131 415
f 302 415 275
f 276 416 301
f 416 132 301
f 417 282 191
f 109 282 417
f 418 34 110
f 192 34 418
f 419 64 102
f 191 64 419
f 420 281 192
f 101 281 420
f 421 280 193
f 111 280 421
f 46 112 422
f 46 422 194
f 423 76 100
f 193 76 423
f 279 194 424
f 279 424 99
f 425 278 195
f 103 278 425
f 426 277 104
f 196 277 426
f 427 22 108
f 195 22 427
f 428 4 196
f 107 4 428
f 103 429 100
f 429 98 100
f 111 430 108
f 430 106 108
f 158 431 265
f 431 113 265
f 266 122 432
f 266 432 159
f 124 433 267
f 433 160 267
f 161 434 268
f 434 123 268
f 435 442 205
f 506 137 435
f 505 128 436
f 139 436 441
f 437 504 118
f 440 140 437
f 439 208 438
f 142 438 503
f 563 502 208
f 145 439 142
f 440 147 140
f 501 147 564
f 139 441 148
f 565 500 148
f 499 205 566
f 442 137 150
f 561 197 620
f 443 9 8
f 444 42 41
f 558 42 623
f 625 556 199
f 86 445 87
f 59 446 60
f 622 559 60
f 209 447 247
f 447 578 247
f 141 448 577
f 448 210 249
f 576 138 449
f 252 449 211
f 450 254 212
f 575 254 450
f 130 451 486
f 451 205 216
f 206 452 215
f 452 485 215
f 453 214 207
f 484 214 453
f 483 114 454
f 213 454 208
f 455 220 201
f 482 220 455
f 481 125 456
f 219 456 202
f 121 457 480
f 457 203 218
f 204 458 217
f 458 479 217
f 179 197 459
f 179 459 137
f 460 176 139
f 200 176 460
f 140 461 178
f 461 198 178
f 199 462 177
f 462 142 177
f 463 6 5
f 562 6 619
f 621 560 211
f 50 464 51
f 112 45 465
f 112 465 210
f 466 99 209
f 95 99 466
f 467 158 204
f 143 158 467
f 159 141 468
f 159 468 203
f 138 469 160
f 469 202 160
f 201 470 161
f 470 136 161
f 7 6 471
f 7 594 539
f 540 222 593
f 472 8 7
f 592 541 223
f 49 473 50
f 60 474 49
f 591 542 49
f 43 42 475
f 43 590 543
f 544 226 589
f 476 44 43
f 588 545 227
f 85 477 86
f 96 478 85
f 587 546 85
f 217 479 232
f 232 510 483
f 509 484 121
f 480 218 231
f 485 125 508
f 230 481 219
f 229 220 482
f 507 486 229
f 510 114 483
f 232 483 213
f 231 214 484
f 231 484 509
f 215 485 230
f 485 508 230
f 130 486 507
f 486 216 229
f 143 144 487
f 143 595 578
f 571 227 602
f 488 145 142
f 226 596 577
f 146 141 489
f 147 490 140
f 601 572 140
f 139 148 491
f 139 600 573
f 576 223 597
f 492 149 138
f 222 599 574
f 150 137 493
f 151 494 136
f 598 575 136
f 220 495 201
f 495 570 201
f 149 496 569
f 496 219 202
f 497 568 146
f 218 203 497
f 204 217 498
f 204 498 567
f 499 566 150
f 216 205 499
f 206 215 500
f 206 500 565
f 214 501 207
f 501 564 207
f 145 502 563
f 502 213 208
f 346 142 503
f 346 503 117
f 504 347 118
f 140 347 504
f 345 128 505
f 345 505 139
f 506 348 137
f 126 348 506
f 507 482 130
f 229 482 507
f 230 508 481
f 508 125 481
f 509 480 231
f 121 480 509
f 479 114 510
f 479 510 232
f 85 511 545
f 511 233 245
f 512 243 234
f 543 243 512
f 49 513 541
f 513 235 241
f 514 239 236
f 539 239 514
f 236 585 548
f 152 150 515
f 148 153 516
f 148 583 550
f 234 581 552
f 154 146 517
f 144 155 518
f 144 579 554
f 217 232 519
f 217 519 537
f 520 535 154
f 231 218 520
f 153 521 533
f 521 230 219
f 522 220 229
f 531 220 522
f 238 523 313
f 523 113 313
f 114 524 309
f 524 238 309
f 237 525 311
f 525 121 311
f 122 526 314
f 526 237 314
f 309 238 527
f 309 527 125
f 528 313 124
f 238 313 528
f 314 237 529
f 314 529 123
f 530 311 130
f 237 311 530
f 531 495 220
f 152 495 531
f 532 499 152
f 216 499 532
f 153 533 496
f 533 219 496
f 500 215 534
f 500 534 153
f 535 497 154
f 218 497 535
f 536 501 214
f 154 501 536
f 498 217 537
f 498 537 155
f 155 538 502
f 538 213 502
f 539 221 239
f 594 221 539
f 540 593 7
f 240 222 540
f 49 541 592
f 541 241 223
f 224 242 542
f 224 542 591
f 543 225 243
f 590 225 543
f 544 589 43
f 244 226 544
f 85 545 588
f 545 245 227
f 228 246 546
f 228 546 587
f 239 547 236
f 547 586 236
f 585 150 548
f 236 548 240
f 549 584 149
f 241 235 549
f 550 235 242
f 583 235 550
f 243 551 234
f 551 582 234
f 581 146 552
f 234 552 244
f 553 580 145
f 245 233 553
f 554 233 246
f 579 233 554
f 209 247 555
f 209 555 626
f 86 556 625
f 556 248 199
f 557 624 44
f 249 210 557
f 250 558 198
f 558 623 198
f 200 251 559
f 200 559 622
f 50 560 621
f 560 252 211
f 561 620 8
f 253 197 561
f 254 562 212
f 562 619 212
f 145 563 439
f 563 208 439
f 207 564 440
f 564 147 440
f 441 206 565
f 441 565 148
f 566 442 150
f 205 442 566
f 467 204 567
f 467 567 144
f 568 468 146
f 203 468 568
f 149 569 469
f 569 202 469
f 201 570 470
f 570 151 470
f 571 602 142
f 248 227 571
f 225 250 572
f 225 572 601
f 573 224 251
f 600 224 573
f 599 137 574
f 222 574 253
f 221 254 575
f 221 575 598
f 576 597 138
f 252 223 576
f 596 141 577
f 226 577 249
f 578 228 247
f 595 228 578
f 579 518 233
f 144 518 579
f 580 518 145
f 233 518 580
f 517 146 581
f 517 581 234
f 234 582 517
f 582 147 517
f 583 516 235
f 148 516 583
f 584 516 149
f 235 516 584
f 515 150 585
f 515 585 236
f 236 586 515
f 586 151 515
f 478 228 587
f 478 587 85
f 85 588 477
f 588 227 477
f 589 476 43
f 226 476 589
f 590 475 225
f 43 475 590
f 474 224 591
f 474 591 49
f 49 592 473
f 592 223 473
f 593 472 7
f 222 472 593
f 594 471 221
f 7 471 594
f 595 487 228
f 143 487 595
f 489 141 596
f 489 596 226
f 597 492 138
f 223 492 597
f 494 221 598
f 494 598 136
f 493 137 599
f 493 599 222
f 600 491 224
f 139 491 600
f 490 225 601
f 490 601 140
f 602 488 142
f 227 488 602
f 305 127 603
f 305 603 256
f 604 308 255
f 129 308 604
f 605 305 256
f 119 305 605
f 308 116 606
f 308 606 255
f 312 256 607
f 312 607 132
f 131 608 310
f 608 255 310
f 120 609 312
f 609 256 312
f 310 255 610
f 310 610 115
f 309 258 611
f 309 611 114
f 612 310 115
f 258 310 612
f 257 613 312
f 613 120 312
f 121 614 311
f 614 257 311
f 258 615 310
f 615 131 310
f 125 616 309
f 616 258 309
f 311 257 617
f 311 617 130
f 618 312 132
f 257 312 618
f 212 619 463
f 619 6 463
f 620 443 8
f 197 443 620
f 50 621 464
f 621 211 464
f 446 200 622
f 446 622 60
f 198 623 444
f 623 42 444
f 624 465 44
f 210 465 624
f 86 625 445
f 625 199 445
f 466 209 626
f 466 626 96
f 299 627 133
f 627 134 133
f 165 628 164
f 628 298 164
f 297 629 135
f 629 133 135
f 134 630 133
f 630 295 133
f 294 631 162
f 631 163 162
f 135 133 632
f 135 632 293
f 633 165 164
f 259 165 633
f 163 260 634
f 163 634 162
f 290 117 635
f 290 635 260
f 636 292 259
f 118 292 636
f 88 637 263
f 637 157 263
f 264 156 638
f 264 638 58
f 10 639 264
f 639 135 264
f 134 640 263
f 640 40 263
f 641 65 64
f 16 65 641
f 642 35 34
f 82 35 642
f 643 77 76
f 28 77 643
f 644 93 46
f 94 93 644
f 645 23 22
f 70 23 645
f 52 646 53
f 646 4 53
f 647 57 10
f 58 57 647
f 88 648 89
f 648 40 89

